G04 #@! TF.FileFunction,Legend,Top*
%FSLAX46Y46*%
G04 Gerber Fmt 4.6, Leading zero omitted, Abs format (unit mm)*
G04 Created by KiCad (PCBNEW 4.0.2-stable) date Sunday, 28 August 2016 12:14:49*
%MOMM*%
G01*
G04 APERTURE LIST*
%ADD10C,0.100000*%
%ADD11C,0.200000*%
%ADD12C,0.150000*%
G04 APERTURE END LIST*
D10*
D11*
X146082618Y-113523762D02*
X146225475Y-113571381D01*
X146463571Y-113571381D01*
X146558809Y-113523762D01*
X146606428Y-113476143D01*
X146654047Y-113380905D01*
X146654047Y-113285667D01*
X146606428Y-113190429D01*
X146558809Y-113142810D01*
X146463571Y-113095190D01*
X146273094Y-113047571D01*
X146177856Y-112999952D01*
X146130237Y-112952333D01*
X146082618Y-112857095D01*
X146082618Y-112761857D01*
X146130237Y-112666619D01*
X146177856Y-112619000D01*
X146273094Y-112571381D01*
X146511190Y-112571381D01*
X146654047Y-112619000D01*
X147082618Y-113571381D02*
X147082618Y-112904714D01*
X147082618Y-112999952D02*
X147130237Y-112952333D01*
X147225475Y-112904714D01*
X147368333Y-112904714D01*
X147463571Y-112952333D01*
X147511190Y-113047571D01*
X147511190Y-113571381D01*
X147511190Y-113047571D02*
X147558809Y-112952333D01*
X147654047Y-112904714D01*
X147796904Y-112904714D01*
X147892142Y-112952333D01*
X147939761Y-113047571D01*
X147939761Y-113571381D01*
X148844523Y-113571381D02*
X148844523Y-113047571D01*
X148796904Y-112952333D01*
X148701666Y-112904714D01*
X148511189Y-112904714D01*
X148415951Y-112952333D01*
X148844523Y-113523762D02*
X148749285Y-113571381D01*
X148511189Y-113571381D01*
X148415951Y-113523762D01*
X148368332Y-113428524D01*
X148368332Y-113333286D01*
X148415951Y-113238048D01*
X148511189Y-113190429D01*
X148749285Y-113190429D01*
X148844523Y-113142810D01*
X149320713Y-113571381D02*
X149320713Y-112904714D01*
X149320713Y-113095190D02*
X149368332Y-112999952D01*
X149415951Y-112952333D01*
X149511189Y-112904714D01*
X149606428Y-112904714D01*
X149796904Y-112904714D02*
X150177856Y-112904714D01*
X149939761Y-112571381D02*
X149939761Y-113428524D01*
X149987380Y-113523762D01*
X150082618Y-113571381D01*
X150177856Y-113571381D01*
X151273095Y-113571381D02*
X151273095Y-112571381D01*
X151606429Y-113285667D01*
X151939762Y-112571381D01*
X151939762Y-113571381D01*
X152796905Y-113523762D02*
X152701667Y-113571381D01*
X152511190Y-113571381D01*
X152415952Y-113523762D01*
X152368333Y-113428524D01*
X152368333Y-113047571D01*
X152415952Y-112952333D01*
X152511190Y-112904714D01*
X152701667Y-112904714D01*
X152796905Y-112952333D01*
X152844524Y-113047571D01*
X152844524Y-113142810D01*
X152368333Y-113238048D01*
X153130238Y-112904714D02*
X153511190Y-112904714D01*
X153273095Y-112571381D02*
X153273095Y-113428524D01*
X153320714Y-113523762D01*
X153415952Y-113571381D01*
X153511190Y-113571381D01*
X154225477Y-113523762D02*
X154130239Y-113571381D01*
X153939762Y-113571381D01*
X153844524Y-113523762D01*
X153796905Y-113428524D01*
X153796905Y-113047571D01*
X153844524Y-112952333D01*
X153939762Y-112904714D01*
X154130239Y-112904714D01*
X154225477Y-112952333D01*
X154273096Y-113047571D01*
X154273096Y-113142810D01*
X153796905Y-113238048D01*
X154701667Y-113571381D02*
X154701667Y-112904714D01*
X154701667Y-113095190D02*
X154749286Y-112999952D01*
X154796905Y-112952333D01*
X154892143Y-112904714D01*
X154987382Y-112904714D01*
X156415954Y-113047571D02*
X156558811Y-113095190D01*
X156606430Y-113142810D01*
X156654049Y-113238048D01*
X156654049Y-113380905D01*
X156606430Y-113476143D01*
X156558811Y-113523762D01*
X156463573Y-113571381D01*
X156082620Y-113571381D01*
X156082620Y-112571381D01*
X156415954Y-112571381D01*
X156511192Y-112619000D01*
X156558811Y-112666619D01*
X156606430Y-112761857D01*
X156606430Y-112857095D01*
X156558811Y-112952333D01*
X156511192Y-112999952D01*
X156415954Y-113047571D01*
X156082620Y-113047571D01*
X157225477Y-113571381D02*
X157130239Y-113523762D01*
X157082620Y-113476143D01*
X157035001Y-113380905D01*
X157035001Y-113095190D01*
X157082620Y-112999952D01*
X157130239Y-112952333D01*
X157225477Y-112904714D01*
X157368335Y-112904714D01*
X157463573Y-112952333D01*
X157511192Y-112999952D01*
X157558811Y-113095190D01*
X157558811Y-113380905D01*
X157511192Y-113476143D01*
X157463573Y-113523762D01*
X157368335Y-113571381D01*
X157225477Y-113571381D01*
X158415954Y-113571381D02*
X158415954Y-113047571D01*
X158368335Y-112952333D01*
X158273097Y-112904714D01*
X158082620Y-112904714D01*
X157987382Y-112952333D01*
X158415954Y-113523762D02*
X158320716Y-113571381D01*
X158082620Y-113571381D01*
X157987382Y-113523762D01*
X157939763Y-113428524D01*
X157939763Y-113333286D01*
X157987382Y-113238048D01*
X158082620Y-113190429D01*
X158320716Y-113190429D01*
X158415954Y-113142810D01*
X158892144Y-113571381D02*
X158892144Y-112904714D01*
X158892144Y-113095190D02*
X158939763Y-112999952D01*
X158987382Y-112952333D01*
X159082620Y-112904714D01*
X159177859Y-112904714D01*
X159939764Y-113571381D02*
X159939764Y-112571381D01*
X159939764Y-113523762D02*
X159844526Y-113571381D01*
X159654049Y-113571381D01*
X159558811Y-113523762D01*
X159511192Y-113476143D01*
X159463573Y-113380905D01*
X159463573Y-113095190D01*
X159511192Y-112999952D01*
X159558811Y-112952333D01*
X159654049Y-112904714D01*
X159844526Y-112904714D01*
X159939764Y-112952333D01*
X146820715Y-115076143D02*
X146773096Y-115123762D01*
X146630239Y-115171381D01*
X146535001Y-115171381D01*
X146392143Y-115123762D01*
X146296905Y-115028524D01*
X146249286Y-114933286D01*
X146201667Y-114742810D01*
X146201667Y-114599952D01*
X146249286Y-114409476D01*
X146296905Y-114314238D01*
X146392143Y-114219000D01*
X146535001Y-114171381D01*
X146630239Y-114171381D01*
X146773096Y-114219000D01*
X146820715Y-114266619D01*
X147820715Y-115076143D02*
X147773096Y-115123762D01*
X147630239Y-115171381D01*
X147535001Y-115171381D01*
X147392143Y-115123762D01*
X147296905Y-115028524D01*
X147249286Y-114933286D01*
X147201667Y-114742810D01*
X147201667Y-114599952D01*
X147249286Y-114409476D01*
X147296905Y-114314238D01*
X147392143Y-114219000D01*
X147535001Y-114171381D01*
X147630239Y-114171381D01*
X147773096Y-114219000D01*
X147820715Y-114266619D01*
X148249286Y-114790429D02*
X149011191Y-114790429D01*
X149820715Y-114647571D02*
X149963572Y-114695190D01*
X150011191Y-114742810D01*
X150058810Y-114838048D01*
X150058810Y-114980905D01*
X150011191Y-115076143D01*
X149963572Y-115123762D01*
X149868334Y-115171381D01*
X149487381Y-115171381D01*
X149487381Y-114171381D01*
X149820715Y-114171381D01*
X149915953Y-114219000D01*
X149963572Y-114266619D01*
X150011191Y-114361857D01*
X150011191Y-114457095D01*
X149963572Y-114552333D01*
X149915953Y-114599952D01*
X149820715Y-114647571D01*
X149487381Y-114647571D01*
X150677857Y-114695190D02*
X150677857Y-115171381D01*
X150344524Y-114171381D02*
X150677857Y-114695190D01*
X151011191Y-114171381D01*
X151963572Y-114171381D02*
X152535001Y-114171381D01*
X152249286Y-115171381D02*
X152249286Y-114171381D01*
X152868334Y-115076143D02*
X152915953Y-115123762D01*
X152868334Y-115171381D01*
X152820715Y-115123762D01*
X152868334Y-115076143D01*
X152868334Y-115171381D01*
X153344524Y-115171381D02*
X153344524Y-114171381D01*
X153915953Y-115171381D02*
X153487381Y-114599952D01*
X153915953Y-114171381D02*
X153344524Y-114742810D01*
X154773096Y-115171381D02*
X154773096Y-114647571D01*
X154725477Y-114552333D01*
X154630239Y-114504714D01*
X154439762Y-114504714D01*
X154344524Y-114552333D01*
X154773096Y-115123762D02*
X154677858Y-115171381D01*
X154439762Y-115171381D01*
X154344524Y-115123762D01*
X154296905Y-115028524D01*
X154296905Y-114933286D01*
X154344524Y-114838048D01*
X154439762Y-114790429D01*
X154677858Y-114790429D01*
X154773096Y-114742810D01*
X155677858Y-115171381D02*
X155677858Y-114171381D01*
X155677858Y-115123762D02*
X155582620Y-115171381D01*
X155392143Y-115171381D01*
X155296905Y-115123762D01*
X155249286Y-115076143D01*
X155201667Y-114980905D01*
X155201667Y-114695190D01*
X155249286Y-114599952D01*
X155296905Y-114552333D01*
X155392143Y-114504714D01*
X155582620Y-114504714D01*
X155677858Y-114552333D01*
X156296905Y-115171381D02*
X156201667Y-115123762D01*
X156154048Y-115076143D01*
X156106429Y-114980905D01*
X156106429Y-114695190D01*
X156154048Y-114599952D01*
X156201667Y-114552333D01*
X156296905Y-114504714D01*
X156439763Y-114504714D01*
X156535001Y-114552333D01*
X156582620Y-114599952D01*
X156630239Y-114695190D01*
X156630239Y-114980905D01*
X156582620Y-115076143D01*
X156535001Y-115123762D01*
X156439763Y-115171381D01*
X156296905Y-115171381D01*
X156963572Y-114504714D02*
X157154048Y-115171381D01*
X157344525Y-114695190D01*
X157535001Y-115171381D01*
X157725477Y-114504714D01*
X158535001Y-115171381D02*
X158535001Y-114647571D01*
X158487382Y-114552333D01*
X158392144Y-114504714D01*
X158201667Y-114504714D01*
X158106429Y-114552333D01*
X158535001Y-115123762D02*
X158439763Y-115171381D01*
X158201667Y-115171381D01*
X158106429Y-115123762D01*
X158058810Y-115028524D01*
X158058810Y-114933286D01*
X158106429Y-114838048D01*
X158201667Y-114790429D01*
X158439763Y-114790429D01*
X158535001Y-114742810D01*
X159011191Y-115171381D02*
X159011191Y-114171381D01*
X159106429Y-114790429D02*
X159392144Y-115171381D01*
X159392144Y-114504714D02*
X159011191Y-114885667D01*
X159820715Y-115171381D02*
X159820715Y-114504714D01*
X159820715Y-114171381D02*
X159773096Y-114219000D01*
X159820715Y-114266619D01*
X159868334Y-114219000D01*
X159820715Y-114171381D01*
X159820715Y-114266619D01*
D12*
X132518143Y-60032476D02*
X132518143Y-59422952D01*
X132822905Y-59727714D02*
X132213381Y-59727714D01*
X132022905Y-59118190D02*
X132022905Y-58622952D01*
X132327667Y-58889619D01*
X132327667Y-58775333D01*
X132365762Y-58699143D01*
X132403857Y-58661047D01*
X132480048Y-58622952D01*
X132670524Y-58622952D01*
X132746714Y-58661047D01*
X132784810Y-58699143D01*
X132822905Y-58775333D01*
X132822905Y-59003905D01*
X132784810Y-59080095D01*
X132746714Y-59118190D01*
X132746714Y-58280095D02*
X132784810Y-58242000D01*
X132822905Y-58280095D01*
X132784810Y-58318190D01*
X132746714Y-58280095D01*
X132822905Y-58280095D01*
X132022905Y-57975333D02*
X132022905Y-57480095D01*
X132327667Y-57746762D01*
X132327667Y-57632476D01*
X132365762Y-57556286D01*
X132403857Y-57518190D01*
X132480048Y-57480095D01*
X132670524Y-57480095D01*
X132746714Y-57518190D01*
X132784810Y-57556286D01*
X132822905Y-57632476D01*
X132822905Y-57861048D01*
X132784810Y-57937238D01*
X132746714Y-57975333D01*
X132022905Y-57251524D02*
X132822905Y-56984857D01*
X132022905Y-56718190D01*
X134092905Y-59003904D02*
X134092905Y-59384857D01*
X133292905Y-59384857D01*
X133292905Y-58851524D02*
X134092905Y-58584857D01*
X133292905Y-58318190D01*
X134016714Y-57594381D02*
X134054810Y-57632476D01*
X134092905Y-57746762D01*
X134092905Y-57822952D01*
X134054810Y-57937238D01*
X133978619Y-58013429D01*
X133902429Y-58051524D01*
X133750048Y-58089619D01*
X133635762Y-58089619D01*
X133483381Y-58051524D01*
X133407190Y-58013429D01*
X133331000Y-57937238D01*
X133292905Y-57822952D01*
X133292905Y-57746762D01*
X133331000Y-57632476D01*
X133369095Y-57594381D01*
X134016714Y-56794381D02*
X134054810Y-56832476D01*
X134092905Y-56946762D01*
X134092905Y-57022952D01*
X134054810Y-57137238D01*
X133978619Y-57213429D01*
X133902429Y-57251524D01*
X133750048Y-57289619D01*
X133635762Y-57289619D01*
X133483381Y-57251524D01*
X133407190Y-57213429D01*
X133331000Y-57137238D01*
X133292905Y-57022952D01*
X133292905Y-56946762D01*
X133331000Y-56832476D01*
X133369095Y-56794381D01*
X134829571Y-60794383D02*
X135362905Y-60794383D01*
X134905762Y-60794383D02*
X134867667Y-60756288D01*
X134829571Y-60680097D01*
X134829571Y-60565811D01*
X134867667Y-60489621D01*
X134943857Y-60451526D01*
X135362905Y-60451526D01*
X135362905Y-59613430D02*
X134981952Y-59880097D01*
X135362905Y-60070573D02*
X134562905Y-60070573D01*
X134562905Y-59765811D01*
X134601000Y-59689620D01*
X134639095Y-59651525D01*
X134715286Y-59613430D01*
X134829571Y-59613430D01*
X134905762Y-59651525D01*
X134943857Y-59689620D01*
X134981952Y-59765811D01*
X134981952Y-60070573D01*
X134943857Y-59270573D02*
X134943857Y-59003906D01*
X135362905Y-58889620D02*
X135362905Y-59270573D01*
X134562905Y-59270573D01*
X134562905Y-58889620D01*
X135324810Y-58584858D02*
X135362905Y-58470572D01*
X135362905Y-58280096D01*
X135324810Y-58203906D01*
X135286714Y-58165810D01*
X135210524Y-58127715D01*
X135134333Y-58127715D01*
X135058143Y-58165810D01*
X135020048Y-58203906D01*
X134981952Y-58280096D01*
X134943857Y-58432477D01*
X134905762Y-58508668D01*
X134867667Y-58546763D01*
X134791476Y-58584858D01*
X134715286Y-58584858D01*
X134639095Y-58546763D01*
X134601000Y-58508668D01*
X134562905Y-58432477D01*
X134562905Y-58242001D01*
X134601000Y-58127715D01*
X134943857Y-57784858D02*
X134943857Y-57518191D01*
X135362905Y-57403905D02*
X135362905Y-57784858D01*
X134562905Y-57784858D01*
X134562905Y-57403905D01*
X134562905Y-57175334D02*
X134562905Y-56718191D01*
X135362905Y-56946762D02*
X134562905Y-56946762D01*
X136099571Y-61822953D02*
X136632905Y-61822953D01*
X136175762Y-61822953D02*
X136137667Y-61784858D01*
X136099571Y-61708667D01*
X136099571Y-61594381D01*
X136137667Y-61518191D01*
X136213857Y-61480096D01*
X136632905Y-61480096D01*
X136594810Y-61137238D02*
X136632905Y-61022952D01*
X136632905Y-60832476D01*
X136594810Y-60756286D01*
X136556714Y-60718190D01*
X136480524Y-60680095D01*
X136404333Y-60680095D01*
X136328143Y-60718190D01*
X136290048Y-60756286D01*
X136251952Y-60832476D01*
X136213857Y-60984857D01*
X136175762Y-61061048D01*
X136137667Y-61099143D01*
X136061476Y-61137238D01*
X135985286Y-61137238D01*
X135909095Y-61099143D01*
X135871000Y-61061048D01*
X135832905Y-60984857D01*
X135832905Y-60794381D01*
X135871000Y-60680095D01*
X136594810Y-60375333D02*
X136632905Y-60261047D01*
X136632905Y-60070571D01*
X136594810Y-59994381D01*
X136556714Y-59956285D01*
X136480524Y-59918190D01*
X136404333Y-59918190D01*
X136328143Y-59956285D01*
X136290048Y-59994381D01*
X136251952Y-60070571D01*
X136213857Y-60222952D01*
X136175762Y-60299143D01*
X136137667Y-60337238D01*
X136061476Y-60375333D01*
X135985286Y-60375333D01*
X135909095Y-60337238D01*
X135871000Y-60299143D01*
X135832905Y-60222952D01*
X135832905Y-60032476D01*
X135871000Y-59918190D01*
X135794810Y-59003904D02*
X136823381Y-59689619D01*
X136632905Y-58737238D02*
X135832905Y-58737238D01*
X136213857Y-58737238D02*
X136213857Y-58280095D01*
X136632905Y-58280095D02*
X135832905Y-58280095D01*
X136594810Y-57937238D02*
X136632905Y-57822952D01*
X136632905Y-57632476D01*
X136594810Y-57556286D01*
X136556714Y-57518190D01*
X136480524Y-57480095D01*
X136404333Y-57480095D01*
X136328143Y-57518190D01*
X136290048Y-57556286D01*
X136251952Y-57632476D01*
X136213857Y-57784857D01*
X136175762Y-57861048D01*
X136137667Y-57899143D01*
X136061476Y-57937238D01*
X135985286Y-57937238D01*
X135909095Y-57899143D01*
X135871000Y-57861048D01*
X135832905Y-57784857D01*
X135832905Y-57594381D01*
X135871000Y-57480095D01*
X136404333Y-57175333D02*
X136404333Y-56794381D01*
X136632905Y-57251524D02*
X135832905Y-56984857D01*
X136632905Y-56718190D01*
X137902905Y-62432476D02*
X137102905Y-62432476D01*
X137674333Y-62165809D01*
X137102905Y-61899142D01*
X137902905Y-61899142D01*
X137102905Y-61365809D02*
X137102905Y-61213428D01*
X137141000Y-61137237D01*
X137217190Y-61061047D01*
X137369571Y-61022952D01*
X137636238Y-61022952D01*
X137788619Y-61061047D01*
X137864810Y-61137237D01*
X137902905Y-61213428D01*
X137902905Y-61365809D01*
X137864810Y-61441999D01*
X137788619Y-61518190D01*
X137636238Y-61556285D01*
X137369571Y-61556285D01*
X137217190Y-61518190D01*
X137141000Y-61441999D01*
X137102905Y-61365809D01*
X137864810Y-60718190D02*
X137902905Y-60603904D01*
X137902905Y-60413428D01*
X137864810Y-60337238D01*
X137826714Y-60299142D01*
X137750524Y-60261047D01*
X137674333Y-60261047D01*
X137598143Y-60299142D01*
X137560048Y-60337238D01*
X137521952Y-60413428D01*
X137483857Y-60565809D01*
X137445762Y-60642000D01*
X137407667Y-60680095D01*
X137331476Y-60718190D01*
X137255286Y-60718190D01*
X137179095Y-60680095D01*
X137141000Y-60642000D01*
X137102905Y-60565809D01*
X137102905Y-60375333D01*
X137141000Y-60261047D01*
X137902905Y-59918190D02*
X137102905Y-59918190D01*
X137064810Y-58965809D02*
X138093381Y-59651524D01*
X137864810Y-58737238D02*
X137902905Y-58622952D01*
X137902905Y-58432476D01*
X137864810Y-58356286D01*
X137826714Y-58318190D01*
X137750524Y-58280095D01*
X137674333Y-58280095D01*
X137598143Y-58318190D01*
X137560048Y-58356286D01*
X137521952Y-58432476D01*
X137483857Y-58584857D01*
X137445762Y-58661048D01*
X137407667Y-58699143D01*
X137331476Y-58737238D01*
X137255286Y-58737238D01*
X137179095Y-58699143D01*
X137141000Y-58661048D01*
X137102905Y-58584857D01*
X137102905Y-58394381D01*
X137141000Y-58280095D01*
X137902905Y-57937238D02*
X137102905Y-57937238D01*
X137102905Y-57746762D01*
X137141000Y-57632476D01*
X137217190Y-57556285D01*
X137293381Y-57518190D01*
X137445762Y-57480095D01*
X137560048Y-57480095D01*
X137712429Y-57518190D01*
X137788619Y-57556285D01*
X137864810Y-57632476D01*
X137902905Y-57746762D01*
X137902905Y-57937238D01*
X137674333Y-57175333D02*
X137674333Y-56794381D01*
X137902905Y-57251524D02*
X137102905Y-56984857D01*
X137902905Y-56718190D01*
X139172905Y-62584857D02*
X138372905Y-62584857D01*
X138944333Y-62318190D01*
X138372905Y-62051523D01*
X139172905Y-62051523D01*
X139172905Y-61670571D02*
X138372905Y-61670571D01*
X139134810Y-61327714D02*
X139172905Y-61213428D01*
X139172905Y-61022952D01*
X139134810Y-60946762D01*
X139096714Y-60908666D01*
X139020524Y-60870571D01*
X138944333Y-60870571D01*
X138868143Y-60908666D01*
X138830048Y-60946762D01*
X138791952Y-61022952D01*
X138753857Y-61175333D01*
X138715762Y-61251524D01*
X138677667Y-61289619D01*
X138601476Y-61327714D01*
X138525286Y-61327714D01*
X138449095Y-61289619D01*
X138411000Y-61251524D01*
X138372905Y-61175333D01*
X138372905Y-60984857D01*
X138411000Y-60870571D01*
X138372905Y-60375333D02*
X138372905Y-60222952D01*
X138411000Y-60146761D01*
X138487190Y-60070571D01*
X138639571Y-60032476D01*
X138906238Y-60032476D01*
X139058619Y-60070571D01*
X139134810Y-60146761D01*
X139172905Y-60222952D01*
X139172905Y-60375333D01*
X139134810Y-60451523D01*
X139058619Y-60527714D01*
X138906238Y-60565809D01*
X138639571Y-60565809D01*
X138487190Y-60527714D01*
X138411000Y-60451523D01*
X138372905Y-60375333D01*
X138334810Y-59118190D02*
X139363381Y-59803905D01*
X139172905Y-58851524D02*
X138372905Y-58851524D01*
X138753857Y-58851524D02*
X138753857Y-58394381D01*
X139172905Y-58394381D02*
X138372905Y-58394381D01*
X139134810Y-58051524D02*
X139172905Y-57937238D01*
X139172905Y-57746762D01*
X139134810Y-57670572D01*
X139096714Y-57632476D01*
X139020524Y-57594381D01*
X138944333Y-57594381D01*
X138868143Y-57632476D01*
X138830048Y-57670572D01*
X138791952Y-57746762D01*
X138753857Y-57899143D01*
X138715762Y-57975334D01*
X138677667Y-58013429D01*
X138601476Y-58051524D01*
X138525286Y-58051524D01*
X138449095Y-58013429D01*
X138411000Y-57975334D01*
X138372905Y-57899143D01*
X138372905Y-57708667D01*
X138411000Y-57594381D01*
X139172905Y-57251524D02*
X138372905Y-57251524D01*
X138372905Y-57061048D01*
X138411000Y-56946762D01*
X138487190Y-56870571D01*
X138563381Y-56832476D01*
X138715762Y-56794381D01*
X138830048Y-56794381D01*
X138982429Y-56832476D01*
X139058619Y-56870571D01*
X139134810Y-56946762D01*
X139172905Y-57061048D01*
X139172905Y-57251524D01*
X140404810Y-62546762D02*
X140442905Y-62432476D01*
X140442905Y-62242000D01*
X140404810Y-62165810D01*
X140366714Y-62127714D01*
X140290524Y-62089619D01*
X140214333Y-62089619D01*
X140138143Y-62127714D01*
X140100048Y-62165810D01*
X140061952Y-62242000D01*
X140023857Y-62394381D01*
X139985762Y-62470572D01*
X139947667Y-62508667D01*
X139871476Y-62546762D01*
X139795286Y-62546762D01*
X139719095Y-62508667D01*
X139681000Y-62470572D01*
X139642905Y-62394381D01*
X139642905Y-62203905D01*
X139681000Y-62089619D01*
X140366714Y-61289619D02*
X140404810Y-61327714D01*
X140442905Y-61442000D01*
X140442905Y-61518190D01*
X140404810Y-61632476D01*
X140328619Y-61708667D01*
X140252429Y-61746762D01*
X140100048Y-61784857D01*
X139985762Y-61784857D01*
X139833381Y-61746762D01*
X139757190Y-61708667D01*
X139681000Y-61632476D01*
X139642905Y-61518190D01*
X139642905Y-61442000D01*
X139681000Y-61327714D01*
X139719095Y-61289619D01*
X140442905Y-60565809D02*
X140442905Y-60946762D01*
X139642905Y-60946762D01*
X140442905Y-60299143D02*
X139642905Y-60299143D01*
X140442905Y-59842000D02*
X139985762Y-60184857D01*
X139642905Y-59842000D02*
X140100048Y-60299143D01*
X139604810Y-58927714D02*
X140633381Y-59613429D01*
X140404810Y-58699143D02*
X140442905Y-58584857D01*
X140442905Y-58394381D01*
X140404810Y-58318191D01*
X140366714Y-58280095D01*
X140290524Y-58242000D01*
X140214333Y-58242000D01*
X140138143Y-58280095D01*
X140100048Y-58318191D01*
X140061952Y-58394381D01*
X140023857Y-58546762D01*
X139985762Y-58622953D01*
X139947667Y-58661048D01*
X139871476Y-58699143D01*
X139795286Y-58699143D01*
X139719095Y-58661048D01*
X139681000Y-58622953D01*
X139642905Y-58546762D01*
X139642905Y-58356286D01*
X139681000Y-58242000D01*
X140366714Y-57442000D02*
X140404810Y-57480095D01*
X140442905Y-57594381D01*
X140442905Y-57670571D01*
X140404810Y-57784857D01*
X140328619Y-57861048D01*
X140252429Y-57899143D01*
X140100048Y-57937238D01*
X139985762Y-57937238D01*
X139833381Y-57899143D01*
X139757190Y-57861048D01*
X139681000Y-57784857D01*
X139642905Y-57670571D01*
X139642905Y-57594381D01*
X139681000Y-57480095D01*
X139719095Y-57442000D01*
X140442905Y-56718190D02*
X140442905Y-57099143D01*
X139642905Y-57099143D01*
X141712905Y-60299143D02*
X140912905Y-60299143D01*
X141293857Y-60299143D02*
X141293857Y-59842000D01*
X141712905Y-59842000D02*
X140912905Y-59842000D01*
X141674810Y-59499143D02*
X141712905Y-59384857D01*
X141712905Y-59194381D01*
X141674810Y-59118191D01*
X141636714Y-59080095D01*
X141560524Y-59042000D01*
X141484333Y-59042000D01*
X141408143Y-59080095D01*
X141370048Y-59118191D01*
X141331952Y-59194381D01*
X141293857Y-59346762D01*
X141255762Y-59422953D01*
X141217667Y-59461048D01*
X141141476Y-59499143D01*
X141065286Y-59499143D01*
X140989095Y-59461048D01*
X140951000Y-59422953D01*
X140912905Y-59346762D01*
X140912905Y-59156286D01*
X140951000Y-59042000D01*
X141636714Y-58242000D02*
X141674810Y-58280095D01*
X141712905Y-58394381D01*
X141712905Y-58470571D01*
X141674810Y-58584857D01*
X141598619Y-58661048D01*
X141522429Y-58699143D01*
X141370048Y-58737238D01*
X141255762Y-58737238D01*
X141103381Y-58699143D01*
X141027190Y-58661048D01*
X140951000Y-58584857D01*
X140912905Y-58470571D01*
X140912905Y-58394381D01*
X140951000Y-58280095D01*
X140989095Y-58242000D01*
X141712905Y-57518190D02*
X141712905Y-57899143D01*
X140912905Y-57899143D01*
X141712905Y-57251524D02*
X140912905Y-57251524D01*
X141712905Y-56794381D02*
X141255762Y-57137238D01*
X140912905Y-56794381D02*
X141370048Y-57251524D01*
X142449571Y-59956286D02*
X142982905Y-59956286D01*
X142525762Y-59956286D02*
X142487667Y-59918191D01*
X142449571Y-59842000D01*
X142449571Y-59727714D01*
X142487667Y-59651524D01*
X142563857Y-59613429D01*
X142982905Y-59613429D01*
X142982905Y-59232476D02*
X142182905Y-59232476D01*
X142982905Y-58394381D02*
X142601952Y-58661048D01*
X142982905Y-58851524D02*
X142182905Y-58851524D01*
X142182905Y-58546762D01*
X142221000Y-58470571D01*
X142259095Y-58432476D01*
X142335286Y-58394381D01*
X142449571Y-58394381D01*
X142525762Y-58432476D01*
X142563857Y-58470571D01*
X142601952Y-58546762D01*
X142601952Y-58851524D01*
X143059095Y-57518190D02*
X143021000Y-57594381D01*
X142944810Y-57670571D01*
X142830524Y-57784857D01*
X142792429Y-57861048D01*
X142792429Y-57937238D01*
X142982905Y-57899143D02*
X142944810Y-57975333D01*
X142868619Y-58051524D01*
X142716238Y-58089619D01*
X142449571Y-58089619D01*
X142297190Y-58051524D01*
X142221000Y-57975333D01*
X142182905Y-57899143D01*
X142182905Y-57746762D01*
X142221000Y-57670571D01*
X142297190Y-57594381D01*
X142449571Y-57556286D01*
X142716238Y-57556286D01*
X142868619Y-57594381D01*
X142944810Y-57670571D01*
X142982905Y-57746762D01*
X142982905Y-57899143D01*
X142982905Y-56794381D02*
X142982905Y-57251524D01*
X142982905Y-57022953D02*
X142182905Y-57022953D01*
X142297190Y-57099143D01*
X142373381Y-57175334D01*
X142411476Y-57251524D01*
X143719571Y-59956286D02*
X144252905Y-59956286D01*
X143795762Y-59956286D02*
X143757667Y-59918191D01*
X143719571Y-59842000D01*
X143719571Y-59727714D01*
X143757667Y-59651524D01*
X143833857Y-59613429D01*
X144252905Y-59613429D01*
X144252905Y-59232476D02*
X143452905Y-59232476D01*
X144252905Y-58394381D02*
X143871952Y-58661048D01*
X144252905Y-58851524D02*
X143452905Y-58851524D01*
X143452905Y-58546762D01*
X143491000Y-58470571D01*
X143529095Y-58432476D01*
X143605286Y-58394381D01*
X143719571Y-58394381D01*
X143795762Y-58432476D01*
X143833857Y-58470571D01*
X143871952Y-58546762D01*
X143871952Y-58851524D01*
X144329095Y-57518190D02*
X144291000Y-57594381D01*
X144214810Y-57670571D01*
X144100524Y-57784857D01*
X144062429Y-57861048D01*
X144062429Y-57937238D01*
X144252905Y-57899143D02*
X144214810Y-57975333D01*
X144138619Y-58051524D01*
X143986238Y-58089619D01*
X143719571Y-58089619D01*
X143567190Y-58051524D01*
X143491000Y-57975333D01*
X143452905Y-57899143D01*
X143452905Y-57746762D01*
X143491000Y-57670571D01*
X143567190Y-57594381D01*
X143719571Y-57556286D01*
X143986238Y-57556286D01*
X144138619Y-57594381D01*
X144214810Y-57670571D01*
X144252905Y-57746762D01*
X144252905Y-57899143D01*
X143452905Y-57061048D02*
X143452905Y-56984857D01*
X143491000Y-56908667D01*
X143529095Y-56870572D01*
X143605286Y-56832476D01*
X143757667Y-56794381D01*
X143948143Y-56794381D01*
X144100524Y-56832476D01*
X144176714Y-56870572D01*
X144214810Y-56908667D01*
X144252905Y-56984857D01*
X144252905Y-57061048D01*
X144214810Y-57137238D01*
X144176714Y-57175334D01*
X144100524Y-57213429D01*
X143948143Y-57251524D01*
X143757667Y-57251524D01*
X143605286Y-57213429D01*
X143529095Y-57175334D01*
X143491000Y-57137238D01*
X143452905Y-57061048D01*
X144761000Y-58470571D02*
X144722905Y-58546762D01*
X144722905Y-58661047D01*
X144761000Y-58775333D01*
X144837190Y-58851524D01*
X144913381Y-58889619D01*
X145065762Y-58927714D01*
X145180048Y-58927714D01*
X145332429Y-58889619D01*
X145408619Y-58851524D01*
X145484810Y-58775333D01*
X145522905Y-58661047D01*
X145522905Y-58584857D01*
X145484810Y-58470571D01*
X145446714Y-58432476D01*
X145180048Y-58432476D01*
X145180048Y-58584857D01*
X145522905Y-58089619D02*
X144722905Y-58089619D01*
X145522905Y-57632476D01*
X144722905Y-57632476D01*
X145522905Y-57251524D02*
X144722905Y-57251524D01*
X144722905Y-57061048D01*
X144761000Y-56946762D01*
X144837190Y-56870571D01*
X144913381Y-56832476D01*
X145065762Y-56794381D01*
X145180048Y-56794381D01*
X145332429Y-56832476D01*
X145408619Y-56870571D01*
X145484810Y-56946762D01*
X145522905Y-57061048D01*
X145522905Y-57251524D01*
X147305000Y-66730000D02*
X148805000Y-66730000D01*
X161805000Y-59730000D02*
X159305000Y-59730000D01*
X159305000Y-59730000D02*
X159305000Y-64730000D01*
X159305000Y-64730000D02*
X161805000Y-64730000D01*
X147305000Y-59730000D02*
X147305000Y-57730000D01*
X147305000Y-66730000D02*
X147305000Y-64730000D01*
X147305000Y-57730000D02*
X148805000Y-57730000D01*
X161805000Y-66730000D02*
X153805000Y-66730000D01*
X161805000Y-57730000D02*
X153805000Y-57730000D01*
X161805000Y-57730000D02*
X161805000Y-66730000D01*
X136060000Y-71035000D02*
X137960000Y-71035000D01*
X136060000Y-69935000D02*
X137960000Y-69935000D01*
X136960000Y-69469000D02*
X137410000Y-69469000D01*
X136910000Y-69219000D02*
X136910000Y-69719000D01*
X136910000Y-69469000D02*
X137160000Y-69219000D01*
X137160000Y-69219000D02*
X137160000Y-69719000D01*
X137160000Y-69719000D02*
X136910000Y-69469000D01*
X121635000Y-107280000D02*
X120935000Y-107280000D01*
X120935000Y-106080000D02*
X121635000Y-106080000D01*
X121785000Y-110530000D02*
X120785000Y-110530000D01*
X120785000Y-109180000D02*
X121785000Y-109180000D01*
X120785000Y-112355000D02*
X121785000Y-112355000D01*
X121785000Y-113705000D02*
X120785000Y-113705000D01*
X102625000Y-84820000D02*
X102625000Y-82820000D01*
X100575000Y-82820000D02*
X100575000Y-84820000D01*
X137660000Y-67350000D02*
X136660000Y-67350000D01*
X136660000Y-66000000D02*
X137660000Y-66000000D01*
X125460000Y-85970000D02*
X123460000Y-85970000D01*
X123460000Y-88020000D02*
X125460000Y-88020000D01*
X124960000Y-82335000D02*
X123960000Y-82335000D01*
X123960000Y-84035000D02*
X124960000Y-84035000D01*
X120634000Y-92828000D02*
X118634000Y-92828000D01*
X118634000Y-94878000D02*
X120634000Y-94878000D01*
X119626000Y-89320000D02*
X118626000Y-89320000D01*
X118626000Y-91020000D02*
X119626000Y-91020000D01*
X135925000Y-87980000D02*
X135925000Y-87280000D01*
X137125000Y-87280000D02*
X137125000Y-87980000D01*
X100965000Y-56515000D02*
X126365000Y-56515000D01*
X126365000Y-56515000D02*
X126365000Y-59055000D01*
X126365000Y-59055000D02*
X100965000Y-59055000D01*
X98145000Y-56235000D02*
X99695000Y-56235000D01*
X100965000Y-56515000D02*
X100965000Y-59055000D01*
X99695000Y-59335000D02*
X98145000Y-59335000D01*
X98145000Y-59335000D02*
X98145000Y-56235000D01*
X119990000Y-78765000D02*
X119990000Y-79290000D01*
X113690000Y-85065000D02*
X113690000Y-84540000D01*
X119990000Y-85065000D02*
X119990000Y-84540000D01*
X113690000Y-78765000D02*
X114215000Y-78765000D01*
X113690000Y-85065000D02*
X114215000Y-85065000D01*
X119990000Y-85065000D02*
X119465000Y-85065000D01*
X119990000Y-78765000D02*
X119465000Y-78765000D01*
X133096000Y-79502000D02*
X132715000Y-79502000D01*
X129794000Y-79502000D02*
X130175000Y-79502000D01*
X129794000Y-89408000D02*
X130175000Y-89408000D01*
X133096000Y-89408000D02*
X132715000Y-89408000D01*
X133985000Y-90170000D02*
X132715000Y-90170000D01*
X128905000Y-90170000D02*
X130175000Y-90170000D01*
X128905000Y-78740000D02*
X130175000Y-78740000D01*
X133985000Y-78740000D02*
X132715000Y-78740000D01*
X129794000Y-79502000D02*
X129159000Y-80137000D01*
X129159000Y-80137000D02*
X129159000Y-88773000D01*
X129159000Y-88773000D02*
X129794000Y-89408000D01*
X133096000Y-89408000D02*
X133731000Y-88773000D01*
X133731000Y-88773000D02*
X133731000Y-80137000D01*
X133731000Y-80137000D02*
X133096000Y-79502000D01*
X128905000Y-90170000D02*
X128905000Y-78740000D01*
X133985000Y-78740000D02*
X133985000Y-90170000D01*
X102100000Y-78780000D02*
X101100000Y-78780000D01*
X101100000Y-77430000D02*
X102100000Y-77430000D01*
X99441000Y-127000000D02*
X102489000Y-127000000D01*
X100965000Y-124968000D02*
X102489000Y-127000000D01*
X100965000Y-124968000D02*
X99441000Y-127000000D01*
X129365000Y-115920000D02*
X97965000Y-115920000D01*
X97965000Y-115920000D02*
X97965000Y-127920000D01*
X97965000Y-127920000D02*
X129365000Y-127920000D01*
X129365000Y-127920000D02*
X129365000Y-115920000D01*
X131826000Y-127000000D02*
X134874000Y-127000000D01*
X133350000Y-124968000D02*
X134874000Y-127000000D01*
X133350000Y-124968000D02*
X131826000Y-127000000D01*
X161750000Y-115920000D02*
X130350000Y-115920000D01*
X130350000Y-115920000D02*
X130350000Y-127920000D01*
X130350000Y-127920000D02*
X161750000Y-127920000D01*
X161750000Y-127920000D02*
X161750000Y-115920000D01*
X158115000Y-106045000D02*
X160147000Y-104521000D01*
X160147000Y-104521000D02*
X160147000Y-107569000D01*
X158115000Y-106045000D02*
X160147000Y-107569000D01*
X161575000Y-109045000D02*
X149575000Y-109045000D01*
X161575000Y-97965000D02*
X161575000Y-109045000D01*
X149575000Y-97965000D02*
X161575000Y-97965000D01*
X149575000Y-109045000D02*
X149575000Y-97965000D01*
X100300840Y-67325240D02*
X100349100Y-67325240D01*
X103099820Y-66624200D02*
X103099820Y-67325240D01*
X103099820Y-67325240D02*
X102850900Y-67325240D01*
X100300840Y-67325240D02*
X100100180Y-67325240D01*
X100100180Y-67325240D02*
X100100180Y-66624200D01*
X104745840Y-67325240D02*
X104794100Y-67325240D01*
X107544820Y-66624200D02*
X107544820Y-67325240D01*
X107544820Y-67325240D02*
X107295900Y-67325240D01*
X104745840Y-67325240D02*
X104545180Y-67325240D01*
X104545180Y-67325240D02*
X104545180Y-66624200D01*
X109190840Y-67325240D02*
X109239100Y-67325240D01*
X111989820Y-66624200D02*
X111989820Y-67325240D01*
X111989820Y-67325240D02*
X111740900Y-67325240D01*
X109190840Y-67325240D02*
X108990180Y-67325240D01*
X108990180Y-67325240D02*
X108990180Y-66624200D01*
X113635840Y-67325240D02*
X113684100Y-67325240D01*
X116434820Y-66624200D02*
X116434820Y-67325240D01*
X116434820Y-67325240D02*
X116185900Y-67325240D01*
X113635840Y-67325240D02*
X113435180Y-67325240D01*
X113435180Y-67325240D02*
X113435180Y-66624200D01*
X118080840Y-67325240D02*
X118129100Y-67325240D01*
X120879820Y-66624200D02*
X120879820Y-67325240D01*
X120879820Y-67325240D02*
X120630900Y-67325240D01*
X118080840Y-67325240D02*
X117880180Y-67325240D01*
X117880180Y-67325240D02*
X117880180Y-66624200D01*
X101735000Y-112355000D02*
X102735000Y-112355000D01*
X102735000Y-113705000D02*
X101735000Y-113705000D01*
X108085000Y-112355000D02*
X109085000Y-112355000D01*
X109085000Y-113705000D02*
X108085000Y-113705000D01*
X114435000Y-112355000D02*
X115435000Y-112355000D01*
X115435000Y-113705000D02*
X114435000Y-113705000D01*
X127135000Y-112355000D02*
X128135000Y-112355000D01*
X128135000Y-113705000D02*
X127135000Y-113705000D01*
X133485000Y-112355000D02*
X134485000Y-112355000D01*
X134485000Y-113705000D02*
X133485000Y-113705000D01*
X139835000Y-112355000D02*
X140835000Y-112355000D01*
X140835000Y-113705000D02*
X139835000Y-113705000D01*
X101735000Y-109180000D02*
X102735000Y-109180000D01*
X102735000Y-110530000D02*
X101735000Y-110530000D01*
X108085000Y-109180000D02*
X109085000Y-109180000D01*
X109085000Y-110530000D02*
X108085000Y-110530000D01*
X114435000Y-109180000D02*
X115435000Y-109180000D01*
X115435000Y-110530000D02*
X114435000Y-110530000D01*
X127135000Y-109180000D02*
X128135000Y-109180000D01*
X128135000Y-110530000D02*
X127135000Y-110530000D01*
X133485000Y-109180000D02*
X134485000Y-109180000D01*
X134485000Y-110530000D02*
X133485000Y-110530000D01*
X139835000Y-109180000D02*
X140835000Y-109180000D01*
X140835000Y-110530000D02*
X139835000Y-110530000D01*
X108085000Y-101560000D02*
X109085000Y-101560000D01*
X109085000Y-102910000D02*
X108085000Y-102910000D01*
X114435000Y-101560000D02*
X115435000Y-101560000D01*
X115435000Y-102910000D02*
X114435000Y-102910000D01*
X120785000Y-101560000D02*
X121785000Y-101560000D01*
X121785000Y-102910000D02*
X120785000Y-102910000D01*
X133485000Y-101560000D02*
X134485000Y-101560000D01*
X134485000Y-102910000D02*
X133485000Y-102910000D01*
X127135000Y-101560000D02*
X128135000Y-101560000D01*
X128135000Y-102910000D02*
X127135000Y-102910000D01*
X101100000Y-62190000D02*
X102100000Y-62190000D01*
X102100000Y-63540000D02*
X101100000Y-63540000D01*
X105545000Y-62190000D02*
X106545000Y-62190000D01*
X106545000Y-63540000D02*
X105545000Y-63540000D01*
X109990000Y-62190000D02*
X110990000Y-62190000D01*
X110990000Y-63540000D02*
X109990000Y-63540000D01*
X114435000Y-62190000D02*
X115435000Y-62190000D01*
X115435000Y-63540000D02*
X114435000Y-63540000D01*
X118880000Y-62190000D02*
X119880000Y-62190000D01*
X119880000Y-63540000D02*
X118880000Y-63540000D01*
X101100000Y-69810000D02*
X102100000Y-69810000D01*
X102100000Y-71160000D02*
X101100000Y-71160000D01*
X105545000Y-69810000D02*
X106545000Y-69810000D01*
X106545000Y-71160000D02*
X105545000Y-71160000D01*
X109990000Y-69810000D02*
X110990000Y-69810000D01*
X110990000Y-71160000D02*
X109990000Y-71160000D01*
X114435000Y-69810000D02*
X115435000Y-69810000D01*
X115435000Y-71160000D02*
X114435000Y-71160000D01*
X118880000Y-69810000D02*
X119880000Y-69810000D01*
X119880000Y-71160000D02*
X118880000Y-71160000D01*
X142115000Y-95300000D02*
X142115000Y-69800000D01*
X142115000Y-69800000D02*
X161415000Y-69800000D01*
X161415000Y-69800000D02*
X161415000Y-95300000D01*
X161415000Y-95300000D02*
X142115000Y-95300000D01*
X122525840Y-67325240D02*
X122574100Y-67325240D01*
X125324820Y-66624200D02*
X125324820Y-67325240D01*
X125324820Y-67325240D02*
X125075900Y-67325240D01*
X122525840Y-67325240D02*
X122325180Y-67325240D01*
X122325180Y-67325240D02*
X122325180Y-66624200D01*
X126970840Y-67325240D02*
X127019100Y-67325240D01*
X129769820Y-66624200D02*
X129769820Y-67325240D01*
X129769820Y-67325240D02*
X129520900Y-67325240D01*
X126970840Y-67325240D02*
X126770180Y-67325240D01*
X126770180Y-67325240D02*
X126770180Y-66624200D01*
X131415840Y-67325240D02*
X131464100Y-67325240D01*
X134214820Y-66624200D02*
X134214820Y-67325240D01*
X134214820Y-67325240D02*
X133965900Y-67325240D01*
X131415840Y-67325240D02*
X131215180Y-67325240D01*
X131215180Y-67325240D02*
X131215180Y-66624200D01*
X123325000Y-62190000D02*
X124325000Y-62190000D01*
X124325000Y-63540000D02*
X123325000Y-63540000D01*
X123325000Y-69810000D02*
X124325000Y-69810000D01*
X124325000Y-71160000D02*
X123325000Y-71160000D01*
X127770000Y-62190000D02*
X128770000Y-62190000D01*
X128770000Y-63540000D02*
X127770000Y-63540000D01*
X127770000Y-69810000D02*
X128770000Y-69810000D01*
X128770000Y-71160000D02*
X127770000Y-71160000D01*
X132215000Y-62190000D02*
X133215000Y-62190000D01*
X133215000Y-63540000D02*
X132215000Y-63540000D01*
X132215000Y-69810000D02*
X133215000Y-69810000D01*
X133215000Y-71160000D02*
X132215000Y-71160000D01*
X102585000Y-107280000D02*
X101885000Y-107280000D01*
X101885000Y-106080000D02*
X102585000Y-106080000D01*
X108935000Y-107280000D02*
X108235000Y-107280000D01*
X108235000Y-106080000D02*
X108935000Y-106080000D01*
X115285000Y-107280000D02*
X114585000Y-107280000D01*
X114585000Y-106080000D02*
X115285000Y-106080000D01*
X127985000Y-107280000D02*
X127285000Y-107280000D01*
X127285000Y-106080000D02*
X127985000Y-106080000D01*
X134335000Y-107280000D02*
X133635000Y-107280000D01*
X133635000Y-106080000D02*
X134335000Y-106080000D01*
X140685000Y-107280000D02*
X139985000Y-107280000D01*
X139985000Y-106080000D02*
X140685000Y-106080000D01*
X108935000Y-99660000D02*
X108235000Y-99660000D01*
X108235000Y-98460000D02*
X108935000Y-98460000D01*
X115285000Y-99660000D02*
X114585000Y-99660000D01*
X114585000Y-98460000D02*
X115285000Y-98460000D01*
X121635000Y-99660000D02*
X120935000Y-99660000D01*
X120935000Y-98460000D02*
X121635000Y-98460000D01*
X134335000Y-99660000D02*
X133635000Y-99660000D01*
X133635000Y-98460000D02*
X134335000Y-98460000D01*
X127985000Y-99660000D02*
X127285000Y-99660000D01*
X127285000Y-98460000D02*
X127985000Y-98460000D01*
X107070000Y-82915000D02*
X107070000Y-80915000D01*
X105020000Y-80915000D02*
X105020000Y-82915000D01*
X110705000Y-82415000D02*
X110705000Y-81415000D01*
X109005000Y-81415000D02*
X109005000Y-82415000D01*
X137125000Y-80930000D02*
X137125000Y-81630000D01*
X135925000Y-81630000D02*
X135925000Y-80930000D01*
X154360715Y-66397143D02*
X154313096Y-66444762D01*
X154170239Y-66492381D01*
X154075001Y-66492381D01*
X153932143Y-66444762D01*
X153836905Y-66349524D01*
X153789286Y-66254286D01*
X153741667Y-66063810D01*
X153741667Y-65920952D01*
X153789286Y-65730476D01*
X153836905Y-65635238D01*
X153932143Y-65540000D01*
X154075001Y-65492381D01*
X154170239Y-65492381D01*
X154313096Y-65540000D01*
X154360715Y-65587619D01*
X154979762Y-65492381D02*
X155170239Y-65492381D01*
X155265477Y-65540000D01*
X155360715Y-65635238D01*
X155408334Y-65825714D01*
X155408334Y-66159048D01*
X155360715Y-66349524D01*
X155265477Y-66444762D01*
X155170239Y-66492381D01*
X154979762Y-66492381D01*
X154884524Y-66444762D01*
X154789286Y-66349524D01*
X154741667Y-66159048D01*
X154741667Y-65825714D01*
X154789286Y-65635238D01*
X154884524Y-65540000D01*
X154979762Y-65492381D01*
X155836905Y-66492381D02*
X155836905Y-65492381D01*
X156408334Y-66492381D01*
X156408334Y-65492381D01*
X157408334Y-66492381D02*
X156836905Y-66492381D01*
X157122619Y-66492381D02*
X157122619Y-65492381D01*
X157027381Y-65635238D01*
X156932143Y-65730476D01*
X156836905Y-65778095D01*
X136421905Y-72437381D02*
X136421905Y-71437381D01*
X136660000Y-71437381D01*
X136802858Y-71485000D01*
X136898096Y-71580238D01*
X136945715Y-71675476D01*
X136993334Y-71865952D01*
X136993334Y-72008810D01*
X136945715Y-72199286D01*
X136898096Y-72294524D01*
X136802858Y-72389762D01*
X136660000Y-72437381D01*
X136421905Y-72437381D01*
X137945715Y-72437381D02*
X137374286Y-72437381D01*
X137660000Y-72437381D02*
X137660000Y-71437381D01*
X137564762Y-71580238D01*
X137469524Y-71675476D01*
X137374286Y-71723095D01*
X121118334Y-108537143D02*
X121070715Y-108584762D01*
X120927858Y-108632381D01*
X120832620Y-108632381D01*
X120689762Y-108584762D01*
X120594524Y-108489524D01*
X120546905Y-108394286D01*
X120499286Y-108203810D01*
X120499286Y-108060952D01*
X120546905Y-107870476D01*
X120594524Y-107775238D01*
X120689762Y-107680000D01*
X120832620Y-107632381D01*
X120927858Y-107632381D01*
X121070715Y-107680000D01*
X121118334Y-107727619D01*
X121451667Y-107632381D02*
X122118334Y-107632381D01*
X121689762Y-108632381D01*
X120642143Y-111807381D02*
X120308809Y-111331190D01*
X120070714Y-111807381D02*
X120070714Y-110807381D01*
X120451667Y-110807381D01*
X120546905Y-110855000D01*
X120594524Y-110902619D01*
X120642143Y-110997857D01*
X120642143Y-111140714D01*
X120594524Y-111235952D01*
X120546905Y-111283571D01*
X120451667Y-111331190D01*
X120070714Y-111331190D01*
X121594524Y-111807381D02*
X121023095Y-111807381D01*
X121308809Y-111807381D02*
X121308809Y-110807381D01*
X121213571Y-110950238D01*
X121118333Y-111045476D01*
X121023095Y-111093095D01*
X122451667Y-111140714D02*
X122451667Y-111807381D01*
X122213571Y-110759762D02*
X121975476Y-111474048D01*
X122594524Y-111474048D01*
X120642143Y-114982381D02*
X120308809Y-114506190D01*
X120070714Y-114982381D02*
X120070714Y-113982381D01*
X120451667Y-113982381D01*
X120546905Y-114030000D01*
X120594524Y-114077619D01*
X120642143Y-114172857D01*
X120642143Y-114315714D01*
X120594524Y-114410952D01*
X120546905Y-114458571D01*
X120451667Y-114506190D01*
X120070714Y-114506190D01*
X121594524Y-114982381D02*
X121023095Y-114982381D01*
X121308809Y-114982381D02*
X121308809Y-113982381D01*
X121213571Y-114125238D01*
X121118333Y-114220476D01*
X121023095Y-114268095D01*
X121927857Y-113982381D02*
X122546905Y-113982381D01*
X122213571Y-114363333D01*
X122356429Y-114363333D01*
X122451667Y-114410952D01*
X122499286Y-114458571D01*
X122546905Y-114553810D01*
X122546905Y-114791905D01*
X122499286Y-114887143D01*
X122451667Y-114934762D01*
X122356429Y-114982381D01*
X122070714Y-114982381D01*
X121975476Y-114934762D01*
X121927857Y-114887143D01*
X103857143Y-84462857D02*
X103904762Y-84510476D01*
X103952381Y-84653333D01*
X103952381Y-84748571D01*
X103904762Y-84891429D01*
X103809524Y-84986667D01*
X103714286Y-85034286D01*
X103523810Y-85081905D01*
X103380952Y-85081905D01*
X103190476Y-85034286D01*
X103095238Y-84986667D01*
X103000000Y-84891429D01*
X102952381Y-84748571D01*
X102952381Y-84653333D01*
X103000000Y-84510476D01*
X103047619Y-84462857D01*
X103952381Y-83510476D02*
X103952381Y-84081905D01*
X103952381Y-83796191D02*
X102952381Y-83796191D01*
X103095238Y-83891429D01*
X103190476Y-83986667D01*
X103238095Y-84081905D01*
X103952381Y-83034286D02*
X103952381Y-82843810D01*
X103904762Y-82748571D01*
X103857143Y-82700952D01*
X103714286Y-82605714D01*
X103523810Y-82558095D01*
X103142857Y-82558095D01*
X103047619Y-82605714D01*
X103000000Y-82653333D01*
X102952381Y-82748571D01*
X102952381Y-82939048D01*
X103000000Y-83034286D01*
X103047619Y-83081905D01*
X103142857Y-83129524D01*
X103380952Y-83129524D01*
X103476190Y-83081905D01*
X103523810Y-83034286D01*
X103571429Y-82939048D01*
X103571429Y-82748571D01*
X103523810Y-82653333D01*
X103476190Y-82605714D01*
X103380952Y-82558095D01*
X136517143Y-68627381D02*
X136183809Y-68151190D01*
X135945714Y-68627381D02*
X135945714Y-67627381D01*
X136326667Y-67627381D01*
X136421905Y-67675000D01*
X136469524Y-67722619D01*
X136517143Y-67817857D01*
X136517143Y-67960714D01*
X136469524Y-68055952D01*
X136421905Y-68103571D01*
X136326667Y-68151190D01*
X135945714Y-68151190D01*
X136850476Y-67627381D02*
X137469524Y-67627381D01*
X137136190Y-68008333D01*
X137279048Y-68008333D01*
X137374286Y-68055952D01*
X137421905Y-68103571D01*
X137469524Y-68198810D01*
X137469524Y-68436905D01*
X137421905Y-68532143D01*
X137374286Y-68579762D01*
X137279048Y-68627381D01*
X136993333Y-68627381D01*
X136898095Y-68579762D01*
X136850476Y-68532143D01*
X137802857Y-67627381D02*
X138469524Y-67627381D01*
X138040952Y-68627381D01*
X123817143Y-89252143D02*
X123769524Y-89299762D01*
X123626667Y-89347381D01*
X123531429Y-89347381D01*
X123388571Y-89299762D01*
X123293333Y-89204524D01*
X123245714Y-89109286D01*
X123198095Y-88918810D01*
X123198095Y-88775952D01*
X123245714Y-88585476D01*
X123293333Y-88490238D01*
X123388571Y-88395000D01*
X123531429Y-88347381D01*
X123626667Y-88347381D01*
X123769524Y-88395000D01*
X123817143Y-88442619D01*
X124769524Y-89347381D02*
X124198095Y-89347381D01*
X124483809Y-89347381D02*
X124483809Y-88347381D01*
X124388571Y-88490238D01*
X124293333Y-88585476D01*
X124198095Y-88633095D01*
X125626667Y-88680714D02*
X125626667Y-89347381D01*
X125388571Y-88299762D02*
X125150476Y-89014048D01*
X125769524Y-89014048D01*
X123817143Y-85242143D02*
X123769524Y-85289762D01*
X123626667Y-85337381D01*
X123531429Y-85337381D01*
X123388571Y-85289762D01*
X123293333Y-85194524D01*
X123245714Y-85099286D01*
X123198095Y-84908810D01*
X123198095Y-84765952D01*
X123245714Y-84575476D01*
X123293333Y-84480238D01*
X123388571Y-84385000D01*
X123531429Y-84337381D01*
X123626667Y-84337381D01*
X123769524Y-84385000D01*
X123817143Y-84432619D01*
X124769524Y-85337381D02*
X124198095Y-85337381D01*
X124483809Y-85337381D02*
X124483809Y-84337381D01*
X124388571Y-84480238D01*
X124293333Y-84575476D01*
X124198095Y-84623095D01*
X125102857Y-84337381D02*
X125721905Y-84337381D01*
X125388571Y-84718333D01*
X125531429Y-84718333D01*
X125626667Y-84765952D01*
X125674286Y-84813571D01*
X125721905Y-84908810D01*
X125721905Y-85146905D01*
X125674286Y-85242143D01*
X125626667Y-85289762D01*
X125531429Y-85337381D01*
X125245714Y-85337381D01*
X125150476Y-85289762D01*
X125102857Y-85242143D01*
X118991143Y-96110143D02*
X118943524Y-96157762D01*
X118800667Y-96205381D01*
X118705429Y-96205381D01*
X118562571Y-96157762D01*
X118467333Y-96062524D01*
X118419714Y-95967286D01*
X118372095Y-95776810D01*
X118372095Y-95633952D01*
X118419714Y-95443476D01*
X118467333Y-95348238D01*
X118562571Y-95253000D01*
X118705429Y-95205381D01*
X118800667Y-95205381D01*
X118943524Y-95253000D01*
X118991143Y-95300619D01*
X119372095Y-95300619D02*
X119419714Y-95253000D01*
X119514952Y-95205381D01*
X119753048Y-95205381D01*
X119848286Y-95253000D01*
X119895905Y-95300619D01*
X119943524Y-95395857D01*
X119943524Y-95491095D01*
X119895905Y-95633952D01*
X119324476Y-96205381D01*
X119943524Y-96205381D01*
X120562571Y-95205381D02*
X120657810Y-95205381D01*
X120753048Y-95253000D01*
X120800667Y-95300619D01*
X120848286Y-95395857D01*
X120895905Y-95586333D01*
X120895905Y-95824429D01*
X120848286Y-96014905D01*
X120800667Y-96110143D01*
X120753048Y-96157762D01*
X120657810Y-96205381D01*
X120562571Y-96205381D01*
X120467333Y-96157762D01*
X120419714Y-96110143D01*
X120372095Y-96014905D01*
X120324476Y-95824429D01*
X120324476Y-95586333D01*
X120372095Y-95395857D01*
X120419714Y-95300619D01*
X120467333Y-95253000D01*
X120562571Y-95205381D01*
X118483143Y-92227143D02*
X118435524Y-92274762D01*
X118292667Y-92322381D01*
X118197429Y-92322381D01*
X118054571Y-92274762D01*
X117959333Y-92179524D01*
X117911714Y-92084286D01*
X117864095Y-91893810D01*
X117864095Y-91750952D01*
X117911714Y-91560476D01*
X117959333Y-91465238D01*
X118054571Y-91370000D01*
X118197429Y-91322381D01*
X118292667Y-91322381D01*
X118435524Y-91370000D01*
X118483143Y-91417619D01*
X118864095Y-91417619D02*
X118911714Y-91370000D01*
X119006952Y-91322381D01*
X119245048Y-91322381D01*
X119340286Y-91370000D01*
X119387905Y-91417619D01*
X119435524Y-91512857D01*
X119435524Y-91608095D01*
X119387905Y-91750952D01*
X118816476Y-92322381D01*
X119435524Y-92322381D01*
X120387905Y-92322381D02*
X119816476Y-92322381D01*
X120102190Y-92322381D02*
X120102190Y-91322381D01*
X120006952Y-91465238D01*
X119911714Y-91560476D01*
X119816476Y-91608095D01*
X138382143Y-88272857D02*
X138429762Y-88320476D01*
X138477381Y-88463333D01*
X138477381Y-88558571D01*
X138429762Y-88701429D01*
X138334524Y-88796667D01*
X138239286Y-88844286D01*
X138048810Y-88891905D01*
X137905952Y-88891905D01*
X137715476Y-88844286D01*
X137620238Y-88796667D01*
X137525000Y-88701429D01*
X137477381Y-88558571D01*
X137477381Y-88463333D01*
X137525000Y-88320476D01*
X137572619Y-88272857D01*
X138477381Y-87320476D02*
X138477381Y-87891905D01*
X138477381Y-87606191D02*
X137477381Y-87606191D01*
X137620238Y-87701429D01*
X137715476Y-87796667D01*
X137763095Y-87891905D01*
X137477381Y-86987143D02*
X137477381Y-86320476D01*
X138477381Y-86749048D01*
X135850477Y-74636381D02*
X135850477Y-75350667D01*
X135802857Y-75493524D01*
X135707619Y-75588762D01*
X135564762Y-75636381D01*
X135469524Y-75636381D01*
X136326667Y-75636381D02*
X136326667Y-74636381D01*
X136707620Y-74636381D01*
X136802858Y-74684000D01*
X136850477Y-74731619D01*
X136898096Y-74826857D01*
X136898096Y-74969714D01*
X136850477Y-75064952D01*
X136802858Y-75112571D01*
X136707620Y-75160190D01*
X136326667Y-75160190D01*
X137850477Y-75636381D02*
X137279048Y-75636381D01*
X137564762Y-75636381D02*
X137564762Y-74636381D01*
X137469524Y-74779238D01*
X137374286Y-74874476D01*
X137279048Y-74922095D01*
X138469524Y-74636381D02*
X138564763Y-74636381D01*
X138660001Y-74684000D01*
X138707620Y-74731619D01*
X138755239Y-74826857D01*
X138802858Y-75017333D01*
X138802858Y-75255429D01*
X138755239Y-75445905D01*
X138707620Y-75541143D01*
X138660001Y-75588762D01*
X138564763Y-75636381D01*
X138469524Y-75636381D01*
X138374286Y-75588762D01*
X138326667Y-75541143D01*
X138279048Y-75445905D01*
X138231429Y-75255429D01*
X138231429Y-75017333D01*
X138279048Y-74826857D01*
X138326667Y-74731619D01*
X138374286Y-74684000D01*
X138469524Y-74636381D01*
X127277905Y-58364381D02*
X127277905Y-57364381D01*
X127658858Y-57364381D01*
X127754096Y-57412000D01*
X127801715Y-57459619D01*
X127849334Y-57554857D01*
X127849334Y-57697714D01*
X127801715Y-57792952D01*
X127754096Y-57840571D01*
X127658858Y-57888190D01*
X127277905Y-57888190D01*
X128754096Y-57364381D02*
X128277905Y-57364381D01*
X128230286Y-57840571D01*
X128277905Y-57792952D01*
X128373143Y-57745333D01*
X128611239Y-57745333D01*
X128706477Y-57792952D01*
X128754096Y-57840571D01*
X128801715Y-57935810D01*
X128801715Y-58173905D01*
X128754096Y-58269143D01*
X128706477Y-58316762D01*
X128611239Y-58364381D01*
X128373143Y-58364381D01*
X128277905Y-58316762D01*
X128230286Y-58269143D01*
X131881667Y-74636381D02*
X131881667Y-75350667D01*
X131834047Y-75493524D01*
X131738809Y-75588762D01*
X131595952Y-75636381D01*
X131500714Y-75636381D01*
X132357857Y-75636381D02*
X132357857Y-74636381D01*
X132738810Y-74636381D01*
X132834048Y-74684000D01*
X132881667Y-74731619D01*
X132929286Y-74826857D01*
X132929286Y-74969714D01*
X132881667Y-75064952D01*
X132834048Y-75112571D01*
X132738810Y-75160190D01*
X132357857Y-75160190D01*
X133405476Y-75636381D02*
X133595952Y-75636381D01*
X133691191Y-75588762D01*
X133738810Y-75541143D01*
X133834048Y-75398286D01*
X133881667Y-75207810D01*
X133881667Y-74826857D01*
X133834048Y-74731619D01*
X133786429Y-74684000D01*
X133691191Y-74636381D01*
X133500714Y-74636381D01*
X133405476Y-74684000D01*
X133357857Y-74731619D01*
X133310238Y-74826857D01*
X133310238Y-75064952D01*
X133357857Y-75160190D01*
X133405476Y-75207810D01*
X133500714Y-75255429D01*
X133691191Y-75255429D01*
X133786429Y-75207810D01*
X133834048Y-75160190D01*
X133881667Y-75064952D01*
X127436667Y-74636381D02*
X127436667Y-75350667D01*
X127389047Y-75493524D01*
X127293809Y-75588762D01*
X127150952Y-75636381D01*
X127055714Y-75636381D01*
X127912857Y-75636381D02*
X127912857Y-74636381D01*
X128293810Y-74636381D01*
X128389048Y-74684000D01*
X128436667Y-74731619D01*
X128484286Y-74826857D01*
X128484286Y-74969714D01*
X128436667Y-75064952D01*
X128389048Y-75112571D01*
X128293810Y-75160190D01*
X127912857Y-75160190D01*
X129055714Y-75064952D02*
X128960476Y-75017333D01*
X128912857Y-74969714D01*
X128865238Y-74874476D01*
X128865238Y-74826857D01*
X128912857Y-74731619D01*
X128960476Y-74684000D01*
X129055714Y-74636381D01*
X129246191Y-74636381D01*
X129341429Y-74684000D01*
X129389048Y-74731619D01*
X129436667Y-74826857D01*
X129436667Y-74874476D01*
X129389048Y-74969714D01*
X129341429Y-75017333D01*
X129246191Y-75064952D01*
X129055714Y-75064952D01*
X128960476Y-75112571D01*
X128912857Y-75160190D01*
X128865238Y-75255429D01*
X128865238Y-75445905D01*
X128912857Y-75541143D01*
X128960476Y-75588762D01*
X129055714Y-75636381D01*
X129246191Y-75636381D01*
X129341429Y-75588762D01*
X129389048Y-75541143D01*
X129436667Y-75445905D01*
X129436667Y-75255429D01*
X129389048Y-75160190D01*
X129341429Y-75112571D01*
X129246191Y-75064952D01*
X122991667Y-74636381D02*
X122991667Y-75350667D01*
X122944047Y-75493524D01*
X122848809Y-75588762D01*
X122705952Y-75636381D01*
X122610714Y-75636381D01*
X123467857Y-75636381D02*
X123467857Y-74636381D01*
X123848810Y-74636381D01*
X123944048Y-74684000D01*
X123991667Y-74731619D01*
X124039286Y-74826857D01*
X124039286Y-74969714D01*
X123991667Y-75064952D01*
X123944048Y-75112571D01*
X123848810Y-75160190D01*
X123467857Y-75160190D01*
X124372619Y-74636381D02*
X125039286Y-74636381D01*
X124610714Y-75636381D01*
X118546667Y-74636381D02*
X118546667Y-75350667D01*
X118499047Y-75493524D01*
X118403809Y-75588762D01*
X118260952Y-75636381D01*
X118165714Y-75636381D01*
X119022857Y-75636381D02*
X119022857Y-74636381D01*
X119403810Y-74636381D01*
X119499048Y-74684000D01*
X119546667Y-74731619D01*
X119594286Y-74826857D01*
X119594286Y-74969714D01*
X119546667Y-75064952D01*
X119499048Y-75112571D01*
X119403810Y-75160190D01*
X119022857Y-75160190D01*
X120451429Y-74636381D02*
X120260952Y-74636381D01*
X120165714Y-74684000D01*
X120118095Y-74731619D01*
X120022857Y-74874476D01*
X119975238Y-75064952D01*
X119975238Y-75445905D01*
X120022857Y-75541143D01*
X120070476Y-75588762D01*
X120165714Y-75636381D01*
X120356191Y-75636381D01*
X120451429Y-75588762D01*
X120499048Y-75541143D01*
X120546667Y-75445905D01*
X120546667Y-75207810D01*
X120499048Y-75112571D01*
X120451429Y-75064952D01*
X120356191Y-75017333D01*
X120165714Y-75017333D01*
X120070476Y-75064952D01*
X120022857Y-75112571D01*
X119975238Y-75207810D01*
X114101667Y-74636381D02*
X114101667Y-75350667D01*
X114054047Y-75493524D01*
X113958809Y-75588762D01*
X113815952Y-75636381D01*
X113720714Y-75636381D01*
X114577857Y-75636381D02*
X114577857Y-74636381D01*
X114958810Y-74636381D01*
X115054048Y-74684000D01*
X115101667Y-74731619D01*
X115149286Y-74826857D01*
X115149286Y-74969714D01*
X115101667Y-75064952D01*
X115054048Y-75112571D01*
X114958810Y-75160190D01*
X114577857Y-75160190D01*
X116054048Y-74636381D02*
X115577857Y-74636381D01*
X115530238Y-75112571D01*
X115577857Y-75064952D01*
X115673095Y-75017333D01*
X115911191Y-75017333D01*
X116006429Y-75064952D01*
X116054048Y-75112571D01*
X116101667Y-75207810D01*
X116101667Y-75445905D01*
X116054048Y-75541143D01*
X116006429Y-75588762D01*
X115911191Y-75636381D01*
X115673095Y-75636381D01*
X115577857Y-75588762D01*
X115530238Y-75541143D01*
X109656667Y-74636381D02*
X109656667Y-75350667D01*
X109609047Y-75493524D01*
X109513809Y-75588762D01*
X109370952Y-75636381D01*
X109275714Y-75636381D01*
X110132857Y-75636381D02*
X110132857Y-74636381D01*
X110513810Y-74636381D01*
X110609048Y-74684000D01*
X110656667Y-74731619D01*
X110704286Y-74826857D01*
X110704286Y-74969714D01*
X110656667Y-75064952D01*
X110609048Y-75112571D01*
X110513810Y-75160190D01*
X110132857Y-75160190D01*
X111561429Y-74969714D02*
X111561429Y-75636381D01*
X111323333Y-74588762D02*
X111085238Y-75303048D01*
X111704286Y-75303048D01*
X105211667Y-74636381D02*
X105211667Y-75350667D01*
X105164047Y-75493524D01*
X105068809Y-75588762D01*
X104925952Y-75636381D01*
X104830714Y-75636381D01*
X105687857Y-75636381D02*
X105687857Y-74636381D01*
X106068810Y-74636381D01*
X106164048Y-74684000D01*
X106211667Y-74731619D01*
X106259286Y-74826857D01*
X106259286Y-74969714D01*
X106211667Y-75064952D01*
X106164048Y-75112571D01*
X106068810Y-75160190D01*
X105687857Y-75160190D01*
X106592619Y-74636381D02*
X107211667Y-74636381D01*
X106878333Y-75017333D01*
X107021191Y-75017333D01*
X107116429Y-75064952D01*
X107164048Y-75112571D01*
X107211667Y-75207810D01*
X107211667Y-75445905D01*
X107164048Y-75541143D01*
X107116429Y-75588762D01*
X107021191Y-75636381D01*
X106735476Y-75636381D01*
X106640238Y-75588762D01*
X106592619Y-75541143D01*
X100766667Y-74636381D02*
X100766667Y-75350667D01*
X100719047Y-75493524D01*
X100623809Y-75588762D01*
X100480952Y-75636381D01*
X100385714Y-75636381D01*
X101242857Y-75636381D02*
X101242857Y-74636381D01*
X101623810Y-74636381D01*
X101719048Y-74684000D01*
X101766667Y-74731619D01*
X101814286Y-74826857D01*
X101814286Y-74969714D01*
X101766667Y-75064952D01*
X101719048Y-75112571D01*
X101623810Y-75160190D01*
X101242857Y-75160190D01*
X102195238Y-74731619D02*
X102242857Y-74684000D01*
X102338095Y-74636381D01*
X102576191Y-74636381D01*
X102671429Y-74684000D01*
X102719048Y-74731619D01*
X102766667Y-74826857D01*
X102766667Y-74922095D01*
X102719048Y-75064952D01*
X102147619Y-75636381D01*
X102766667Y-75636381D01*
X116078095Y-85617381D02*
X116078095Y-86426905D01*
X116125714Y-86522143D01*
X116173333Y-86569762D01*
X116268571Y-86617381D01*
X116459048Y-86617381D01*
X116554286Y-86569762D01*
X116601905Y-86522143D01*
X116649524Y-86426905D01*
X116649524Y-85617381D01*
X117649524Y-86617381D02*
X117078095Y-86617381D01*
X117363809Y-86617381D02*
X117363809Y-85617381D01*
X117268571Y-85760238D01*
X117173333Y-85855476D01*
X117078095Y-85903095D01*
X134821190Y-84831191D02*
X135297381Y-84831191D01*
X134297381Y-85164524D02*
X134821190Y-84831191D01*
X134297381Y-84497857D01*
X135297381Y-83640714D02*
X135297381Y-84212143D01*
X135297381Y-83926429D02*
X134297381Y-83926429D01*
X134440238Y-84021667D01*
X134535476Y-84116905D01*
X134583095Y-84212143D01*
X100957143Y-80057381D02*
X100623809Y-79581190D01*
X100385714Y-80057381D02*
X100385714Y-79057381D01*
X100766667Y-79057381D01*
X100861905Y-79105000D01*
X100909524Y-79152619D01*
X100957143Y-79247857D01*
X100957143Y-79390714D01*
X100909524Y-79485952D01*
X100861905Y-79533571D01*
X100766667Y-79581190D01*
X100385714Y-79581190D01*
X101338095Y-79152619D02*
X101385714Y-79105000D01*
X101480952Y-79057381D01*
X101719048Y-79057381D01*
X101814286Y-79105000D01*
X101861905Y-79152619D01*
X101909524Y-79247857D01*
X101909524Y-79343095D01*
X101861905Y-79485952D01*
X101290476Y-80057381D01*
X101909524Y-80057381D01*
X102528571Y-79057381D02*
X102623810Y-79057381D01*
X102719048Y-79105000D01*
X102766667Y-79152619D01*
X102814286Y-79247857D01*
X102861905Y-79438333D01*
X102861905Y-79676429D01*
X102814286Y-79866905D01*
X102766667Y-79962143D01*
X102719048Y-80009762D01*
X102623810Y-80057381D01*
X102528571Y-80057381D01*
X102433333Y-80009762D01*
X102385714Y-79962143D01*
X102338095Y-79866905D01*
X102290476Y-79676429D01*
X102290476Y-79438333D01*
X102338095Y-79247857D01*
X102385714Y-79152619D01*
X102433333Y-79105000D01*
X102528571Y-79057381D01*
X112926905Y-124912381D02*
X112926905Y-123912381D01*
X113307858Y-123912381D01*
X113403096Y-123960000D01*
X113450715Y-124007619D01*
X113498334Y-124102857D01*
X113498334Y-124245714D01*
X113450715Y-124340952D01*
X113403096Y-124388571D01*
X113307858Y-124436190D01*
X112926905Y-124436190D01*
X114450715Y-124912381D02*
X113879286Y-124912381D01*
X114165000Y-124912381D02*
X114165000Y-123912381D01*
X114069762Y-124055238D01*
X113974524Y-124150476D01*
X113879286Y-124198095D01*
X145311905Y-124912381D02*
X145311905Y-123912381D01*
X145692858Y-123912381D01*
X145788096Y-123960000D01*
X145835715Y-124007619D01*
X145883334Y-124102857D01*
X145883334Y-124245714D01*
X145835715Y-124340952D01*
X145788096Y-124388571D01*
X145692858Y-124436190D01*
X145311905Y-124436190D01*
X146264286Y-124007619D02*
X146311905Y-123960000D01*
X146407143Y-123912381D01*
X146645239Y-123912381D01*
X146740477Y-123960000D01*
X146788096Y-124007619D01*
X146835715Y-124102857D01*
X146835715Y-124198095D01*
X146788096Y-124340952D01*
X146216667Y-124912381D01*
X146835715Y-124912381D01*
X158567381Y-104243095D02*
X157567381Y-104243095D01*
X157567381Y-103862142D01*
X157615000Y-103766904D01*
X157662619Y-103719285D01*
X157757857Y-103671666D01*
X157900714Y-103671666D01*
X157995952Y-103719285D01*
X158043571Y-103766904D01*
X158091190Y-103862142D01*
X158091190Y-104243095D01*
X157567381Y-103338333D02*
X157567381Y-102719285D01*
X157948333Y-103052619D01*
X157948333Y-102909761D01*
X157995952Y-102814523D01*
X158043571Y-102766904D01*
X158138810Y-102719285D01*
X158376905Y-102719285D01*
X158472143Y-102766904D01*
X158519762Y-102814523D01*
X158567381Y-102909761D01*
X158567381Y-103195476D01*
X158519762Y-103290714D01*
X158472143Y-103338333D01*
X101504762Y-69472619D02*
X101409524Y-69425000D01*
X101314286Y-69329762D01*
X101171429Y-69186905D01*
X101076190Y-69139286D01*
X100980952Y-69139286D01*
X101028571Y-69377381D02*
X100933333Y-69329762D01*
X100838095Y-69234524D01*
X100790476Y-69044048D01*
X100790476Y-68710714D01*
X100838095Y-68520238D01*
X100933333Y-68425000D01*
X101028571Y-68377381D01*
X101219048Y-68377381D01*
X101314286Y-68425000D01*
X101409524Y-68520238D01*
X101457143Y-68710714D01*
X101457143Y-69044048D01*
X101409524Y-69234524D01*
X101314286Y-69329762D01*
X101219048Y-69377381D01*
X101028571Y-69377381D01*
X102409524Y-69377381D02*
X101838095Y-69377381D01*
X102123809Y-69377381D02*
X102123809Y-68377381D01*
X102028571Y-68520238D01*
X101933333Y-68615476D01*
X101838095Y-68663095D01*
X105949762Y-69472619D02*
X105854524Y-69425000D01*
X105759286Y-69329762D01*
X105616429Y-69186905D01*
X105521190Y-69139286D01*
X105425952Y-69139286D01*
X105473571Y-69377381D02*
X105378333Y-69329762D01*
X105283095Y-69234524D01*
X105235476Y-69044048D01*
X105235476Y-68710714D01*
X105283095Y-68520238D01*
X105378333Y-68425000D01*
X105473571Y-68377381D01*
X105664048Y-68377381D01*
X105759286Y-68425000D01*
X105854524Y-68520238D01*
X105902143Y-68710714D01*
X105902143Y-69044048D01*
X105854524Y-69234524D01*
X105759286Y-69329762D01*
X105664048Y-69377381D01*
X105473571Y-69377381D01*
X106283095Y-68472619D02*
X106330714Y-68425000D01*
X106425952Y-68377381D01*
X106664048Y-68377381D01*
X106759286Y-68425000D01*
X106806905Y-68472619D01*
X106854524Y-68567857D01*
X106854524Y-68663095D01*
X106806905Y-68805952D01*
X106235476Y-69377381D01*
X106854524Y-69377381D01*
X110394762Y-69472619D02*
X110299524Y-69425000D01*
X110204286Y-69329762D01*
X110061429Y-69186905D01*
X109966190Y-69139286D01*
X109870952Y-69139286D01*
X109918571Y-69377381D02*
X109823333Y-69329762D01*
X109728095Y-69234524D01*
X109680476Y-69044048D01*
X109680476Y-68710714D01*
X109728095Y-68520238D01*
X109823333Y-68425000D01*
X109918571Y-68377381D01*
X110109048Y-68377381D01*
X110204286Y-68425000D01*
X110299524Y-68520238D01*
X110347143Y-68710714D01*
X110347143Y-69044048D01*
X110299524Y-69234524D01*
X110204286Y-69329762D01*
X110109048Y-69377381D01*
X109918571Y-69377381D01*
X110680476Y-68377381D02*
X111299524Y-68377381D01*
X110966190Y-68758333D01*
X111109048Y-68758333D01*
X111204286Y-68805952D01*
X111251905Y-68853571D01*
X111299524Y-68948810D01*
X111299524Y-69186905D01*
X111251905Y-69282143D01*
X111204286Y-69329762D01*
X111109048Y-69377381D01*
X110823333Y-69377381D01*
X110728095Y-69329762D01*
X110680476Y-69282143D01*
X114839762Y-69472619D02*
X114744524Y-69425000D01*
X114649286Y-69329762D01*
X114506429Y-69186905D01*
X114411190Y-69139286D01*
X114315952Y-69139286D01*
X114363571Y-69377381D02*
X114268333Y-69329762D01*
X114173095Y-69234524D01*
X114125476Y-69044048D01*
X114125476Y-68710714D01*
X114173095Y-68520238D01*
X114268333Y-68425000D01*
X114363571Y-68377381D01*
X114554048Y-68377381D01*
X114649286Y-68425000D01*
X114744524Y-68520238D01*
X114792143Y-68710714D01*
X114792143Y-69044048D01*
X114744524Y-69234524D01*
X114649286Y-69329762D01*
X114554048Y-69377381D01*
X114363571Y-69377381D01*
X115649286Y-68710714D02*
X115649286Y-69377381D01*
X115411190Y-68329762D02*
X115173095Y-69044048D01*
X115792143Y-69044048D01*
X119284762Y-69472619D02*
X119189524Y-69425000D01*
X119094286Y-69329762D01*
X118951429Y-69186905D01*
X118856190Y-69139286D01*
X118760952Y-69139286D01*
X118808571Y-69377381D02*
X118713333Y-69329762D01*
X118618095Y-69234524D01*
X118570476Y-69044048D01*
X118570476Y-68710714D01*
X118618095Y-68520238D01*
X118713333Y-68425000D01*
X118808571Y-68377381D01*
X118999048Y-68377381D01*
X119094286Y-68425000D01*
X119189524Y-68520238D01*
X119237143Y-68710714D01*
X119237143Y-69044048D01*
X119189524Y-69234524D01*
X119094286Y-69329762D01*
X118999048Y-69377381D01*
X118808571Y-69377381D01*
X120141905Y-68377381D02*
X119665714Y-68377381D01*
X119618095Y-68853571D01*
X119665714Y-68805952D01*
X119760952Y-68758333D01*
X119999048Y-68758333D01*
X120094286Y-68805952D01*
X120141905Y-68853571D01*
X120189524Y-68948810D01*
X120189524Y-69186905D01*
X120141905Y-69282143D01*
X120094286Y-69329762D01*
X119999048Y-69377381D01*
X119760952Y-69377381D01*
X119665714Y-69329762D01*
X119618095Y-69282143D01*
X102068334Y-114982381D02*
X101735000Y-114506190D01*
X101496905Y-114982381D02*
X101496905Y-113982381D01*
X101877858Y-113982381D01*
X101973096Y-114030000D01*
X102020715Y-114077619D01*
X102068334Y-114172857D01*
X102068334Y-114315714D01*
X102020715Y-114410952D01*
X101973096Y-114458571D01*
X101877858Y-114506190D01*
X101496905Y-114506190D01*
X103020715Y-114982381D02*
X102449286Y-114982381D01*
X102735000Y-114982381D02*
X102735000Y-113982381D01*
X102639762Y-114125238D01*
X102544524Y-114220476D01*
X102449286Y-114268095D01*
X108418334Y-114982381D02*
X108085000Y-114506190D01*
X107846905Y-114982381D02*
X107846905Y-113982381D01*
X108227858Y-113982381D01*
X108323096Y-114030000D01*
X108370715Y-114077619D01*
X108418334Y-114172857D01*
X108418334Y-114315714D01*
X108370715Y-114410952D01*
X108323096Y-114458571D01*
X108227858Y-114506190D01*
X107846905Y-114506190D01*
X108751667Y-113982381D02*
X109370715Y-113982381D01*
X109037381Y-114363333D01*
X109180239Y-114363333D01*
X109275477Y-114410952D01*
X109323096Y-114458571D01*
X109370715Y-114553810D01*
X109370715Y-114791905D01*
X109323096Y-114887143D01*
X109275477Y-114934762D01*
X109180239Y-114982381D01*
X108894524Y-114982381D01*
X108799286Y-114934762D01*
X108751667Y-114887143D01*
X114768334Y-114982381D02*
X114435000Y-114506190D01*
X114196905Y-114982381D02*
X114196905Y-113982381D01*
X114577858Y-113982381D01*
X114673096Y-114030000D01*
X114720715Y-114077619D01*
X114768334Y-114172857D01*
X114768334Y-114315714D01*
X114720715Y-114410952D01*
X114673096Y-114458571D01*
X114577858Y-114506190D01*
X114196905Y-114506190D01*
X115673096Y-113982381D02*
X115196905Y-113982381D01*
X115149286Y-114458571D01*
X115196905Y-114410952D01*
X115292143Y-114363333D01*
X115530239Y-114363333D01*
X115625477Y-114410952D01*
X115673096Y-114458571D01*
X115720715Y-114553810D01*
X115720715Y-114791905D01*
X115673096Y-114887143D01*
X115625477Y-114934762D01*
X115530239Y-114982381D01*
X115292143Y-114982381D01*
X115196905Y-114934762D01*
X115149286Y-114887143D01*
X127468334Y-114982381D02*
X127135000Y-114506190D01*
X126896905Y-114982381D02*
X126896905Y-113982381D01*
X127277858Y-113982381D01*
X127373096Y-114030000D01*
X127420715Y-114077619D01*
X127468334Y-114172857D01*
X127468334Y-114315714D01*
X127420715Y-114410952D01*
X127373096Y-114458571D01*
X127277858Y-114506190D01*
X126896905Y-114506190D01*
X127801667Y-113982381D02*
X128468334Y-113982381D01*
X128039762Y-114982381D01*
X133818334Y-114982381D02*
X133485000Y-114506190D01*
X133246905Y-114982381D02*
X133246905Y-113982381D01*
X133627858Y-113982381D01*
X133723096Y-114030000D01*
X133770715Y-114077619D01*
X133818334Y-114172857D01*
X133818334Y-114315714D01*
X133770715Y-114410952D01*
X133723096Y-114458571D01*
X133627858Y-114506190D01*
X133246905Y-114506190D01*
X134294524Y-114982381D02*
X134485000Y-114982381D01*
X134580239Y-114934762D01*
X134627858Y-114887143D01*
X134723096Y-114744286D01*
X134770715Y-114553810D01*
X134770715Y-114172857D01*
X134723096Y-114077619D01*
X134675477Y-114030000D01*
X134580239Y-113982381D01*
X134389762Y-113982381D01*
X134294524Y-114030000D01*
X134246905Y-114077619D01*
X134199286Y-114172857D01*
X134199286Y-114410952D01*
X134246905Y-114506190D01*
X134294524Y-114553810D01*
X134389762Y-114601429D01*
X134580239Y-114601429D01*
X134675477Y-114553810D01*
X134723096Y-114506190D01*
X134770715Y-114410952D01*
X139692143Y-114982381D02*
X139358809Y-114506190D01*
X139120714Y-114982381D02*
X139120714Y-113982381D01*
X139501667Y-113982381D01*
X139596905Y-114030000D01*
X139644524Y-114077619D01*
X139692143Y-114172857D01*
X139692143Y-114315714D01*
X139644524Y-114410952D01*
X139596905Y-114458571D01*
X139501667Y-114506190D01*
X139120714Y-114506190D01*
X140644524Y-114982381D02*
X140073095Y-114982381D01*
X140358809Y-114982381D02*
X140358809Y-113982381D01*
X140263571Y-114125238D01*
X140168333Y-114220476D01*
X140073095Y-114268095D01*
X141596905Y-114982381D02*
X141025476Y-114982381D01*
X141311190Y-114982381D02*
X141311190Y-113982381D01*
X141215952Y-114125238D01*
X141120714Y-114220476D01*
X141025476Y-114268095D01*
X102068334Y-111807381D02*
X101735000Y-111331190D01*
X101496905Y-111807381D02*
X101496905Y-110807381D01*
X101877858Y-110807381D01*
X101973096Y-110855000D01*
X102020715Y-110902619D01*
X102068334Y-110997857D01*
X102068334Y-111140714D01*
X102020715Y-111235952D01*
X101973096Y-111283571D01*
X101877858Y-111331190D01*
X101496905Y-111331190D01*
X102449286Y-110902619D02*
X102496905Y-110855000D01*
X102592143Y-110807381D01*
X102830239Y-110807381D01*
X102925477Y-110855000D01*
X102973096Y-110902619D01*
X103020715Y-110997857D01*
X103020715Y-111093095D01*
X102973096Y-111235952D01*
X102401667Y-111807381D01*
X103020715Y-111807381D01*
X108418334Y-111807381D02*
X108085000Y-111331190D01*
X107846905Y-111807381D02*
X107846905Y-110807381D01*
X108227858Y-110807381D01*
X108323096Y-110855000D01*
X108370715Y-110902619D01*
X108418334Y-110997857D01*
X108418334Y-111140714D01*
X108370715Y-111235952D01*
X108323096Y-111283571D01*
X108227858Y-111331190D01*
X107846905Y-111331190D01*
X109275477Y-111140714D02*
X109275477Y-111807381D01*
X109037381Y-110759762D02*
X108799286Y-111474048D01*
X109418334Y-111474048D01*
X114768334Y-111807381D02*
X114435000Y-111331190D01*
X114196905Y-111807381D02*
X114196905Y-110807381D01*
X114577858Y-110807381D01*
X114673096Y-110855000D01*
X114720715Y-110902619D01*
X114768334Y-110997857D01*
X114768334Y-111140714D01*
X114720715Y-111235952D01*
X114673096Y-111283571D01*
X114577858Y-111331190D01*
X114196905Y-111331190D01*
X115625477Y-110807381D02*
X115435000Y-110807381D01*
X115339762Y-110855000D01*
X115292143Y-110902619D01*
X115196905Y-111045476D01*
X115149286Y-111235952D01*
X115149286Y-111616905D01*
X115196905Y-111712143D01*
X115244524Y-111759762D01*
X115339762Y-111807381D01*
X115530239Y-111807381D01*
X115625477Y-111759762D01*
X115673096Y-111712143D01*
X115720715Y-111616905D01*
X115720715Y-111378810D01*
X115673096Y-111283571D01*
X115625477Y-111235952D01*
X115530239Y-111188333D01*
X115339762Y-111188333D01*
X115244524Y-111235952D01*
X115196905Y-111283571D01*
X115149286Y-111378810D01*
X127468334Y-111807381D02*
X127135000Y-111331190D01*
X126896905Y-111807381D02*
X126896905Y-110807381D01*
X127277858Y-110807381D01*
X127373096Y-110855000D01*
X127420715Y-110902619D01*
X127468334Y-110997857D01*
X127468334Y-111140714D01*
X127420715Y-111235952D01*
X127373096Y-111283571D01*
X127277858Y-111331190D01*
X126896905Y-111331190D01*
X128039762Y-111235952D02*
X127944524Y-111188333D01*
X127896905Y-111140714D01*
X127849286Y-111045476D01*
X127849286Y-110997857D01*
X127896905Y-110902619D01*
X127944524Y-110855000D01*
X128039762Y-110807381D01*
X128230239Y-110807381D01*
X128325477Y-110855000D01*
X128373096Y-110902619D01*
X128420715Y-110997857D01*
X128420715Y-111045476D01*
X128373096Y-111140714D01*
X128325477Y-111188333D01*
X128230239Y-111235952D01*
X128039762Y-111235952D01*
X127944524Y-111283571D01*
X127896905Y-111331190D01*
X127849286Y-111426429D01*
X127849286Y-111616905D01*
X127896905Y-111712143D01*
X127944524Y-111759762D01*
X128039762Y-111807381D01*
X128230239Y-111807381D01*
X128325477Y-111759762D01*
X128373096Y-111712143D01*
X128420715Y-111616905D01*
X128420715Y-111426429D01*
X128373096Y-111331190D01*
X128325477Y-111283571D01*
X128230239Y-111235952D01*
X133342143Y-111807381D02*
X133008809Y-111331190D01*
X132770714Y-111807381D02*
X132770714Y-110807381D01*
X133151667Y-110807381D01*
X133246905Y-110855000D01*
X133294524Y-110902619D01*
X133342143Y-110997857D01*
X133342143Y-111140714D01*
X133294524Y-111235952D01*
X133246905Y-111283571D01*
X133151667Y-111331190D01*
X132770714Y-111331190D01*
X134294524Y-111807381D02*
X133723095Y-111807381D01*
X134008809Y-111807381D02*
X134008809Y-110807381D01*
X133913571Y-110950238D01*
X133818333Y-111045476D01*
X133723095Y-111093095D01*
X134913571Y-110807381D02*
X135008810Y-110807381D01*
X135104048Y-110855000D01*
X135151667Y-110902619D01*
X135199286Y-110997857D01*
X135246905Y-111188333D01*
X135246905Y-111426429D01*
X135199286Y-111616905D01*
X135151667Y-111712143D01*
X135104048Y-111759762D01*
X135008810Y-111807381D01*
X134913571Y-111807381D01*
X134818333Y-111759762D01*
X134770714Y-111712143D01*
X134723095Y-111616905D01*
X134675476Y-111426429D01*
X134675476Y-111188333D01*
X134723095Y-110997857D01*
X134770714Y-110902619D01*
X134818333Y-110855000D01*
X134913571Y-110807381D01*
X139692143Y-111807381D02*
X139358809Y-111331190D01*
X139120714Y-111807381D02*
X139120714Y-110807381D01*
X139501667Y-110807381D01*
X139596905Y-110855000D01*
X139644524Y-110902619D01*
X139692143Y-110997857D01*
X139692143Y-111140714D01*
X139644524Y-111235952D01*
X139596905Y-111283571D01*
X139501667Y-111331190D01*
X139120714Y-111331190D01*
X140644524Y-111807381D02*
X140073095Y-111807381D01*
X140358809Y-111807381D02*
X140358809Y-110807381D01*
X140263571Y-110950238D01*
X140168333Y-111045476D01*
X140073095Y-111093095D01*
X141025476Y-110902619D02*
X141073095Y-110855000D01*
X141168333Y-110807381D01*
X141406429Y-110807381D01*
X141501667Y-110855000D01*
X141549286Y-110902619D01*
X141596905Y-110997857D01*
X141596905Y-111093095D01*
X141549286Y-111235952D01*
X140977857Y-111807381D01*
X141596905Y-111807381D01*
X107942143Y-104187381D02*
X107608809Y-103711190D01*
X107370714Y-104187381D02*
X107370714Y-103187381D01*
X107751667Y-103187381D01*
X107846905Y-103235000D01*
X107894524Y-103282619D01*
X107942143Y-103377857D01*
X107942143Y-103520714D01*
X107894524Y-103615952D01*
X107846905Y-103663571D01*
X107751667Y-103711190D01*
X107370714Y-103711190D01*
X108894524Y-104187381D02*
X108323095Y-104187381D01*
X108608809Y-104187381D02*
X108608809Y-103187381D01*
X108513571Y-103330238D01*
X108418333Y-103425476D01*
X108323095Y-103473095D01*
X109799286Y-103187381D02*
X109323095Y-103187381D01*
X109275476Y-103663571D01*
X109323095Y-103615952D01*
X109418333Y-103568333D01*
X109656429Y-103568333D01*
X109751667Y-103615952D01*
X109799286Y-103663571D01*
X109846905Y-103758810D01*
X109846905Y-103996905D01*
X109799286Y-104092143D01*
X109751667Y-104139762D01*
X109656429Y-104187381D01*
X109418333Y-104187381D01*
X109323095Y-104139762D01*
X109275476Y-104092143D01*
X114292143Y-104187381D02*
X113958809Y-103711190D01*
X113720714Y-104187381D02*
X113720714Y-103187381D01*
X114101667Y-103187381D01*
X114196905Y-103235000D01*
X114244524Y-103282619D01*
X114292143Y-103377857D01*
X114292143Y-103520714D01*
X114244524Y-103615952D01*
X114196905Y-103663571D01*
X114101667Y-103711190D01*
X113720714Y-103711190D01*
X115244524Y-104187381D02*
X114673095Y-104187381D01*
X114958809Y-104187381D02*
X114958809Y-103187381D01*
X114863571Y-103330238D01*
X114768333Y-103425476D01*
X114673095Y-103473095D01*
X116101667Y-103187381D02*
X115911190Y-103187381D01*
X115815952Y-103235000D01*
X115768333Y-103282619D01*
X115673095Y-103425476D01*
X115625476Y-103615952D01*
X115625476Y-103996905D01*
X115673095Y-104092143D01*
X115720714Y-104139762D01*
X115815952Y-104187381D01*
X116006429Y-104187381D01*
X116101667Y-104139762D01*
X116149286Y-104092143D01*
X116196905Y-103996905D01*
X116196905Y-103758810D01*
X116149286Y-103663571D01*
X116101667Y-103615952D01*
X116006429Y-103568333D01*
X115815952Y-103568333D01*
X115720714Y-103615952D01*
X115673095Y-103663571D01*
X115625476Y-103758810D01*
X120642143Y-104187381D02*
X120308809Y-103711190D01*
X120070714Y-104187381D02*
X120070714Y-103187381D01*
X120451667Y-103187381D01*
X120546905Y-103235000D01*
X120594524Y-103282619D01*
X120642143Y-103377857D01*
X120642143Y-103520714D01*
X120594524Y-103615952D01*
X120546905Y-103663571D01*
X120451667Y-103711190D01*
X120070714Y-103711190D01*
X121594524Y-104187381D02*
X121023095Y-104187381D01*
X121308809Y-104187381D02*
X121308809Y-103187381D01*
X121213571Y-103330238D01*
X121118333Y-103425476D01*
X121023095Y-103473095D01*
X121927857Y-103187381D02*
X122594524Y-103187381D01*
X122165952Y-104187381D01*
X133342143Y-104187381D02*
X133008809Y-103711190D01*
X132770714Y-104187381D02*
X132770714Y-103187381D01*
X133151667Y-103187381D01*
X133246905Y-103235000D01*
X133294524Y-103282619D01*
X133342143Y-103377857D01*
X133342143Y-103520714D01*
X133294524Y-103615952D01*
X133246905Y-103663571D01*
X133151667Y-103711190D01*
X132770714Y-103711190D01*
X134294524Y-104187381D02*
X133723095Y-104187381D01*
X134008809Y-104187381D02*
X134008809Y-103187381D01*
X133913571Y-103330238D01*
X133818333Y-103425476D01*
X133723095Y-103473095D01*
X134865952Y-103615952D02*
X134770714Y-103568333D01*
X134723095Y-103520714D01*
X134675476Y-103425476D01*
X134675476Y-103377857D01*
X134723095Y-103282619D01*
X134770714Y-103235000D01*
X134865952Y-103187381D01*
X135056429Y-103187381D01*
X135151667Y-103235000D01*
X135199286Y-103282619D01*
X135246905Y-103377857D01*
X135246905Y-103425476D01*
X135199286Y-103520714D01*
X135151667Y-103568333D01*
X135056429Y-103615952D01*
X134865952Y-103615952D01*
X134770714Y-103663571D01*
X134723095Y-103711190D01*
X134675476Y-103806429D01*
X134675476Y-103996905D01*
X134723095Y-104092143D01*
X134770714Y-104139762D01*
X134865952Y-104187381D01*
X135056429Y-104187381D01*
X135151667Y-104139762D01*
X135199286Y-104092143D01*
X135246905Y-103996905D01*
X135246905Y-103806429D01*
X135199286Y-103711190D01*
X135151667Y-103663571D01*
X135056429Y-103615952D01*
X126992143Y-104187381D02*
X126658809Y-103711190D01*
X126420714Y-104187381D02*
X126420714Y-103187381D01*
X126801667Y-103187381D01*
X126896905Y-103235000D01*
X126944524Y-103282619D01*
X126992143Y-103377857D01*
X126992143Y-103520714D01*
X126944524Y-103615952D01*
X126896905Y-103663571D01*
X126801667Y-103711190D01*
X126420714Y-103711190D01*
X127944524Y-104187381D02*
X127373095Y-104187381D01*
X127658809Y-104187381D02*
X127658809Y-103187381D01*
X127563571Y-103330238D01*
X127468333Y-103425476D01*
X127373095Y-103473095D01*
X128420714Y-104187381D02*
X128611190Y-104187381D01*
X128706429Y-104139762D01*
X128754048Y-104092143D01*
X128849286Y-103949286D01*
X128896905Y-103758810D01*
X128896905Y-103377857D01*
X128849286Y-103282619D01*
X128801667Y-103235000D01*
X128706429Y-103187381D01*
X128515952Y-103187381D01*
X128420714Y-103235000D01*
X128373095Y-103282619D01*
X128325476Y-103377857D01*
X128325476Y-103615952D01*
X128373095Y-103711190D01*
X128420714Y-103758810D01*
X128515952Y-103806429D01*
X128706429Y-103806429D01*
X128801667Y-103758810D01*
X128849286Y-103711190D01*
X128896905Y-103615952D01*
X100957143Y-64817381D02*
X100623809Y-64341190D01*
X100385714Y-64817381D02*
X100385714Y-63817381D01*
X100766667Y-63817381D01*
X100861905Y-63865000D01*
X100909524Y-63912619D01*
X100957143Y-64007857D01*
X100957143Y-64150714D01*
X100909524Y-64245952D01*
X100861905Y-64293571D01*
X100766667Y-64341190D01*
X100385714Y-64341190D01*
X101338095Y-63912619D02*
X101385714Y-63865000D01*
X101480952Y-63817381D01*
X101719048Y-63817381D01*
X101814286Y-63865000D01*
X101861905Y-63912619D01*
X101909524Y-64007857D01*
X101909524Y-64103095D01*
X101861905Y-64245952D01*
X101290476Y-64817381D01*
X101909524Y-64817381D01*
X102861905Y-64817381D02*
X102290476Y-64817381D01*
X102576190Y-64817381D02*
X102576190Y-63817381D01*
X102480952Y-63960238D01*
X102385714Y-64055476D01*
X102290476Y-64103095D01*
X105402143Y-64817381D02*
X105068809Y-64341190D01*
X104830714Y-64817381D02*
X104830714Y-63817381D01*
X105211667Y-63817381D01*
X105306905Y-63865000D01*
X105354524Y-63912619D01*
X105402143Y-64007857D01*
X105402143Y-64150714D01*
X105354524Y-64245952D01*
X105306905Y-64293571D01*
X105211667Y-64341190D01*
X104830714Y-64341190D01*
X105783095Y-63912619D02*
X105830714Y-63865000D01*
X105925952Y-63817381D01*
X106164048Y-63817381D01*
X106259286Y-63865000D01*
X106306905Y-63912619D01*
X106354524Y-64007857D01*
X106354524Y-64103095D01*
X106306905Y-64245952D01*
X105735476Y-64817381D01*
X106354524Y-64817381D01*
X106687857Y-63817381D02*
X107306905Y-63817381D01*
X106973571Y-64198333D01*
X107116429Y-64198333D01*
X107211667Y-64245952D01*
X107259286Y-64293571D01*
X107306905Y-64388810D01*
X107306905Y-64626905D01*
X107259286Y-64722143D01*
X107211667Y-64769762D01*
X107116429Y-64817381D01*
X106830714Y-64817381D01*
X106735476Y-64769762D01*
X106687857Y-64722143D01*
X109847143Y-64817381D02*
X109513809Y-64341190D01*
X109275714Y-64817381D02*
X109275714Y-63817381D01*
X109656667Y-63817381D01*
X109751905Y-63865000D01*
X109799524Y-63912619D01*
X109847143Y-64007857D01*
X109847143Y-64150714D01*
X109799524Y-64245952D01*
X109751905Y-64293571D01*
X109656667Y-64341190D01*
X109275714Y-64341190D01*
X110228095Y-63912619D02*
X110275714Y-63865000D01*
X110370952Y-63817381D01*
X110609048Y-63817381D01*
X110704286Y-63865000D01*
X110751905Y-63912619D01*
X110799524Y-64007857D01*
X110799524Y-64103095D01*
X110751905Y-64245952D01*
X110180476Y-64817381D01*
X110799524Y-64817381D01*
X111704286Y-63817381D02*
X111228095Y-63817381D01*
X111180476Y-64293571D01*
X111228095Y-64245952D01*
X111323333Y-64198333D01*
X111561429Y-64198333D01*
X111656667Y-64245952D01*
X111704286Y-64293571D01*
X111751905Y-64388810D01*
X111751905Y-64626905D01*
X111704286Y-64722143D01*
X111656667Y-64769762D01*
X111561429Y-64817381D01*
X111323333Y-64817381D01*
X111228095Y-64769762D01*
X111180476Y-64722143D01*
X114292143Y-64817381D02*
X113958809Y-64341190D01*
X113720714Y-64817381D02*
X113720714Y-63817381D01*
X114101667Y-63817381D01*
X114196905Y-63865000D01*
X114244524Y-63912619D01*
X114292143Y-64007857D01*
X114292143Y-64150714D01*
X114244524Y-64245952D01*
X114196905Y-64293571D01*
X114101667Y-64341190D01*
X113720714Y-64341190D01*
X114673095Y-63912619D02*
X114720714Y-63865000D01*
X114815952Y-63817381D01*
X115054048Y-63817381D01*
X115149286Y-63865000D01*
X115196905Y-63912619D01*
X115244524Y-64007857D01*
X115244524Y-64103095D01*
X115196905Y-64245952D01*
X114625476Y-64817381D01*
X115244524Y-64817381D01*
X115577857Y-63817381D02*
X116244524Y-63817381D01*
X115815952Y-64817381D01*
X118737143Y-64817381D02*
X118403809Y-64341190D01*
X118165714Y-64817381D02*
X118165714Y-63817381D01*
X118546667Y-63817381D01*
X118641905Y-63865000D01*
X118689524Y-63912619D01*
X118737143Y-64007857D01*
X118737143Y-64150714D01*
X118689524Y-64245952D01*
X118641905Y-64293571D01*
X118546667Y-64341190D01*
X118165714Y-64341190D01*
X119118095Y-63912619D02*
X119165714Y-63865000D01*
X119260952Y-63817381D01*
X119499048Y-63817381D01*
X119594286Y-63865000D01*
X119641905Y-63912619D01*
X119689524Y-64007857D01*
X119689524Y-64103095D01*
X119641905Y-64245952D01*
X119070476Y-64817381D01*
X119689524Y-64817381D01*
X120165714Y-64817381D02*
X120356190Y-64817381D01*
X120451429Y-64769762D01*
X120499048Y-64722143D01*
X120594286Y-64579286D01*
X120641905Y-64388810D01*
X120641905Y-64007857D01*
X120594286Y-63912619D01*
X120546667Y-63865000D01*
X120451429Y-63817381D01*
X120260952Y-63817381D01*
X120165714Y-63865000D01*
X120118095Y-63912619D01*
X120070476Y-64007857D01*
X120070476Y-64245952D01*
X120118095Y-64341190D01*
X120165714Y-64388810D01*
X120260952Y-64436429D01*
X120451429Y-64436429D01*
X120546667Y-64388810D01*
X120594286Y-64341190D01*
X120641905Y-64245952D01*
X100957143Y-72437381D02*
X100623809Y-71961190D01*
X100385714Y-72437381D02*
X100385714Y-71437381D01*
X100766667Y-71437381D01*
X100861905Y-71485000D01*
X100909524Y-71532619D01*
X100957143Y-71627857D01*
X100957143Y-71770714D01*
X100909524Y-71865952D01*
X100861905Y-71913571D01*
X100766667Y-71961190D01*
X100385714Y-71961190D01*
X101338095Y-71532619D02*
X101385714Y-71485000D01*
X101480952Y-71437381D01*
X101719048Y-71437381D01*
X101814286Y-71485000D01*
X101861905Y-71532619D01*
X101909524Y-71627857D01*
X101909524Y-71723095D01*
X101861905Y-71865952D01*
X101290476Y-72437381D01*
X101909524Y-72437381D01*
X102290476Y-71532619D02*
X102338095Y-71485000D01*
X102433333Y-71437381D01*
X102671429Y-71437381D01*
X102766667Y-71485000D01*
X102814286Y-71532619D01*
X102861905Y-71627857D01*
X102861905Y-71723095D01*
X102814286Y-71865952D01*
X102242857Y-72437381D01*
X102861905Y-72437381D01*
X105402143Y-72437381D02*
X105068809Y-71961190D01*
X104830714Y-72437381D02*
X104830714Y-71437381D01*
X105211667Y-71437381D01*
X105306905Y-71485000D01*
X105354524Y-71532619D01*
X105402143Y-71627857D01*
X105402143Y-71770714D01*
X105354524Y-71865952D01*
X105306905Y-71913571D01*
X105211667Y-71961190D01*
X104830714Y-71961190D01*
X105783095Y-71532619D02*
X105830714Y-71485000D01*
X105925952Y-71437381D01*
X106164048Y-71437381D01*
X106259286Y-71485000D01*
X106306905Y-71532619D01*
X106354524Y-71627857D01*
X106354524Y-71723095D01*
X106306905Y-71865952D01*
X105735476Y-72437381D01*
X106354524Y-72437381D01*
X107211667Y-71770714D02*
X107211667Y-72437381D01*
X106973571Y-71389762D02*
X106735476Y-72104048D01*
X107354524Y-72104048D01*
X109847143Y-72437381D02*
X109513809Y-71961190D01*
X109275714Y-72437381D02*
X109275714Y-71437381D01*
X109656667Y-71437381D01*
X109751905Y-71485000D01*
X109799524Y-71532619D01*
X109847143Y-71627857D01*
X109847143Y-71770714D01*
X109799524Y-71865952D01*
X109751905Y-71913571D01*
X109656667Y-71961190D01*
X109275714Y-71961190D01*
X110228095Y-71532619D02*
X110275714Y-71485000D01*
X110370952Y-71437381D01*
X110609048Y-71437381D01*
X110704286Y-71485000D01*
X110751905Y-71532619D01*
X110799524Y-71627857D01*
X110799524Y-71723095D01*
X110751905Y-71865952D01*
X110180476Y-72437381D01*
X110799524Y-72437381D01*
X111656667Y-71437381D02*
X111466190Y-71437381D01*
X111370952Y-71485000D01*
X111323333Y-71532619D01*
X111228095Y-71675476D01*
X111180476Y-71865952D01*
X111180476Y-72246905D01*
X111228095Y-72342143D01*
X111275714Y-72389762D01*
X111370952Y-72437381D01*
X111561429Y-72437381D01*
X111656667Y-72389762D01*
X111704286Y-72342143D01*
X111751905Y-72246905D01*
X111751905Y-72008810D01*
X111704286Y-71913571D01*
X111656667Y-71865952D01*
X111561429Y-71818333D01*
X111370952Y-71818333D01*
X111275714Y-71865952D01*
X111228095Y-71913571D01*
X111180476Y-72008810D01*
X114292143Y-72437381D02*
X113958809Y-71961190D01*
X113720714Y-72437381D02*
X113720714Y-71437381D01*
X114101667Y-71437381D01*
X114196905Y-71485000D01*
X114244524Y-71532619D01*
X114292143Y-71627857D01*
X114292143Y-71770714D01*
X114244524Y-71865952D01*
X114196905Y-71913571D01*
X114101667Y-71961190D01*
X113720714Y-71961190D01*
X114673095Y-71532619D02*
X114720714Y-71485000D01*
X114815952Y-71437381D01*
X115054048Y-71437381D01*
X115149286Y-71485000D01*
X115196905Y-71532619D01*
X115244524Y-71627857D01*
X115244524Y-71723095D01*
X115196905Y-71865952D01*
X114625476Y-72437381D01*
X115244524Y-72437381D01*
X115815952Y-71865952D02*
X115720714Y-71818333D01*
X115673095Y-71770714D01*
X115625476Y-71675476D01*
X115625476Y-71627857D01*
X115673095Y-71532619D01*
X115720714Y-71485000D01*
X115815952Y-71437381D01*
X116006429Y-71437381D01*
X116101667Y-71485000D01*
X116149286Y-71532619D01*
X116196905Y-71627857D01*
X116196905Y-71675476D01*
X116149286Y-71770714D01*
X116101667Y-71818333D01*
X116006429Y-71865952D01*
X115815952Y-71865952D01*
X115720714Y-71913571D01*
X115673095Y-71961190D01*
X115625476Y-72056429D01*
X115625476Y-72246905D01*
X115673095Y-72342143D01*
X115720714Y-72389762D01*
X115815952Y-72437381D01*
X116006429Y-72437381D01*
X116101667Y-72389762D01*
X116149286Y-72342143D01*
X116196905Y-72246905D01*
X116196905Y-72056429D01*
X116149286Y-71961190D01*
X116101667Y-71913571D01*
X116006429Y-71865952D01*
X118737143Y-72437381D02*
X118403809Y-71961190D01*
X118165714Y-72437381D02*
X118165714Y-71437381D01*
X118546667Y-71437381D01*
X118641905Y-71485000D01*
X118689524Y-71532619D01*
X118737143Y-71627857D01*
X118737143Y-71770714D01*
X118689524Y-71865952D01*
X118641905Y-71913571D01*
X118546667Y-71961190D01*
X118165714Y-71961190D01*
X119070476Y-71437381D02*
X119689524Y-71437381D01*
X119356190Y-71818333D01*
X119499048Y-71818333D01*
X119594286Y-71865952D01*
X119641905Y-71913571D01*
X119689524Y-72008810D01*
X119689524Y-72246905D01*
X119641905Y-72342143D01*
X119594286Y-72389762D01*
X119499048Y-72437381D01*
X119213333Y-72437381D01*
X119118095Y-72389762D01*
X119070476Y-72342143D01*
X120308571Y-71437381D02*
X120403810Y-71437381D01*
X120499048Y-71485000D01*
X120546667Y-71532619D01*
X120594286Y-71627857D01*
X120641905Y-71818333D01*
X120641905Y-72056429D01*
X120594286Y-72246905D01*
X120546667Y-72342143D01*
X120499048Y-72389762D01*
X120403810Y-72437381D01*
X120308571Y-72437381D01*
X120213333Y-72389762D01*
X120165714Y-72342143D01*
X120118095Y-72246905D01*
X120070476Y-72056429D01*
X120070476Y-71818333D01*
X120118095Y-71627857D01*
X120165714Y-71532619D01*
X120213333Y-71485000D01*
X120308571Y-71437381D01*
X153757381Y-83311905D02*
X153757381Y-82740476D01*
X154757381Y-83026191D02*
X153757381Y-83026191D01*
X154757381Y-81883333D02*
X154757381Y-82454762D01*
X154757381Y-82169048D02*
X153757381Y-82169048D01*
X153900238Y-82264286D01*
X153995476Y-82359524D01*
X154043095Y-82454762D01*
X144041762Y-84692857D02*
X144089381Y-84550000D01*
X144089381Y-84311904D01*
X144041762Y-84216666D01*
X143994143Y-84169047D01*
X143898905Y-84121428D01*
X143803667Y-84121428D01*
X143708429Y-84169047D01*
X143660810Y-84216666D01*
X143613190Y-84311904D01*
X143565571Y-84502381D01*
X143517952Y-84597619D01*
X143470333Y-84645238D01*
X143375095Y-84692857D01*
X143279857Y-84692857D01*
X143184619Y-84645238D01*
X143137000Y-84597619D01*
X143089381Y-84502381D01*
X143089381Y-84264285D01*
X143137000Y-84121428D01*
X144089381Y-83692857D02*
X143422714Y-83692857D01*
X143089381Y-83692857D02*
X143137000Y-83740476D01*
X143184619Y-83692857D01*
X143137000Y-83645238D01*
X143089381Y-83692857D01*
X143184619Y-83692857D01*
X143422714Y-82788095D02*
X144232238Y-82788095D01*
X144327476Y-82835714D01*
X144375095Y-82883333D01*
X144422714Y-82978572D01*
X144422714Y-83121429D01*
X144375095Y-83216667D01*
X144041762Y-82788095D02*
X144089381Y-82883333D01*
X144089381Y-83073810D01*
X144041762Y-83169048D01*
X143994143Y-83216667D01*
X143898905Y-83264286D01*
X143613190Y-83264286D01*
X143517952Y-83216667D01*
X143470333Y-83169048D01*
X143422714Y-83073810D01*
X143422714Y-82883333D01*
X143470333Y-82788095D01*
X143422714Y-82311905D02*
X144089381Y-82311905D01*
X143517952Y-82311905D02*
X143470333Y-82264286D01*
X143422714Y-82169048D01*
X143422714Y-82026190D01*
X143470333Y-81930952D01*
X143565571Y-81883333D01*
X144089381Y-81883333D01*
X144089381Y-80978571D02*
X143565571Y-80978571D01*
X143470333Y-81026190D01*
X143422714Y-81121428D01*
X143422714Y-81311905D01*
X143470333Y-81407143D01*
X144041762Y-80978571D02*
X144089381Y-81073809D01*
X144089381Y-81311905D01*
X144041762Y-81407143D01*
X143946524Y-81454762D01*
X143851286Y-81454762D01*
X143756048Y-81407143D01*
X143708429Y-81311905D01*
X143708429Y-81073809D01*
X143660810Y-80978571D01*
X144089381Y-80359524D02*
X144041762Y-80454762D01*
X143946524Y-80502381D01*
X143089381Y-80502381D01*
X160853381Y-84526191D02*
X159853381Y-84526191D01*
X159853381Y-84145238D01*
X159901000Y-84050000D01*
X159948619Y-84002381D01*
X160043857Y-83954762D01*
X160186714Y-83954762D01*
X160281952Y-84002381D01*
X160329571Y-84050000D01*
X160377190Y-84145238D01*
X160377190Y-84526191D01*
X160853381Y-83383334D02*
X160805762Y-83478572D01*
X160758143Y-83526191D01*
X160662905Y-83573810D01*
X160377190Y-83573810D01*
X160281952Y-83526191D01*
X160234333Y-83478572D01*
X160186714Y-83383334D01*
X160186714Y-83240476D01*
X160234333Y-83145238D01*
X160281952Y-83097619D01*
X160377190Y-83050000D01*
X160662905Y-83050000D01*
X160758143Y-83097619D01*
X160805762Y-83145238D01*
X160853381Y-83240476D01*
X160853381Y-83383334D01*
X160186714Y-82716667D02*
X160853381Y-82526191D01*
X160377190Y-82335714D01*
X160853381Y-82145238D01*
X160186714Y-81954762D01*
X160805762Y-81192857D02*
X160853381Y-81288095D01*
X160853381Y-81478572D01*
X160805762Y-81573810D01*
X160710524Y-81621429D01*
X160329571Y-81621429D01*
X160234333Y-81573810D01*
X160186714Y-81478572D01*
X160186714Y-81288095D01*
X160234333Y-81192857D01*
X160329571Y-81145238D01*
X160424810Y-81145238D01*
X160520048Y-81621429D01*
X160853381Y-80716667D02*
X160186714Y-80716667D01*
X160377190Y-80716667D02*
X160281952Y-80669048D01*
X160234333Y-80621429D01*
X160186714Y-80526191D01*
X160186714Y-80430952D01*
X123729762Y-69472619D02*
X123634524Y-69425000D01*
X123539286Y-69329762D01*
X123396429Y-69186905D01*
X123301190Y-69139286D01*
X123205952Y-69139286D01*
X123253571Y-69377381D02*
X123158333Y-69329762D01*
X123063095Y-69234524D01*
X123015476Y-69044048D01*
X123015476Y-68710714D01*
X123063095Y-68520238D01*
X123158333Y-68425000D01*
X123253571Y-68377381D01*
X123444048Y-68377381D01*
X123539286Y-68425000D01*
X123634524Y-68520238D01*
X123682143Y-68710714D01*
X123682143Y-69044048D01*
X123634524Y-69234524D01*
X123539286Y-69329762D01*
X123444048Y-69377381D01*
X123253571Y-69377381D01*
X124539286Y-68377381D02*
X124348809Y-68377381D01*
X124253571Y-68425000D01*
X124205952Y-68472619D01*
X124110714Y-68615476D01*
X124063095Y-68805952D01*
X124063095Y-69186905D01*
X124110714Y-69282143D01*
X124158333Y-69329762D01*
X124253571Y-69377381D01*
X124444048Y-69377381D01*
X124539286Y-69329762D01*
X124586905Y-69282143D01*
X124634524Y-69186905D01*
X124634524Y-68948810D01*
X124586905Y-68853571D01*
X124539286Y-68805952D01*
X124444048Y-68758333D01*
X124253571Y-68758333D01*
X124158333Y-68805952D01*
X124110714Y-68853571D01*
X124063095Y-68948810D01*
X128174762Y-69472619D02*
X128079524Y-69425000D01*
X127984286Y-69329762D01*
X127841429Y-69186905D01*
X127746190Y-69139286D01*
X127650952Y-69139286D01*
X127698571Y-69377381D02*
X127603333Y-69329762D01*
X127508095Y-69234524D01*
X127460476Y-69044048D01*
X127460476Y-68710714D01*
X127508095Y-68520238D01*
X127603333Y-68425000D01*
X127698571Y-68377381D01*
X127889048Y-68377381D01*
X127984286Y-68425000D01*
X128079524Y-68520238D01*
X128127143Y-68710714D01*
X128127143Y-69044048D01*
X128079524Y-69234524D01*
X127984286Y-69329762D01*
X127889048Y-69377381D01*
X127698571Y-69377381D01*
X128460476Y-68377381D02*
X129127143Y-68377381D01*
X128698571Y-69377381D01*
X132619762Y-69472619D02*
X132524524Y-69425000D01*
X132429286Y-69329762D01*
X132286429Y-69186905D01*
X132191190Y-69139286D01*
X132095952Y-69139286D01*
X132143571Y-69377381D02*
X132048333Y-69329762D01*
X131953095Y-69234524D01*
X131905476Y-69044048D01*
X131905476Y-68710714D01*
X131953095Y-68520238D01*
X132048333Y-68425000D01*
X132143571Y-68377381D01*
X132334048Y-68377381D01*
X132429286Y-68425000D01*
X132524524Y-68520238D01*
X132572143Y-68710714D01*
X132572143Y-69044048D01*
X132524524Y-69234524D01*
X132429286Y-69329762D01*
X132334048Y-69377381D01*
X132143571Y-69377381D01*
X133143571Y-68805952D02*
X133048333Y-68758333D01*
X133000714Y-68710714D01*
X132953095Y-68615476D01*
X132953095Y-68567857D01*
X133000714Y-68472619D01*
X133048333Y-68425000D01*
X133143571Y-68377381D01*
X133334048Y-68377381D01*
X133429286Y-68425000D01*
X133476905Y-68472619D01*
X133524524Y-68567857D01*
X133524524Y-68615476D01*
X133476905Y-68710714D01*
X133429286Y-68758333D01*
X133334048Y-68805952D01*
X133143571Y-68805952D01*
X133048333Y-68853571D01*
X133000714Y-68901190D01*
X132953095Y-68996429D01*
X132953095Y-69186905D01*
X133000714Y-69282143D01*
X133048333Y-69329762D01*
X133143571Y-69377381D01*
X133334048Y-69377381D01*
X133429286Y-69329762D01*
X133476905Y-69282143D01*
X133524524Y-69186905D01*
X133524524Y-68996429D01*
X133476905Y-68901190D01*
X133429286Y-68853571D01*
X133334048Y-68805952D01*
X123182143Y-64817381D02*
X122848809Y-64341190D01*
X122610714Y-64817381D02*
X122610714Y-63817381D01*
X122991667Y-63817381D01*
X123086905Y-63865000D01*
X123134524Y-63912619D01*
X123182143Y-64007857D01*
X123182143Y-64150714D01*
X123134524Y-64245952D01*
X123086905Y-64293571D01*
X122991667Y-64341190D01*
X122610714Y-64341190D01*
X123515476Y-63817381D02*
X124134524Y-63817381D01*
X123801190Y-64198333D01*
X123944048Y-64198333D01*
X124039286Y-64245952D01*
X124086905Y-64293571D01*
X124134524Y-64388810D01*
X124134524Y-64626905D01*
X124086905Y-64722143D01*
X124039286Y-64769762D01*
X123944048Y-64817381D01*
X123658333Y-64817381D01*
X123563095Y-64769762D01*
X123515476Y-64722143D01*
X125086905Y-64817381D02*
X124515476Y-64817381D01*
X124801190Y-64817381D02*
X124801190Y-63817381D01*
X124705952Y-63960238D01*
X124610714Y-64055476D01*
X124515476Y-64103095D01*
X123182143Y-72437381D02*
X122848809Y-71961190D01*
X122610714Y-72437381D02*
X122610714Y-71437381D01*
X122991667Y-71437381D01*
X123086905Y-71485000D01*
X123134524Y-71532619D01*
X123182143Y-71627857D01*
X123182143Y-71770714D01*
X123134524Y-71865952D01*
X123086905Y-71913571D01*
X122991667Y-71961190D01*
X122610714Y-71961190D01*
X123515476Y-71437381D02*
X124134524Y-71437381D01*
X123801190Y-71818333D01*
X123944048Y-71818333D01*
X124039286Y-71865952D01*
X124086905Y-71913571D01*
X124134524Y-72008810D01*
X124134524Y-72246905D01*
X124086905Y-72342143D01*
X124039286Y-72389762D01*
X123944048Y-72437381D01*
X123658333Y-72437381D01*
X123563095Y-72389762D01*
X123515476Y-72342143D01*
X124515476Y-71532619D02*
X124563095Y-71485000D01*
X124658333Y-71437381D01*
X124896429Y-71437381D01*
X124991667Y-71485000D01*
X125039286Y-71532619D01*
X125086905Y-71627857D01*
X125086905Y-71723095D01*
X125039286Y-71865952D01*
X124467857Y-72437381D01*
X125086905Y-72437381D01*
X127627143Y-64817381D02*
X127293809Y-64341190D01*
X127055714Y-64817381D02*
X127055714Y-63817381D01*
X127436667Y-63817381D01*
X127531905Y-63865000D01*
X127579524Y-63912619D01*
X127627143Y-64007857D01*
X127627143Y-64150714D01*
X127579524Y-64245952D01*
X127531905Y-64293571D01*
X127436667Y-64341190D01*
X127055714Y-64341190D01*
X127960476Y-63817381D02*
X128579524Y-63817381D01*
X128246190Y-64198333D01*
X128389048Y-64198333D01*
X128484286Y-64245952D01*
X128531905Y-64293571D01*
X128579524Y-64388810D01*
X128579524Y-64626905D01*
X128531905Y-64722143D01*
X128484286Y-64769762D01*
X128389048Y-64817381D01*
X128103333Y-64817381D01*
X128008095Y-64769762D01*
X127960476Y-64722143D01*
X128912857Y-63817381D02*
X129531905Y-63817381D01*
X129198571Y-64198333D01*
X129341429Y-64198333D01*
X129436667Y-64245952D01*
X129484286Y-64293571D01*
X129531905Y-64388810D01*
X129531905Y-64626905D01*
X129484286Y-64722143D01*
X129436667Y-64769762D01*
X129341429Y-64817381D01*
X129055714Y-64817381D01*
X128960476Y-64769762D01*
X128912857Y-64722143D01*
X127627143Y-72437381D02*
X127293809Y-71961190D01*
X127055714Y-72437381D02*
X127055714Y-71437381D01*
X127436667Y-71437381D01*
X127531905Y-71485000D01*
X127579524Y-71532619D01*
X127627143Y-71627857D01*
X127627143Y-71770714D01*
X127579524Y-71865952D01*
X127531905Y-71913571D01*
X127436667Y-71961190D01*
X127055714Y-71961190D01*
X127960476Y-71437381D02*
X128579524Y-71437381D01*
X128246190Y-71818333D01*
X128389048Y-71818333D01*
X128484286Y-71865952D01*
X128531905Y-71913571D01*
X128579524Y-72008810D01*
X128579524Y-72246905D01*
X128531905Y-72342143D01*
X128484286Y-72389762D01*
X128389048Y-72437381D01*
X128103333Y-72437381D01*
X128008095Y-72389762D01*
X127960476Y-72342143D01*
X129436667Y-71770714D02*
X129436667Y-72437381D01*
X129198571Y-71389762D02*
X128960476Y-72104048D01*
X129579524Y-72104048D01*
X132072143Y-64817381D02*
X131738809Y-64341190D01*
X131500714Y-64817381D02*
X131500714Y-63817381D01*
X131881667Y-63817381D01*
X131976905Y-63865000D01*
X132024524Y-63912619D01*
X132072143Y-64007857D01*
X132072143Y-64150714D01*
X132024524Y-64245952D01*
X131976905Y-64293571D01*
X131881667Y-64341190D01*
X131500714Y-64341190D01*
X132405476Y-63817381D02*
X133024524Y-63817381D01*
X132691190Y-64198333D01*
X132834048Y-64198333D01*
X132929286Y-64245952D01*
X132976905Y-64293571D01*
X133024524Y-64388810D01*
X133024524Y-64626905D01*
X132976905Y-64722143D01*
X132929286Y-64769762D01*
X132834048Y-64817381D01*
X132548333Y-64817381D01*
X132453095Y-64769762D01*
X132405476Y-64722143D01*
X133929286Y-63817381D02*
X133453095Y-63817381D01*
X133405476Y-64293571D01*
X133453095Y-64245952D01*
X133548333Y-64198333D01*
X133786429Y-64198333D01*
X133881667Y-64245952D01*
X133929286Y-64293571D01*
X133976905Y-64388810D01*
X133976905Y-64626905D01*
X133929286Y-64722143D01*
X133881667Y-64769762D01*
X133786429Y-64817381D01*
X133548333Y-64817381D01*
X133453095Y-64769762D01*
X133405476Y-64722143D01*
X132072143Y-72437381D02*
X131738809Y-71961190D01*
X131500714Y-72437381D02*
X131500714Y-71437381D01*
X131881667Y-71437381D01*
X131976905Y-71485000D01*
X132024524Y-71532619D01*
X132072143Y-71627857D01*
X132072143Y-71770714D01*
X132024524Y-71865952D01*
X131976905Y-71913571D01*
X131881667Y-71961190D01*
X131500714Y-71961190D01*
X132405476Y-71437381D02*
X133024524Y-71437381D01*
X132691190Y-71818333D01*
X132834048Y-71818333D01*
X132929286Y-71865952D01*
X132976905Y-71913571D01*
X133024524Y-72008810D01*
X133024524Y-72246905D01*
X132976905Y-72342143D01*
X132929286Y-72389762D01*
X132834048Y-72437381D01*
X132548333Y-72437381D01*
X132453095Y-72389762D01*
X132405476Y-72342143D01*
X133881667Y-71437381D02*
X133691190Y-71437381D01*
X133595952Y-71485000D01*
X133548333Y-71532619D01*
X133453095Y-71675476D01*
X133405476Y-71865952D01*
X133405476Y-72246905D01*
X133453095Y-72342143D01*
X133500714Y-72389762D01*
X133595952Y-72437381D01*
X133786429Y-72437381D01*
X133881667Y-72389762D01*
X133929286Y-72342143D01*
X133976905Y-72246905D01*
X133976905Y-72008810D01*
X133929286Y-71913571D01*
X133881667Y-71865952D01*
X133786429Y-71818333D01*
X133595952Y-71818333D01*
X133500714Y-71865952D01*
X133453095Y-71913571D01*
X133405476Y-72008810D01*
X102068334Y-108537143D02*
X102020715Y-108584762D01*
X101877858Y-108632381D01*
X101782620Y-108632381D01*
X101639762Y-108584762D01*
X101544524Y-108489524D01*
X101496905Y-108394286D01*
X101449286Y-108203810D01*
X101449286Y-108060952D01*
X101496905Y-107870476D01*
X101544524Y-107775238D01*
X101639762Y-107680000D01*
X101782620Y-107632381D01*
X101877858Y-107632381D01*
X102020715Y-107680000D01*
X102068334Y-107727619D01*
X103020715Y-108632381D02*
X102449286Y-108632381D01*
X102735000Y-108632381D02*
X102735000Y-107632381D01*
X102639762Y-107775238D01*
X102544524Y-107870476D01*
X102449286Y-107918095D01*
X108418334Y-108537143D02*
X108370715Y-108584762D01*
X108227858Y-108632381D01*
X108132620Y-108632381D01*
X107989762Y-108584762D01*
X107894524Y-108489524D01*
X107846905Y-108394286D01*
X107799286Y-108203810D01*
X107799286Y-108060952D01*
X107846905Y-107870476D01*
X107894524Y-107775238D01*
X107989762Y-107680000D01*
X108132620Y-107632381D01*
X108227858Y-107632381D01*
X108370715Y-107680000D01*
X108418334Y-107727619D01*
X108799286Y-107727619D02*
X108846905Y-107680000D01*
X108942143Y-107632381D01*
X109180239Y-107632381D01*
X109275477Y-107680000D01*
X109323096Y-107727619D01*
X109370715Y-107822857D01*
X109370715Y-107918095D01*
X109323096Y-108060952D01*
X108751667Y-108632381D01*
X109370715Y-108632381D01*
X114768334Y-108537143D02*
X114720715Y-108584762D01*
X114577858Y-108632381D01*
X114482620Y-108632381D01*
X114339762Y-108584762D01*
X114244524Y-108489524D01*
X114196905Y-108394286D01*
X114149286Y-108203810D01*
X114149286Y-108060952D01*
X114196905Y-107870476D01*
X114244524Y-107775238D01*
X114339762Y-107680000D01*
X114482620Y-107632381D01*
X114577858Y-107632381D01*
X114720715Y-107680000D01*
X114768334Y-107727619D01*
X115101667Y-107632381D02*
X115720715Y-107632381D01*
X115387381Y-108013333D01*
X115530239Y-108013333D01*
X115625477Y-108060952D01*
X115673096Y-108108571D01*
X115720715Y-108203810D01*
X115720715Y-108441905D01*
X115673096Y-108537143D01*
X115625477Y-108584762D01*
X115530239Y-108632381D01*
X115244524Y-108632381D01*
X115149286Y-108584762D01*
X115101667Y-108537143D01*
X127468334Y-108537143D02*
X127420715Y-108584762D01*
X127277858Y-108632381D01*
X127182620Y-108632381D01*
X127039762Y-108584762D01*
X126944524Y-108489524D01*
X126896905Y-108394286D01*
X126849286Y-108203810D01*
X126849286Y-108060952D01*
X126896905Y-107870476D01*
X126944524Y-107775238D01*
X127039762Y-107680000D01*
X127182620Y-107632381D01*
X127277858Y-107632381D01*
X127420715Y-107680000D01*
X127468334Y-107727619D01*
X128325477Y-107965714D02*
X128325477Y-108632381D01*
X128087381Y-107584762D02*
X127849286Y-108299048D01*
X128468334Y-108299048D01*
X133818334Y-108537143D02*
X133770715Y-108584762D01*
X133627858Y-108632381D01*
X133532620Y-108632381D01*
X133389762Y-108584762D01*
X133294524Y-108489524D01*
X133246905Y-108394286D01*
X133199286Y-108203810D01*
X133199286Y-108060952D01*
X133246905Y-107870476D01*
X133294524Y-107775238D01*
X133389762Y-107680000D01*
X133532620Y-107632381D01*
X133627858Y-107632381D01*
X133770715Y-107680000D01*
X133818334Y-107727619D01*
X134723096Y-107632381D02*
X134246905Y-107632381D01*
X134199286Y-108108571D01*
X134246905Y-108060952D01*
X134342143Y-108013333D01*
X134580239Y-108013333D01*
X134675477Y-108060952D01*
X134723096Y-108108571D01*
X134770715Y-108203810D01*
X134770715Y-108441905D01*
X134723096Y-108537143D01*
X134675477Y-108584762D01*
X134580239Y-108632381D01*
X134342143Y-108632381D01*
X134246905Y-108584762D01*
X134199286Y-108537143D01*
X140168334Y-108537143D02*
X140120715Y-108584762D01*
X139977858Y-108632381D01*
X139882620Y-108632381D01*
X139739762Y-108584762D01*
X139644524Y-108489524D01*
X139596905Y-108394286D01*
X139549286Y-108203810D01*
X139549286Y-108060952D01*
X139596905Y-107870476D01*
X139644524Y-107775238D01*
X139739762Y-107680000D01*
X139882620Y-107632381D01*
X139977858Y-107632381D01*
X140120715Y-107680000D01*
X140168334Y-107727619D01*
X141025477Y-107632381D02*
X140835000Y-107632381D01*
X140739762Y-107680000D01*
X140692143Y-107727619D01*
X140596905Y-107870476D01*
X140549286Y-108060952D01*
X140549286Y-108441905D01*
X140596905Y-108537143D01*
X140644524Y-108584762D01*
X140739762Y-108632381D01*
X140930239Y-108632381D01*
X141025477Y-108584762D01*
X141073096Y-108537143D01*
X141120715Y-108441905D01*
X141120715Y-108203810D01*
X141073096Y-108108571D01*
X141025477Y-108060952D01*
X140930239Y-108013333D01*
X140739762Y-108013333D01*
X140644524Y-108060952D01*
X140596905Y-108108571D01*
X140549286Y-108203810D01*
X108418334Y-100917143D02*
X108370715Y-100964762D01*
X108227858Y-101012381D01*
X108132620Y-101012381D01*
X107989762Y-100964762D01*
X107894524Y-100869524D01*
X107846905Y-100774286D01*
X107799286Y-100583810D01*
X107799286Y-100440952D01*
X107846905Y-100250476D01*
X107894524Y-100155238D01*
X107989762Y-100060000D01*
X108132620Y-100012381D01*
X108227858Y-100012381D01*
X108370715Y-100060000D01*
X108418334Y-100107619D01*
X108989762Y-100440952D02*
X108894524Y-100393333D01*
X108846905Y-100345714D01*
X108799286Y-100250476D01*
X108799286Y-100202857D01*
X108846905Y-100107619D01*
X108894524Y-100060000D01*
X108989762Y-100012381D01*
X109180239Y-100012381D01*
X109275477Y-100060000D01*
X109323096Y-100107619D01*
X109370715Y-100202857D01*
X109370715Y-100250476D01*
X109323096Y-100345714D01*
X109275477Y-100393333D01*
X109180239Y-100440952D01*
X108989762Y-100440952D01*
X108894524Y-100488571D01*
X108846905Y-100536190D01*
X108799286Y-100631429D01*
X108799286Y-100821905D01*
X108846905Y-100917143D01*
X108894524Y-100964762D01*
X108989762Y-101012381D01*
X109180239Y-101012381D01*
X109275477Y-100964762D01*
X109323096Y-100917143D01*
X109370715Y-100821905D01*
X109370715Y-100631429D01*
X109323096Y-100536190D01*
X109275477Y-100488571D01*
X109180239Y-100440952D01*
X114768334Y-100917143D02*
X114720715Y-100964762D01*
X114577858Y-101012381D01*
X114482620Y-101012381D01*
X114339762Y-100964762D01*
X114244524Y-100869524D01*
X114196905Y-100774286D01*
X114149286Y-100583810D01*
X114149286Y-100440952D01*
X114196905Y-100250476D01*
X114244524Y-100155238D01*
X114339762Y-100060000D01*
X114482620Y-100012381D01*
X114577858Y-100012381D01*
X114720715Y-100060000D01*
X114768334Y-100107619D01*
X115244524Y-101012381D02*
X115435000Y-101012381D01*
X115530239Y-100964762D01*
X115577858Y-100917143D01*
X115673096Y-100774286D01*
X115720715Y-100583810D01*
X115720715Y-100202857D01*
X115673096Y-100107619D01*
X115625477Y-100060000D01*
X115530239Y-100012381D01*
X115339762Y-100012381D01*
X115244524Y-100060000D01*
X115196905Y-100107619D01*
X115149286Y-100202857D01*
X115149286Y-100440952D01*
X115196905Y-100536190D01*
X115244524Y-100583810D01*
X115339762Y-100631429D01*
X115530239Y-100631429D01*
X115625477Y-100583810D01*
X115673096Y-100536190D01*
X115720715Y-100440952D01*
X120642143Y-100917143D02*
X120594524Y-100964762D01*
X120451667Y-101012381D01*
X120356429Y-101012381D01*
X120213571Y-100964762D01*
X120118333Y-100869524D01*
X120070714Y-100774286D01*
X120023095Y-100583810D01*
X120023095Y-100440952D01*
X120070714Y-100250476D01*
X120118333Y-100155238D01*
X120213571Y-100060000D01*
X120356429Y-100012381D01*
X120451667Y-100012381D01*
X120594524Y-100060000D01*
X120642143Y-100107619D01*
X121594524Y-101012381D02*
X121023095Y-101012381D01*
X121308809Y-101012381D02*
X121308809Y-100012381D01*
X121213571Y-100155238D01*
X121118333Y-100250476D01*
X121023095Y-100298095D01*
X122213571Y-100012381D02*
X122308810Y-100012381D01*
X122404048Y-100060000D01*
X122451667Y-100107619D01*
X122499286Y-100202857D01*
X122546905Y-100393333D01*
X122546905Y-100631429D01*
X122499286Y-100821905D01*
X122451667Y-100917143D01*
X122404048Y-100964762D01*
X122308810Y-101012381D01*
X122213571Y-101012381D01*
X122118333Y-100964762D01*
X122070714Y-100917143D01*
X122023095Y-100821905D01*
X121975476Y-100631429D01*
X121975476Y-100393333D01*
X122023095Y-100202857D01*
X122070714Y-100107619D01*
X122118333Y-100060000D01*
X122213571Y-100012381D01*
X133342143Y-100917143D02*
X133294524Y-100964762D01*
X133151667Y-101012381D01*
X133056429Y-101012381D01*
X132913571Y-100964762D01*
X132818333Y-100869524D01*
X132770714Y-100774286D01*
X132723095Y-100583810D01*
X132723095Y-100440952D01*
X132770714Y-100250476D01*
X132818333Y-100155238D01*
X132913571Y-100060000D01*
X133056429Y-100012381D01*
X133151667Y-100012381D01*
X133294524Y-100060000D01*
X133342143Y-100107619D01*
X134294524Y-101012381D02*
X133723095Y-101012381D01*
X134008809Y-101012381D02*
X134008809Y-100012381D01*
X133913571Y-100155238D01*
X133818333Y-100250476D01*
X133723095Y-100298095D01*
X135246905Y-101012381D02*
X134675476Y-101012381D01*
X134961190Y-101012381D02*
X134961190Y-100012381D01*
X134865952Y-100155238D01*
X134770714Y-100250476D01*
X134675476Y-100298095D01*
X126992143Y-100917143D02*
X126944524Y-100964762D01*
X126801667Y-101012381D01*
X126706429Y-101012381D01*
X126563571Y-100964762D01*
X126468333Y-100869524D01*
X126420714Y-100774286D01*
X126373095Y-100583810D01*
X126373095Y-100440952D01*
X126420714Y-100250476D01*
X126468333Y-100155238D01*
X126563571Y-100060000D01*
X126706429Y-100012381D01*
X126801667Y-100012381D01*
X126944524Y-100060000D01*
X126992143Y-100107619D01*
X127944524Y-101012381D02*
X127373095Y-101012381D01*
X127658809Y-101012381D02*
X127658809Y-100012381D01*
X127563571Y-100155238D01*
X127468333Y-100250476D01*
X127373095Y-100298095D01*
X128325476Y-100107619D02*
X128373095Y-100060000D01*
X128468333Y-100012381D01*
X128706429Y-100012381D01*
X128801667Y-100060000D01*
X128849286Y-100107619D01*
X128896905Y-100202857D01*
X128896905Y-100298095D01*
X128849286Y-100440952D01*
X128277857Y-101012381D01*
X128896905Y-101012381D01*
X108302143Y-82557857D02*
X108349762Y-82605476D01*
X108397381Y-82748333D01*
X108397381Y-82843571D01*
X108349762Y-82986429D01*
X108254524Y-83081667D01*
X108159286Y-83129286D01*
X107968810Y-83176905D01*
X107825952Y-83176905D01*
X107635476Y-83129286D01*
X107540238Y-83081667D01*
X107445000Y-82986429D01*
X107397381Y-82843571D01*
X107397381Y-82748333D01*
X107445000Y-82605476D01*
X107492619Y-82557857D01*
X108397381Y-81605476D02*
X108397381Y-82176905D01*
X108397381Y-81891191D02*
X107397381Y-81891191D01*
X107540238Y-81986429D01*
X107635476Y-82081667D01*
X107683095Y-82176905D01*
X107397381Y-80700714D02*
X107397381Y-81176905D01*
X107873571Y-81224524D01*
X107825952Y-81176905D01*
X107778333Y-81081667D01*
X107778333Y-80843571D01*
X107825952Y-80748333D01*
X107873571Y-80700714D01*
X107968810Y-80653095D01*
X108206905Y-80653095D01*
X108302143Y-80700714D01*
X108349762Y-80748333D01*
X108397381Y-80843571D01*
X108397381Y-81081667D01*
X108349762Y-81176905D01*
X108302143Y-81224524D01*
X111912143Y-82557857D02*
X111959762Y-82605476D01*
X112007381Y-82748333D01*
X112007381Y-82843571D01*
X111959762Y-82986429D01*
X111864524Y-83081667D01*
X111769286Y-83129286D01*
X111578810Y-83176905D01*
X111435952Y-83176905D01*
X111245476Y-83129286D01*
X111150238Y-83081667D01*
X111055000Y-82986429D01*
X111007381Y-82843571D01*
X111007381Y-82748333D01*
X111055000Y-82605476D01*
X111102619Y-82557857D01*
X112007381Y-81605476D02*
X112007381Y-82176905D01*
X112007381Y-81891191D02*
X111007381Y-81891191D01*
X111150238Y-81986429D01*
X111245476Y-82081667D01*
X111293095Y-82176905D01*
X111007381Y-80748333D02*
X111007381Y-80938810D01*
X111055000Y-81034048D01*
X111102619Y-81081667D01*
X111245476Y-81176905D01*
X111435952Y-81224524D01*
X111816905Y-81224524D01*
X111912143Y-81176905D01*
X111959762Y-81129286D01*
X112007381Y-81034048D01*
X112007381Y-80843571D01*
X111959762Y-80748333D01*
X111912143Y-80700714D01*
X111816905Y-80653095D01*
X111578810Y-80653095D01*
X111483571Y-80700714D01*
X111435952Y-80748333D01*
X111388333Y-80843571D01*
X111388333Y-81034048D01*
X111435952Y-81129286D01*
X111483571Y-81176905D01*
X111578810Y-81224524D01*
X138382143Y-81922857D02*
X138429762Y-81970476D01*
X138477381Y-82113333D01*
X138477381Y-82208571D01*
X138429762Y-82351429D01*
X138334524Y-82446667D01*
X138239286Y-82494286D01*
X138048810Y-82541905D01*
X137905952Y-82541905D01*
X137715476Y-82494286D01*
X137620238Y-82446667D01*
X137525000Y-82351429D01*
X137477381Y-82208571D01*
X137477381Y-82113333D01*
X137525000Y-81970476D01*
X137572619Y-81922857D01*
X138477381Y-80970476D02*
X138477381Y-81541905D01*
X138477381Y-81256191D02*
X137477381Y-81256191D01*
X137620238Y-81351429D01*
X137715476Y-81446667D01*
X137763095Y-81541905D01*
X137905952Y-80399048D02*
X137858333Y-80494286D01*
X137810714Y-80541905D01*
X137715476Y-80589524D01*
X137667857Y-80589524D01*
X137572619Y-80541905D01*
X137525000Y-80494286D01*
X137477381Y-80399048D01*
X137477381Y-80208571D01*
X137525000Y-80113333D01*
X137572619Y-80065714D01*
X137667857Y-80018095D01*
X137715476Y-80018095D01*
X137810714Y-80065714D01*
X137858333Y-80113333D01*
X137905952Y-80208571D01*
X137905952Y-80399048D01*
X137953571Y-80494286D01*
X138001190Y-80541905D01*
X138096429Y-80589524D01*
X138286905Y-80589524D01*
X138382143Y-80541905D01*
X138429762Y-80494286D01*
X138477381Y-80399048D01*
X138477381Y-80208571D01*
X138429762Y-80113333D01*
X138382143Y-80065714D01*
X138286905Y-80018095D01*
X138096429Y-80018095D01*
X138001190Y-80065714D01*
X137953571Y-80113333D01*
X137905952Y-80208571D01*
M02*
