M48
;DRILL file {KiCad 4.0.2-stable} date Sunday, 28 August 2016 12:15:16
;FORMAT={-:-/ absolute / metric / decimal}
FMAT,2
METRIC,TZ
T1C0.300
T2C0.800
T3C1.000
T4C1.016
T5C1.200
%
G90
G05
M71
T1
X98.806Y-76.2
X98.806Y-81.28
X98.806Y-81.28
X99.06Y-71.12
X99.06Y-86.36
X99.06Y-86.36
X99.06Y-88.265
X99.06Y-91.44
X99.06Y-96.52
X99.06Y-101.6
X99.06Y-106.68
X99.06Y-111.76
X99.06Y-116.84
X99.06Y-127.
X100.381Y-66.954
X100.432Y-60.046
X100.432Y-64.262
X101.473Y-108.077
X101.6Y-83.82
X101.6Y-83.82
X102.362Y-61.214
X102.362Y-68.961
X102.87Y-100.33
X102.87Y-105.156
X102.87Y-116.84
X104.14Y-81.407
X104.14Y-81.407
X104.14Y-86.36
X104.14Y-86.36
X104.14Y-88.265
X104.775Y-127.
X105.283Y-96.393
X105.41Y-101.6
X105.41Y-106.68
X105.41Y-111.76
X106.68Y-86.36
X106.68Y-86.36
X106.68Y-116.84
X106.807Y-61.214
X106.807Y-68.961
X107.823Y-100.457
X107.823Y-108.077
X108.458Y-93.218
X108.585Y-85.09
X108.585Y-88.265
X109.22Y-116.84
X109.347Y-95.631
X109.855Y-127.
X111.252Y-61.214
X111.252Y-68.961
X111.506Y-82.55
X111.506Y-82.55
X111.76Y-106.68
X111.76Y-111.76
X112.395Y-101.6
X112.522Y-78.994
X113.03Y-85.979
X113.03Y-88.265
X113.03Y-91.44
X113.03Y-96.52
X114.173Y-100.457
X114.173Y-108.077
X114.554Y-116.84
X114.935Y-127.
X115.697Y-61.214
X115.697Y-68.961
X117.602Y-116.84
X117.729Y-116.84
X118.11Y-98.552
X118.11Y-101.6
X118.11Y-106.68
X118.11Y-111.76
X119.634Y-92.075
X119.634Y-95.25
X120.015Y-127.
X120.142Y-61.214
X120.142Y-68.961
X120.523Y-100.457
X120.523Y-108.077
X121.158Y-111.506
X121.285Y-81.534
X121.666Y-77.597
X121.666Y-78.359
X121.666Y-79.121
X121.92Y-68.961
X121.92Y-72.771
X122.428Y-92.329
X122.555Y-95.25
X124.46Y-85.09
X124.46Y-88.646
X124.46Y-94.361
X124.46Y-96.52
X124.46Y-99.06
X124.46Y-101.6
X124.46Y-106.68
X124.46Y-110.363
X124.46Y-112.649
X124.587Y-61.214
X124.587Y-68.961
X124.714Y-76.581
X124.714Y-77.724
X124.714Y-78.994
X125.095Y-127.
X126.746Y-96.647
X126.746Y-116.84
X126.873Y-100.457
X126.873Y-108.077
X127.635Y-83.185
X127.635Y-85.725
X127.635Y-88.265
X127.635Y-91.948
X129.032Y-61.214
X129.032Y-68.961
X129.413Y-79.248
X129.413Y-85.852
X129.413Y-88.519
X129.413Y-91.44
X129.54Y-58.42
X129.54Y-76.2
X129.794Y-116.84
X130.175Y-127.
X130.81Y-94.234
X130.81Y-98.425
X130.81Y-101.6
X130.81Y-105.918
X130.81Y-108.966
X130.81Y-112.014
X133.096Y-116.84
X133.223Y-92.583
X133.223Y-100.457
X133.35Y-76.2
X133.477Y-61.214
X133.477Y-68.961
X133.477Y-79.248
X133.604Y-89.662
X133.985Y-94.234
X134.62Y-58.42
X134.62Y-73.66
X134.62Y-73.66
X135.001Y-62.865
X135.001Y-64.516
X135.001Y-66.548
X135.001Y-92.583
X135.255Y-127.
X136.144Y-116.84
X136.525Y-65.405
X136.525Y-78.867
X136.525Y-84.455
X137.16Y-106.68
X137.16Y-111.76
X137.16Y-111.76
X137.414Y-92.583
X137.541Y-100.33
X137.795Y-94.361
X137.922Y-97.282
X139.446Y-116.84
X139.573Y-108.077
X139.7Y-58.42
X139.7Y-66.04
X139.7Y-71.12
X139.7Y-76.2
X139.7Y-81.28
X139.7Y-86.36
X139.7Y-90.17
X139.7Y-92.583
X139.7Y-103.505
X140.335Y-127.
X141.478Y-99.822
X141.605Y-68.58
X141.605Y-74.295
X141.605Y-79.375
X141.605Y-84.455
X141.605Y-89.535
X141.605Y-93.98
X142.494Y-116.84
X143.51Y-101.6
X143.51Y-106.68
X143.51Y-111.76
X144.78Y-58.42
X144.78Y-66.04
X145.415Y-116.84
X145.415Y-127.
X146.05Y-94.615
X146.05Y-97.155
X146.05Y-102.235
X146.05Y-107.315
X146.05Y-112.395
X147.955Y-68.58
X147.955Y-74.295
X147.955Y-79.375
X147.955Y-79.375
X147.955Y-84.455
X147.955Y-89.535
X147.955Y-89.535
X147.955Y-94.615
X149.86Y-59.69
X149.86Y-64.77
X150.495Y-112.395
X150.495Y-116.84
X150.495Y-127.
X154.94Y-58.42
X154.94Y-66.04
X154.94Y-66.04
X155.575Y-112.395
X155.575Y-116.84
X155.575Y-127.
X160.02Y-58.42
X160.02Y-66.04
X160.655Y-112.395
X160.655Y-116.84
X160.655Y-127.
T3
X116.84Y-81.915
T4
X99.695Y-57.785
X102.235Y-57.785
X104.775Y-57.785
X107.315Y-57.785
X109.855Y-57.785
X112.395Y-57.785
X114.935Y-57.785
X117.475Y-57.785
X120.015Y-57.785
X122.555Y-57.785
X125.095Y-57.785
T5
X100.965Y-121.92
X106.045Y-121.92
X111.125Y-121.92
X116.205Y-121.92
X121.285Y-121.92
X126.365Y-121.92
X133.35Y-121.92
X138.43Y-121.92
X143.51Y-121.92
X144.815Y-77.05
X144.815Y-88.05
X148.59Y-121.92
X153.67Y-121.92
X155.575Y-100.965
X155.575Y-106.045
X158.715Y-77.05
X158.715Y-88.05
X158.75Y-121.92
T2
X150.205Y-57.43G85X152.405Y-57.43
G05
X150.205Y-67.03G85X152.405Y-67.03
G05
T3
X148.055Y-60.98G85X148.055Y-63.48
G05
X154.305Y-60.98G85X154.305Y-63.48
G05
T0
M30
