G04 #@! TF.FileFunction,Copper,L2,Bot,Signal*
%FSLAX46Y46*%
G04 Gerber Fmt 4.6, Leading zero omitted, Abs format (unit mm)*
G04 Created by KiCad (PCBNEW 4.0.2-stable) date Sunday, 28 August 2016 12:14:49*
%MOMM*%
G01*
G04 APERTURE LIST*
%ADD10C,0.100000*%
%ADD11C,0.600000*%
%ADD12O,4.000000X1.800000*%
%ADD13O,2.000000X4.500000*%
%ADD14R,1.727200X2.032000*%
%ADD15O,1.727200X2.032000*%
%ADD16C,2.200000*%
%ADD17C,2.000000*%
%ADD18C,0.250000*%
%ADD19C,1.000000*%
%ADD20C,0.254000*%
G04 APERTURE END LIST*
D10*
D11*
X124460000Y-88646000D03*
X124460000Y-85090000D03*
X127635000Y-83185000D03*
X127635000Y-85725000D03*
X127635000Y-88265000D03*
X122428000Y-92329000D03*
X119634000Y-92075000D03*
X119634000Y-95250000D03*
X122555000Y-95250000D03*
X124460000Y-94361000D03*
X124460000Y-96520000D03*
X124460000Y-99060000D03*
X124460000Y-101600000D03*
X124460000Y-106680000D03*
X114173000Y-108077000D03*
X120523000Y-108077000D03*
X118110000Y-106680000D03*
X120523000Y-100457000D03*
X118110000Y-101600000D03*
X118110000Y-98552000D03*
X111760000Y-106680000D03*
X114173000Y-100457000D03*
X112395000Y-101600000D03*
X113030000Y-96520000D03*
X113030000Y-91440000D03*
X113030000Y-88265000D03*
X113030000Y-85979000D03*
X99060000Y-91440000D03*
X99060000Y-88265000D03*
X104140000Y-88265000D03*
X108585000Y-85090000D03*
X108585000Y-88265000D03*
X109347000Y-95631000D03*
X108458000Y-93218000D03*
X105283000Y-96393000D03*
X107823000Y-100457000D03*
X105410000Y-101600000D03*
X99060000Y-96520000D03*
X102870000Y-100330000D03*
X99060000Y-101600000D03*
X102870000Y-105156000D03*
X107823000Y-108077000D03*
X105410000Y-106680000D03*
X101473000Y-108077000D03*
X99060000Y-106680000D03*
X99060000Y-111760000D03*
X105410000Y-111760000D03*
X111760000Y-111760000D03*
X118110000Y-111760000D03*
X124460000Y-110363000D03*
X124460000Y-112649000D03*
X117729000Y-116840000D03*
X114554000Y-116840000D03*
X109220000Y-116840000D03*
X106680000Y-116840000D03*
X102870000Y-116840000D03*
X99060000Y-116840000D03*
X99060000Y-127000000D03*
X104775000Y-127000000D03*
X109855000Y-127000000D03*
X114935000Y-127000000D03*
X120015000Y-127000000D03*
X125095000Y-127000000D03*
X160655000Y-112395000D03*
X160655000Y-116840000D03*
X160655000Y-127000000D03*
X155575000Y-127000000D03*
X150495000Y-127000000D03*
X145415000Y-127000000D03*
X140335000Y-127000000D03*
X135255000Y-127000000D03*
X130175000Y-127000000D03*
X130810000Y-112014000D03*
X126746000Y-116840000D03*
X129794000Y-116840000D03*
X133096000Y-116840000D03*
X136144000Y-116840000D03*
X139446000Y-116840000D03*
X142494000Y-116840000D03*
X145415000Y-116840000D03*
X150495000Y-116840000D03*
X155575000Y-116840000D03*
X137160000Y-111760000D03*
X143510000Y-111760000D03*
X155575000Y-112395000D03*
X150495000Y-112395000D03*
X146050000Y-112395000D03*
X126873000Y-108077000D03*
X126873000Y-100457000D03*
X126746000Y-96647000D03*
X127635000Y-91948000D03*
X130810000Y-108966000D03*
X130810000Y-105918000D03*
X139573000Y-108077000D03*
X137160000Y-106680000D03*
X139700000Y-103505000D03*
X137541000Y-100330000D03*
X133223000Y-100457000D03*
X130810000Y-101600000D03*
X130810000Y-98425000D03*
X130810000Y-94234000D03*
X133985000Y-94234000D03*
X137922000Y-97282000D03*
X137795000Y-94361000D03*
X143510000Y-106680000D03*
X143510000Y-101600000D03*
X146050000Y-107315000D03*
X146050000Y-102235000D03*
X146050000Y-97155000D03*
X147955000Y-94615000D03*
X146050000Y-94615000D03*
X141605000Y-93980000D03*
X147955000Y-89535000D03*
X141605000Y-89535000D03*
X147955000Y-84455000D03*
X141605000Y-84455000D03*
X147955000Y-79375000D03*
X141605000Y-79375000D03*
X147955000Y-74295000D03*
X141605000Y-74295000D03*
X147955000Y-68580000D03*
X124714000Y-77724000D03*
X121666000Y-78359000D03*
X129540000Y-58420000D03*
X135001000Y-66548000D03*
X135001000Y-64516000D03*
X135001000Y-62865000D03*
X134620000Y-58420000D03*
X139700000Y-58420000D03*
X144780000Y-58420000D03*
X154940000Y-66040000D03*
X160020000Y-66040000D03*
X160020000Y-58420000D03*
X154940000Y-58420000D03*
X149860000Y-59690000D03*
X149860000Y-64770000D03*
X144780000Y-66040000D03*
X139700000Y-66040000D03*
X129413000Y-85852000D03*
X129413000Y-88519000D03*
X129413000Y-91440000D03*
X133223000Y-92583000D03*
X133604000Y-89662000D03*
X135001000Y-92583000D03*
X137414000Y-92583000D03*
X139700000Y-92583000D03*
X139700000Y-90170000D03*
X139700000Y-86360000D03*
X139700000Y-81280000D03*
X139700000Y-71120000D03*
X139700000Y-76200000D03*
X136525000Y-78867000D03*
X133477000Y-79248000D03*
X134620000Y-73660000D03*
X133350000Y-76200000D03*
X129540000Y-76200000D03*
X129413000Y-79248000D03*
X124714000Y-76581000D03*
X124714000Y-78994000D03*
X121666000Y-79121000D03*
X121666000Y-77597000D03*
X106680000Y-86360000D03*
X111506000Y-82550000D03*
X104140000Y-81407000D03*
X101600000Y-83820000D03*
X104140000Y-86360000D03*
X99060000Y-86360000D03*
X98806000Y-81280000D03*
X98806000Y-76200000D03*
X99060000Y-71120000D03*
X100380800Y-66954400D03*
X100431600Y-64262000D03*
D12*
X151305000Y-67030000D03*
D13*
X148055000Y-62230000D03*
X154305000Y-62230000D03*
D12*
X151305000Y-57430000D03*
D14*
X99695000Y-57785000D03*
D15*
X102235000Y-57785000D03*
X104775000Y-57785000D03*
X107315000Y-57785000D03*
X109855000Y-57785000D03*
X112395000Y-57785000D03*
X114935000Y-57785000D03*
X117475000Y-57785000D03*
X120015000Y-57785000D03*
X122555000Y-57785000D03*
X125095000Y-57785000D03*
D16*
X100965000Y-121920000D03*
X106045000Y-121920000D03*
X111125000Y-121920000D03*
X116205000Y-121920000D03*
X121285000Y-121920000D03*
X126365000Y-121920000D03*
X133350000Y-121920000D03*
X138430000Y-121920000D03*
X143510000Y-121920000D03*
X148590000Y-121920000D03*
X153670000Y-121920000D03*
X158750000Y-121920000D03*
X155575000Y-106045000D03*
X155575000Y-100965000D03*
D17*
X116840000Y-81915000D03*
D16*
X158715000Y-88050000D03*
X158715000Y-77050000D03*
X144815000Y-77050000D03*
X144815000Y-88050000D03*
D11*
X100431600Y-60045600D03*
X141605000Y-68580000D03*
X147955000Y-79375000D03*
X117602000Y-116840000D03*
X147955000Y-89535000D03*
X137160000Y-111760000D03*
X154940000Y-66040000D03*
X111506000Y-82550000D03*
X98806000Y-81280000D03*
X104140000Y-86360000D03*
X99060000Y-86360000D03*
X104140000Y-81407000D03*
X101600000Y-83820000D03*
X134620000Y-73660000D03*
X106680000Y-86360000D03*
X136525000Y-84455000D03*
X112522000Y-78994000D03*
X136525000Y-65405000D03*
X121920000Y-72771000D03*
X121920000Y-68961000D03*
X121285000Y-81534000D03*
X133477000Y-68961000D03*
X129032000Y-68961000D03*
X124587000Y-68961000D03*
X120142000Y-68961000D03*
X115697000Y-68961000D03*
X111252000Y-68961000D03*
X106807000Y-68961000D03*
X102362000Y-68961000D03*
X133477000Y-61214000D03*
X102362000Y-61214000D03*
X106807000Y-61214000D03*
X111252000Y-61214000D03*
X115697000Y-61214000D03*
X120142000Y-61214000D03*
X124587000Y-61214000D03*
X129032000Y-61214000D03*
X141478000Y-99822000D03*
X121158000Y-111506000D03*
D18*
X137795000Y-94107000D02*
X137795000Y-93980000D01*
X133985000Y-94107000D02*
X133985000Y-93980000D01*
X137795000Y-93980000D02*
X141605000Y-93980000D01*
X127000000Y-116840000D02*
X126873000Y-116840000D01*
X127000000Y-96520000D02*
X126746000Y-96520000D01*
X130810000Y-109220000D02*
X130810000Y-109093000D01*
X99060000Y-86360000D02*
X98806000Y-86106000D01*
X103886000Y-86614000D02*
X99314000Y-86614000D01*
X99314000Y-86614000D02*
X99060000Y-86360000D01*
X103886000Y-86614000D02*
X104140000Y-86360000D01*
X98806000Y-86106000D02*
X98806000Y-81280000D01*
X104140000Y-83820000D02*
X101600000Y-83820000D01*
X104140000Y-86360000D02*
X104140000Y-83820000D01*
X104140000Y-83820000D02*
X104140000Y-81407000D01*
X104140000Y-81407000D02*
X104140000Y-81280000D01*
X106680000Y-86360000D02*
X104140000Y-86360000D01*
D19*
X121285000Y-81534000D02*
X123190000Y-79629000D01*
X123190000Y-74041000D02*
X121920000Y-72771000D01*
X123190000Y-79629000D02*
X123190000Y-74041000D01*
X99060000Y-58420000D02*
X99060000Y-68453000D01*
X99060000Y-68453000D02*
X99568000Y-68961000D01*
X99568000Y-68961000D02*
X102362000Y-68961000D01*
X99060000Y-58420000D02*
X99695000Y-57785000D01*
X112522000Y-68961000D02*
X112522000Y-78994000D01*
X115697000Y-68961000D02*
X112522000Y-68961000D01*
X112522000Y-68961000D02*
X111252000Y-68961000D01*
X133477000Y-68961000D02*
X135509000Y-68961000D01*
X137795000Y-62230000D02*
X148055000Y-62230000D01*
X136525000Y-63500000D02*
X137795000Y-62230000D01*
X136525000Y-67945000D02*
X136525000Y-65405000D01*
X136525000Y-65405000D02*
X136525000Y-63500000D01*
X135509000Y-68961000D02*
X136525000Y-67945000D01*
X106807000Y-68961000D02*
X102362000Y-68961000D01*
X111252000Y-68961000D02*
X106807000Y-68961000D01*
X120142000Y-68961000D02*
X115697000Y-68961000D01*
X124587000Y-68961000D02*
X121920000Y-68961000D01*
X121920000Y-68961000D02*
X120142000Y-68961000D01*
X133477000Y-68961000D02*
X129032000Y-68961000D01*
X129032000Y-68961000D02*
X124587000Y-68961000D01*
X102235000Y-61087000D02*
X102362000Y-61214000D01*
X102235000Y-57785000D02*
X102235000Y-61087000D01*
X129032000Y-61214000D02*
X133477000Y-61214000D01*
X124587000Y-61214000D02*
X129032000Y-61214000D01*
X120142000Y-61214000D02*
X124587000Y-61214000D01*
X115697000Y-61214000D02*
X120142000Y-61214000D01*
X111252000Y-61214000D02*
X115697000Y-61214000D01*
X102362000Y-61214000D02*
X106807000Y-61214000D01*
X106807000Y-61214000D02*
X111252000Y-61214000D01*
D18*
X129794000Y-111506000D02*
X121158000Y-111506000D01*
X141478000Y-99822000D02*
X129794000Y-111506000D01*
D20*
G36*
X148463000Y-95123000D02*
X146685000Y-95123000D01*
X146649619Y-95128028D01*
X146617039Y-95142714D01*
X146589840Y-95165895D01*
X146570177Y-95195736D01*
X146559605Y-95229873D01*
X146558000Y-95250000D01*
X146558000Y-111760000D01*
X146563028Y-111795381D01*
X146577714Y-111827961D01*
X146600895Y-111855160D01*
X146630736Y-111874823D01*
X146664873Y-111885395D01*
X146685000Y-111887000D01*
X161163000Y-111887000D01*
X161163000Y-127508000D01*
X98552000Y-127508000D01*
X98552000Y-122065884D01*
X99227719Y-122065884D01*
X99289141Y-122400545D01*
X99414396Y-122716902D01*
X99598713Y-123002906D01*
X99835071Y-123247662D01*
X100114468Y-123441848D01*
X100426261Y-123578067D01*
X100758575Y-123651131D01*
X101098752Y-123658257D01*
X101433833Y-123599173D01*
X101751058Y-123476130D01*
X102038341Y-123293814D01*
X102213815Y-123126712D01*
X105017893Y-123126712D01*
X105125726Y-123401338D01*
X105432384Y-123552216D01*
X105762585Y-123640369D01*
X106103639Y-123662409D01*
X106442439Y-123617489D01*
X106765966Y-123507336D01*
X106964274Y-123401338D01*
X107072107Y-123126712D01*
X106045000Y-122099605D01*
X105017893Y-123126712D01*
X102213815Y-123126712D01*
X102284741Y-123059170D01*
X102480873Y-122781136D01*
X102619266Y-122470301D01*
X102694648Y-122138505D01*
X102696880Y-121978639D01*
X104302591Y-121978639D01*
X104347511Y-122317439D01*
X104457664Y-122640966D01*
X104563662Y-122839274D01*
X104838288Y-122947107D01*
X105865395Y-121920000D01*
X106224605Y-121920000D01*
X107251712Y-122947107D01*
X107526338Y-122839274D01*
X107677216Y-122532616D01*
X107765369Y-122202415D01*
X107774192Y-122065884D01*
X109387719Y-122065884D01*
X109449141Y-122400545D01*
X109574396Y-122716902D01*
X109758713Y-123002906D01*
X109995071Y-123247662D01*
X110274468Y-123441848D01*
X110586261Y-123578067D01*
X110918575Y-123651131D01*
X111258752Y-123658257D01*
X111593833Y-123599173D01*
X111911058Y-123476130D01*
X112198341Y-123293814D01*
X112373815Y-123126712D01*
X115177893Y-123126712D01*
X115285726Y-123401338D01*
X115592384Y-123552216D01*
X115922585Y-123640369D01*
X116263639Y-123662409D01*
X116602439Y-123617489D01*
X116925966Y-123507336D01*
X117124274Y-123401338D01*
X117232107Y-123126712D01*
X116205000Y-122099605D01*
X115177893Y-123126712D01*
X112373815Y-123126712D01*
X112444741Y-123059170D01*
X112640873Y-122781136D01*
X112779266Y-122470301D01*
X112854648Y-122138505D01*
X112856880Y-121978639D01*
X114462591Y-121978639D01*
X114507511Y-122317439D01*
X114617664Y-122640966D01*
X114723662Y-122839274D01*
X114998288Y-122947107D01*
X116025395Y-121920000D01*
X116384605Y-121920000D01*
X117411712Y-122947107D01*
X117686338Y-122839274D01*
X117837216Y-122532616D01*
X117925369Y-122202415D01*
X117934192Y-122065884D01*
X119547719Y-122065884D01*
X119609141Y-122400545D01*
X119734396Y-122716902D01*
X119918713Y-123002906D01*
X120155071Y-123247662D01*
X120434468Y-123441848D01*
X120746261Y-123578067D01*
X121078575Y-123651131D01*
X121418752Y-123658257D01*
X121753833Y-123599173D01*
X122071058Y-123476130D01*
X122358341Y-123293814D01*
X122533815Y-123126712D01*
X125337893Y-123126712D01*
X125445726Y-123401338D01*
X125752384Y-123552216D01*
X126082585Y-123640369D01*
X126423639Y-123662409D01*
X126762439Y-123617489D01*
X127085966Y-123507336D01*
X127284274Y-123401338D01*
X127392107Y-123126712D01*
X126365000Y-122099605D01*
X125337893Y-123126712D01*
X122533815Y-123126712D01*
X122604741Y-123059170D01*
X122800873Y-122781136D01*
X122939266Y-122470301D01*
X123014648Y-122138505D01*
X123016880Y-121978639D01*
X124622591Y-121978639D01*
X124667511Y-122317439D01*
X124777664Y-122640966D01*
X124883662Y-122839274D01*
X125158288Y-122947107D01*
X126185395Y-121920000D01*
X126544605Y-121920000D01*
X127571712Y-122947107D01*
X127846338Y-122839274D01*
X127997216Y-122532616D01*
X128085369Y-122202415D01*
X128094192Y-122065884D01*
X131612719Y-122065884D01*
X131674141Y-122400545D01*
X131799396Y-122716902D01*
X131983713Y-123002906D01*
X132220071Y-123247662D01*
X132499468Y-123441848D01*
X132811261Y-123578067D01*
X133143575Y-123651131D01*
X133483752Y-123658257D01*
X133818833Y-123599173D01*
X134136058Y-123476130D01*
X134423341Y-123293814D01*
X134598815Y-123126712D01*
X137402893Y-123126712D01*
X137510726Y-123401338D01*
X137817384Y-123552216D01*
X138147585Y-123640369D01*
X138488639Y-123662409D01*
X138827439Y-123617489D01*
X139150966Y-123507336D01*
X139349274Y-123401338D01*
X139457107Y-123126712D01*
X138430000Y-122099605D01*
X137402893Y-123126712D01*
X134598815Y-123126712D01*
X134669741Y-123059170D01*
X134865873Y-122781136D01*
X135004266Y-122470301D01*
X135079648Y-122138505D01*
X135081880Y-121978639D01*
X136687591Y-121978639D01*
X136732511Y-122317439D01*
X136842664Y-122640966D01*
X136948662Y-122839274D01*
X137223288Y-122947107D01*
X138250395Y-121920000D01*
X138609605Y-121920000D01*
X139636712Y-122947107D01*
X139911338Y-122839274D01*
X140062216Y-122532616D01*
X140150369Y-122202415D01*
X140159192Y-122065884D01*
X141772719Y-122065884D01*
X141834141Y-122400545D01*
X141959396Y-122716902D01*
X142143713Y-123002906D01*
X142380071Y-123247662D01*
X142659468Y-123441848D01*
X142971261Y-123578067D01*
X143303575Y-123651131D01*
X143643752Y-123658257D01*
X143978833Y-123599173D01*
X144296058Y-123476130D01*
X144583341Y-123293814D01*
X144758815Y-123126712D01*
X147562893Y-123126712D01*
X147670726Y-123401338D01*
X147977384Y-123552216D01*
X148307585Y-123640369D01*
X148648639Y-123662409D01*
X148987439Y-123617489D01*
X149310966Y-123507336D01*
X149509274Y-123401338D01*
X149617107Y-123126712D01*
X148590000Y-122099605D01*
X147562893Y-123126712D01*
X144758815Y-123126712D01*
X144829741Y-123059170D01*
X145025873Y-122781136D01*
X145164266Y-122470301D01*
X145239648Y-122138505D01*
X145241880Y-121978639D01*
X146847591Y-121978639D01*
X146892511Y-122317439D01*
X147002664Y-122640966D01*
X147108662Y-122839274D01*
X147383288Y-122947107D01*
X148410395Y-121920000D01*
X148769605Y-121920000D01*
X149796712Y-122947107D01*
X150071338Y-122839274D01*
X150222216Y-122532616D01*
X150310369Y-122202415D01*
X150319192Y-122065884D01*
X151932719Y-122065884D01*
X151994141Y-122400545D01*
X152119396Y-122716902D01*
X152303713Y-123002906D01*
X152540071Y-123247662D01*
X152819468Y-123441848D01*
X153131261Y-123578067D01*
X153463575Y-123651131D01*
X153803752Y-123658257D01*
X154138833Y-123599173D01*
X154456058Y-123476130D01*
X154743341Y-123293814D01*
X154918815Y-123126712D01*
X157722893Y-123126712D01*
X157830726Y-123401338D01*
X158137384Y-123552216D01*
X158467585Y-123640369D01*
X158808639Y-123662409D01*
X159147439Y-123617489D01*
X159470966Y-123507336D01*
X159669274Y-123401338D01*
X159777107Y-123126712D01*
X158750000Y-122099605D01*
X157722893Y-123126712D01*
X154918815Y-123126712D01*
X154989741Y-123059170D01*
X155185873Y-122781136D01*
X155324266Y-122470301D01*
X155399648Y-122138505D01*
X155401880Y-121978639D01*
X157007591Y-121978639D01*
X157052511Y-122317439D01*
X157162664Y-122640966D01*
X157268662Y-122839274D01*
X157543288Y-122947107D01*
X158570395Y-121920000D01*
X158929605Y-121920000D01*
X159956712Y-122947107D01*
X160231338Y-122839274D01*
X160382216Y-122532616D01*
X160470369Y-122202415D01*
X160492409Y-121861361D01*
X160447489Y-121522561D01*
X160337336Y-121199034D01*
X160231338Y-121000726D01*
X159956712Y-120892893D01*
X158929605Y-121920000D01*
X158570395Y-121920000D01*
X157543288Y-120892893D01*
X157268662Y-121000726D01*
X157117784Y-121307384D01*
X157029631Y-121637585D01*
X157007591Y-121978639D01*
X155401880Y-121978639D01*
X155405074Y-121749874D01*
X155338986Y-121416103D01*
X155209326Y-121101526D01*
X155021034Y-120818123D01*
X154916929Y-120713288D01*
X157722893Y-120713288D01*
X158750000Y-121740395D01*
X159777107Y-120713288D01*
X159669274Y-120438662D01*
X159362616Y-120287784D01*
X159032415Y-120199631D01*
X158691361Y-120177591D01*
X158352561Y-120222511D01*
X158029034Y-120332664D01*
X157830726Y-120438662D01*
X157722893Y-120713288D01*
X154916929Y-120713288D01*
X154781282Y-120576691D01*
X154499201Y-120386425D01*
X154185536Y-120254572D01*
X153852234Y-120186156D01*
X153511992Y-120183780D01*
X153177767Y-120247537D01*
X152862292Y-120374997D01*
X152577582Y-120561306D01*
X152334482Y-120799367D01*
X152142251Y-121080113D01*
X152008212Y-121392850D01*
X151937470Y-121725666D01*
X151932719Y-122065884D01*
X150319192Y-122065884D01*
X150332409Y-121861361D01*
X150287489Y-121522561D01*
X150177336Y-121199034D01*
X150071338Y-121000726D01*
X149796712Y-120892893D01*
X148769605Y-121920000D01*
X148410395Y-121920000D01*
X147383288Y-120892893D01*
X147108662Y-121000726D01*
X146957784Y-121307384D01*
X146869631Y-121637585D01*
X146847591Y-121978639D01*
X145241880Y-121978639D01*
X145245074Y-121749874D01*
X145178986Y-121416103D01*
X145049326Y-121101526D01*
X144861034Y-120818123D01*
X144756929Y-120713288D01*
X147562893Y-120713288D01*
X148590000Y-121740395D01*
X149617107Y-120713288D01*
X149509274Y-120438662D01*
X149202616Y-120287784D01*
X148872415Y-120199631D01*
X148531361Y-120177591D01*
X148192561Y-120222511D01*
X147869034Y-120332664D01*
X147670726Y-120438662D01*
X147562893Y-120713288D01*
X144756929Y-120713288D01*
X144621282Y-120576691D01*
X144339201Y-120386425D01*
X144025536Y-120254572D01*
X143692234Y-120186156D01*
X143351992Y-120183780D01*
X143017767Y-120247537D01*
X142702292Y-120374997D01*
X142417582Y-120561306D01*
X142174482Y-120799367D01*
X141982251Y-121080113D01*
X141848212Y-121392850D01*
X141777470Y-121725666D01*
X141772719Y-122065884D01*
X140159192Y-122065884D01*
X140172409Y-121861361D01*
X140127489Y-121522561D01*
X140017336Y-121199034D01*
X139911338Y-121000726D01*
X139636712Y-120892893D01*
X138609605Y-121920000D01*
X138250395Y-121920000D01*
X137223288Y-120892893D01*
X136948662Y-121000726D01*
X136797784Y-121307384D01*
X136709631Y-121637585D01*
X136687591Y-121978639D01*
X135081880Y-121978639D01*
X135085074Y-121749874D01*
X135018986Y-121416103D01*
X134889326Y-121101526D01*
X134701034Y-120818123D01*
X134596929Y-120713288D01*
X137402893Y-120713288D01*
X138430000Y-121740395D01*
X139457107Y-120713288D01*
X139349274Y-120438662D01*
X139042616Y-120287784D01*
X138712415Y-120199631D01*
X138371361Y-120177591D01*
X138032561Y-120222511D01*
X137709034Y-120332664D01*
X137510726Y-120438662D01*
X137402893Y-120713288D01*
X134596929Y-120713288D01*
X134461282Y-120576691D01*
X134179201Y-120386425D01*
X133865536Y-120254572D01*
X133532234Y-120186156D01*
X133191992Y-120183780D01*
X132857767Y-120247537D01*
X132542292Y-120374997D01*
X132257582Y-120561306D01*
X132014482Y-120799367D01*
X131822251Y-121080113D01*
X131688212Y-121392850D01*
X131617470Y-121725666D01*
X131612719Y-122065884D01*
X128094192Y-122065884D01*
X128107409Y-121861361D01*
X128062489Y-121522561D01*
X127952336Y-121199034D01*
X127846338Y-121000726D01*
X127571712Y-120892893D01*
X126544605Y-121920000D01*
X126185395Y-121920000D01*
X125158288Y-120892893D01*
X124883662Y-121000726D01*
X124732784Y-121307384D01*
X124644631Y-121637585D01*
X124622591Y-121978639D01*
X123016880Y-121978639D01*
X123020074Y-121749874D01*
X122953986Y-121416103D01*
X122824326Y-121101526D01*
X122636034Y-120818123D01*
X122531929Y-120713288D01*
X125337893Y-120713288D01*
X126365000Y-121740395D01*
X127392107Y-120713288D01*
X127284274Y-120438662D01*
X126977616Y-120287784D01*
X126647415Y-120199631D01*
X126306361Y-120177591D01*
X125967561Y-120222511D01*
X125644034Y-120332664D01*
X125445726Y-120438662D01*
X125337893Y-120713288D01*
X122531929Y-120713288D01*
X122396282Y-120576691D01*
X122114201Y-120386425D01*
X121800536Y-120254572D01*
X121467234Y-120186156D01*
X121126992Y-120183780D01*
X120792767Y-120247537D01*
X120477292Y-120374997D01*
X120192582Y-120561306D01*
X119949482Y-120799367D01*
X119757251Y-121080113D01*
X119623212Y-121392850D01*
X119552470Y-121725666D01*
X119547719Y-122065884D01*
X117934192Y-122065884D01*
X117947409Y-121861361D01*
X117902489Y-121522561D01*
X117792336Y-121199034D01*
X117686338Y-121000726D01*
X117411712Y-120892893D01*
X116384605Y-121920000D01*
X116025395Y-121920000D01*
X114998288Y-120892893D01*
X114723662Y-121000726D01*
X114572784Y-121307384D01*
X114484631Y-121637585D01*
X114462591Y-121978639D01*
X112856880Y-121978639D01*
X112860074Y-121749874D01*
X112793986Y-121416103D01*
X112664326Y-121101526D01*
X112476034Y-120818123D01*
X112371929Y-120713288D01*
X115177893Y-120713288D01*
X116205000Y-121740395D01*
X117232107Y-120713288D01*
X117124274Y-120438662D01*
X116817616Y-120287784D01*
X116487415Y-120199631D01*
X116146361Y-120177591D01*
X115807561Y-120222511D01*
X115484034Y-120332664D01*
X115285726Y-120438662D01*
X115177893Y-120713288D01*
X112371929Y-120713288D01*
X112236282Y-120576691D01*
X111954201Y-120386425D01*
X111640536Y-120254572D01*
X111307234Y-120186156D01*
X110966992Y-120183780D01*
X110632767Y-120247537D01*
X110317292Y-120374997D01*
X110032582Y-120561306D01*
X109789482Y-120799367D01*
X109597251Y-121080113D01*
X109463212Y-121392850D01*
X109392470Y-121725666D01*
X109387719Y-122065884D01*
X107774192Y-122065884D01*
X107787409Y-121861361D01*
X107742489Y-121522561D01*
X107632336Y-121199034D01*
X107526338Y-121000726D01*
X107251712Y-120892893D01*
X106224605Y-121920000D01*
X105865395Y-121920000D01*
X104838288Y-120892893D01*
X104563662Y-121000726D01*
X104412784Y-121307384D01*
X104324631Y-121637585D01*
X104302591Y-121978639D01*
X102696880Y-121978639D01*
X102700074Y-121749874D01*
X102633986Y-121416103D01*
X102504326Y-121101526D01*
X102316034Y-120818123D01*
X102211929Y-120713288D01*
X105017893Y-120713288D01*
X106045000Y-121740395D01*
X107072107Y-120713288D01*
X106964274Y-120438662D01*
X106657616Y-120287784D01*
X106327415Y-120199631D01*
X105986361Y-120177591D01*
X105647561Y-120222511D01*
X105324034Y-120332664D01*
X105125726Y-120438662D01*
X105017893Y-120713288D01*
X102211929Y-120713288D01*
X102076282Y-120576691D01*
X101794201Y-120386425D01*
X101480536Y-120254572D01*
X101147234Y-120186156D01*
X100806992Y-120183780D01*
X100472767Y-120247537D01*
X100157292Y-120374997D01*
X99872582Y-120561306D01*
X99629482Y-120799367D01*
X99437251Y-121080113D01*
X99303212Y-121392850D01*
X99232470Y-121725666D01*
X99227719Y-122065884D01*
X98552000Y-122065884D01*
X98552000Y-111584617D01*
X120221771Y-111584617D01*
X120254872Y-111764968D01*
X120322372Y-111935454D01*
X120421701Y-112089583D01*
X120549076Y-112221484D01*
X120699644Y-112326131D01*
X120867671Y-112399540D01*
X121046757Y-112438915D01*
X121230079Y-112442755D01*
X121410657Y-112410914D01*
X121581610Y-112344606D01*
X121705473Y-112266000D01*
X129794000Y-112266000D01*
X129863877Y-112259149D01*
X129933803Y-112253031D01*
X129937641Y-112251916D01*
X129941618Y-112251526D01*
X130008821Y-112231236D01*
X130076240Y-112211649D01*
X130079788Y-112209810D01*
X130083613Y-112208655D01*
X130145591Y-112175701D01*
X130207925Y-112143390D01*
X130211048Y-112140897D01*
X130214578Y-112139020D01*
X130268987Y-112094645D01*
X130323846Y-112050852D01*
X130329406Y-112045369D01*
X130329522Y-112045274D01*
X130329611Y-112045166D01*
X130331401Y-112043401D01*
X141630169Y-100744633D01*
X141730657Y-100726914D01*
X141901610Y-100660606D01*
X142056429Y-100562355D01*
X142189215Y-100435904D01*
X142294911Y-100286070D01*
X142369492Y-100118560D01*
X142410116Y-99939754D01*
X142413040Y-99730319D01*
X142377425Y-99550448D01*
X142307550Y-99380920D01*
X142206079Y-99228193D01*
X142076875Y-99098084D01*
X141924860Y-98995549D01*
X141755825Y-98924493D01*
X141576207Y-98887623D01*
X141392849Y-98886343D01*
X141212733Y-98920701D01*
X141042722Y-98989390D01*
X140889291Y-99089793D01*
X140758283Y-99218086D01*
X140654689Y-99369381D01*
X140582454Y-99537916D01*
X140554158Y-99671040D01*
X129479198Y-110746000D01*
X121703378Y-110746000D01*
X121604860Y-110679549D01*
X121435825Y-110608493D01*
X121256207Y-110571623D01*
X121072849Y-110570343D01*
X120892733Y-110604701D01*
X120722722Y-110673390D01*
X120569291Y-110773793D01*
X120438283Y-110902086D01*
X120334689Y-111053381D01*
X120262454Y-111221916D01*
X120224331Y-111401272D01*
X120221771Y-111584617D01*
X98552000Y-111584617D01*
X98552000Y-87757000D01*
X107950000Y-87757000D01*
X107985381Y-87751972D01*
X108017961Y-87737286D01*
X108045160Y-87714105D01*
X108064823Y-87684264D01*
X108075395Y-87650127D01*
X108077000Y-87630000D01*
X108077000Y-84582000D01*
X113157000Y-84582000D01*
X113157000Y-85471000D01*
X113162028Y-85506381D01*
X113176714Y-85538961D01*
X113199895Y-85566160D01*
X113229736Y-85585823D01*
X113263873Y-85596395D01*
X113284000Y-85598000D01*
X120396000Y-85598000D01*
X120431381Y-85592972D01*
X120463961Y-85578286D01*
X120491160Y-85555105D01*
X120510823Y-85525264D01*
X120521395Y-85491127D01*
X120523000Y-85471000D01*
X120523000Y-82677000D01*
X128143000Y-82677000D01*
X128143000Y-92329000D01*
X128148028Y-92364381D01*
X128162714Y-92396961D01*
X128180197Y-92418803D01*
X129577197Y-93815803D01*
X129605771Y-93837266D01*
X129639193Y-93849918D01*
X129667000Y-93853000D01*
X140970000Y-93853000D01*
X141005381Y-93847972D01*
X141037961Y-93833286D01*
X141065160Y-93810105D01*
X141084823Y-93780264D01*
X141095395Y-93746127D01*
X141097000Y-93726000D01*
X141097000Y-88195884D01*
X143077719Y-88195884D01*
X143139141Y-88530545D01*
X143264396Y-88846902D01*
X143448713Y-89132906D01*
X143685071Y-89377662D01*
X143964468Y-89571848D01*
X144276261Y-89708067D01*
X144608575Y-89781131D01*
X144948752Y-89788257D01*
X145283833Y-89729173D01*
X145601058Y-89606130D01*
X145888341Y-89423814D01*
X146134741Y-89189170D01*
X146330873Y-88911136D01*
X146469266Y-88600301D01*
X146544648Y-88268505D01*
X146550074Y-87879874D01*
X146483986Y-87546103D01*
X146354326Y-87231526D01*
X146166034Y-86948123D01*
X145926282Y-86706691D01*
X145644201Y-86516425D01*
X145330536Y-86384572D01*
X144997234Y-86316156D01*
X144656992Y-86313780D01*
X144322767Y-86377537D01*
X144007292Y-86504997D01*
X143722582Y-86691306D01*
X143479482Y-86929367D01*
X143287251Y-87210113D01*
X143153212Y-87522850D01*
X143082470Y-87855666D01*
X143077719Y-88195884D01*
X141097000Y-88195884D01*
X141097000Y-78256712D01*
X143787893Y-78256712D01*
X143895726Y-78531338D01*
X144202384Y-78682216D01*
X144532585Y-78770369D01*
X144873639Y-78792409D01*
X145212439Y-78747489D01*
X145535966Y-78637336D01*
X145734274Y-78531338D01*
X145842107Y-78256712D01*
X144815000Y-77229605D01*
X143787893Y-78256712D01*
X141097000Y-78256712D01*
X141097000Y-77108639D01*
X143072591Y-77108639D01*
X143117511Y-77447439D01*
X143227664Y-77770966D01*
X143333662Y-77969274D01*
X143608288Y-78077107D01*
X144635395Y-77050000D01*
X144994605Y-77050000D01*
X146021712Y-78077107D01*
X146296338Y-77969274D01*
X146447216Y-77662616D01*
X146535369Y-77332415D01*
X146557409Y-76991361D01*
X146512489Y-76652561D01*
X146402336Y-76329034D01*
X146296338Y-76130726D01*
X146021712Y-76022893D01*
X144994605Y-77050000D01*
X144635395Y-77050000D01*
X143608288Y-76022893D01*
X143333662Y-76130726D01*
X143182784Y-76437384D01*
X143094631Y-76767585D01*
X143072591Y-77108639D01*
X141097000Y-77108639D01*
X141097000Y-75843288D01*
X143787893Y-75843288D01*
X144815000Y-76870395D01*
X145842107Y-75843288D01*
X145734274Y-75568662D01*
X145427616Y-75417784D01*
X145097415Y-75329631D01*
X144756361Y-75307591D01*
X144417561Y-75352511D01*
X144094034Y-75462664D01*
X143895726Y-75568662D01*
X143787893Y-75843288D01*
X141097000Y-75843288D01*
X141097000Y-68072000D01*
X148463000Y-68072000D01*
X148463000Y-95123000D01*
X148463000Y-95123000D01*
G37*
X148463000Y-95123000D02*
X146685000Y-95123000D01*
X146649619Y-95128028D01*
X146617039Y-95142714D01*
X146589840Y-95165895D01*
X146570177Y-95195736D01*
X146559605Y-95229873D01*
X146558000Y-95250000D01*
X146558000Y-111760000D01*
X146563028Y-111795381D01*
X146577714Y-111827961D01*
X146600895Y-111855160D01*
X146630736Y-111874823D01*
X146664873Y-111885395D01*
X146685000Y-111887000D01*
X161163000Y-111887000D01*
X161163000Y-127508000D01*
X98552000Y-127508000D01*
X98552000Y-122065884D01*
X99227719Y-122065884D01*
X99289141Y-122400545D01*
X99414396Y-122716902D01*
X99598713Y-123002906D01*
X99835071Y-123247662D01*
X100114468Y-123441848D01*
X100426261Y-123578067D01*
X100758575Y-123651131D01*
X101098752Y-123658257D01*
X101433833Y-123599173D01*
X101751058Y-123476130D01*
X102038341Y-123293814D01*
X102213815Y-123126712D01*
X105017893Y-123126712D01*
X105125726Y-123401338D01*
X105432384Y-123552216D01*
X105762585Y-123640369D01*
X106103639Y-123662409D01*
X106442439Y-123617489D01*
X106765966Y-123507336D01*
X106964274Y-123401338D01*
X107072107Y-123126712D01*
X106045000Y-122099605D01*
X105017893Y-123126712D01*
X102213815Y-123126712D01*
X102284741Y-123059170D01*
X102480873Y-122781136D01*
X102619266Y-122470301D01*
X102694648Y-122138505D01*
X102696880Y-121978639D01*
X104302591Y-121978639D01*
X104347511Y-122317439D01*
X104457664Y-122640966D01*
X104563662Y-122839274D01*
X104838288Y-122947107D01*
X105865395Y-121920000D01*
X106224605Y-121920000D01*
X107251712Y-122947107D01*
X107526338Y-122839274D01*
X107677216Y-122532616D01*
X107765369Y-122202415D01*
X107774192Y-122065884D01*
X109387719Y-122065884D01*
X109449141Y-122400545D01*
X109574396Y-122716902D01*
X109758713Y-123002906D01*
X109995071Y-123247662D01*
X110274468Y-123441848D01*
X110586261Y-123578067D01*
X110918575Y-123651131D01*
X111258752Y-123658257D01*
X111593833Y-123599173D01*
X111911058Y-123476130D01*
X112198341Y-123293814D01*
X112373815Y-123126712D01*
X115177893Y-123126712D01*
X115285726Y-123401338D01*
X115592384Y-123552216D01*
X115922585Y-123640369D01*
X116263639Y-123662409D01*
X116602439Y-123617489D01*
X116925966Y-123507336D01*
X117124274Y-123401338D01*
X117232107Y-123126712D01*
X116205000Y-122099605D01*
X115177893Y-123126712D01*
X112373815Y-123126712D01*
X112444741Y-123059170D01*
X112640873Y-122781136D01*
X112779266Y-122470301D01*
X112854648Y-122138505D01*
X112856880Y-121978639D01*
X114462591Y-121978639D01*
X114507511Y-122317439D01*
X114617664Y-122640966D01*
X114723662Y-122839274D01*
X114998288Y-122947107D01*
X116025395Y-121920000D01*
X116384605Y-121920000D01*
X117411712Y-122947107D01*
X117686338Y-122839274D01*
X117837216Y-122532616D01*
X117925369Y-122202415D01*
X117934192Y-122065884D01*
X119547719Y-122065884D01*
X119609141Y-122400545D01*
X119734396Y-122716902D01*
X119918713Y-123002906D01*
X120155071Y-123247662D01*
X120434468Y-123441848D01*
X120746261Y-123578067D01*
X121078575Y-123651131D01*
X121418752Y-123658257D01*
X121753833Y-123599173D01*
X122071058Y-123476130D01*
X122358341Y-123293814D01*
X122533815Y-123126712D01*
X125337893Y-123126712D01*
X125445726Y-123401338D01*
X125752384Y-123552216D01*
X126082585Y-123640369D01*
X126423639Y-123662409D01*
X126762439Y-123617489D01*
X127085966Y-123507336D01*
X127284274Y-123401338D01*
X127392107Y-123126712D01*
X126365000Y-122099605D01*
X125337893Y-123126712D01*
X122533815Y-123126712D01*
X122604741Y-123059170D01*
X122800873Y-122781136D01*
X122939266Y-122470301D01*
X123014648Y-122138505D01*
X123016880Y-121978639D01*
X124622591Y-121978639D01*
X124667511Y-122317439D01*
X124777664Y-122640966D01*
X124883662Y-122839274D01*
X125158288Y-122947107D01*
X126185395Y-121920000D01*
X126544605Y-121920000D01*
X127571712Y-122947107D01*
X127846338Y-122839274D01*
X127997216Y-122532616D01*
X128085369Y-122202415D01*
X128094192Y-122065884D01*
X131612719Y-122065884D01*
X131674141Y-122400545D01*
X131799396Y-122716902D01*
X131983713Y-123002906D01*
X132220071Y-123247662D01*
X132499468Y-123441848D01*
X132811261Y-123578067D01*
X133143575Y-123651131D01*
X133483752Y-123658257D01*
X133818833Y-123599173D01*
X134136058Y-123476130D01*
X134423341Y-123293814D01*
X134598815Y-123126712D01*
X137402893Y-123126712D01*
X137510726Y-123401338D01*
X137817384Y-123552216D01*
X138147585Y-123640369D01*
X138488639Y-123662409D01*
X138827439Y-123617489D01*
X139150966Y-123507336D01*
X139349274Y-123401338D01*
X139457107Y-123126712D01*
X138430000Y-122099605D01*
X137402893Y-123126712D01*
X134598815Y-123126712D01*
X134669741Y-123059170D01*
X134865873Y-122781136D01*
X135004266Y-122470301D01*
X135079648Y-122138505D01*
X135081880Y-121978639D01*
X136687591Y-121978639D01*
X136732511Y-122317439D01*
X136842664Y-122640966D01*
X136948662Y-122839274D01*
X137223288Y-122947107D01*
X138250395Y-121920000D01*
X138609605Y-121920000D01*
X139636712Y-122947107D01*
X139911338Y-122839274D01*
X140062216Y-122532616D01*
X140150369Y-122202415D01*
X140159192Y-122065884D01*
X141772719Y-122065884D01*
X141834141Y-122400545D01*
X141959396Y-122716902D01*
X142143713Y-123002906D01*
X142380071Y-123247662D01*
X142659468Y-123441848D01*
X142971261Y-123578067D01*
X143303575Y-123651131D01*
X143643752Y-123658257D01*
X143978833Y-123599173D01*
X144296058Y-123476130D01*
X144583341Y-123293814D01*
X144758815Y-123126712D01*
X147562893Y-123126712D01*
X147670726Y-123401338D01*
X147977384Y-123552216D01*
X148307585Y-123640369D01*
X148648639Y-123662409D01*
X148987439Y-123617489D01*
X149310966Y-123507336D01*
X149509274Y-123401338D01*
X149617107Y-123126712D01*
X148590000Y-122099605D01*
X147562893Y-123126712D01*
X144758815Y-123126712D01*
X144829741Y-123059170D01*
X145025873Y-122781136D01*
X145164266Y-122470301D01*
X145239648Y-122138505D01*
X145241880Y-121978639D01*
X146847591Y-121978639D01*
X146892511Y-122317439D01*
X147002664Y-122640966D01*
X147108662Y-122839274D01*
X147383288Y-122947107D01*
X148410395Y-121920000D01*
X148769605Y-121920000D01*
X149796712Y-122947107D01*
X150071338Y-122839274D01*
X150222216Y-122532616D01*
X150310369Y-122202415D01*
X150319192Y-122065884D01*
X151932719Y-122065884D01*
X151994141Y-122400545D01*
X152119396Y-122716902D01*
X152303713Y-123002906D01*
X152540071Y-123247662D01*
X152819468Y-123441848D01*
X153131261Y-123578067D01*
X153463575Y-123651131D01*
X153803752Y-123658257D01*
X154138833Y-123599173D01*
X154456058Y-123476130D01*
X154743341Y-123293814D01*
X154918815Y-123126712D01*
X157722893Y-123126712D01*
X157830726Y-123401338D01*
X158137384Y-123552216D01*
X158467585Y-123640369D01*
X158808639Y-123662409D01*
X159147439Y-123617489D01*
X159470966Y-123507336D01*
X159669274Y-123401338D01*
X159777107Y-123126712D01*
X158750000Y-122099605D01*
X157722893Y-123126712D01*
X154918815Y-123126712D01*
X154989741Y-123059170D01*
X155185873Y-122781136D01*
X155324266Y-122470301D01*
X155399648Y-122138505D01*
X155401880Y-121978639D01*
X157007591Y-121978639D01*
X157052511Y-122317439D01*
X157162664Y-122640966D01*
X157268662Y-122839274D01*
X157543288Y-122947107D01*
X158570395Y-121920000D01*
X158929605Y-121920000D01*
X159956712Y-122947107D01*
X160231338Y-122839274D01*
X160382216Y-122532616D01*
X160470369Y-122202415D01*
X160492409Y-121861361D01*
X160447489Y-121522561D01*
X160337336Y-121199034D01*
X160231338Y-121000726D01*
X159956712Y-120892893D01*
X158929605Y-121920000D01*
X158570395Y-121920000D01*
X157543288Y-120892893D01*
X157268662Y-121000726D01*
X157117784Y-121307384D01*
X157029631Y-121637585D01*
X157007591Y-121978639D01*
X155401880Y-121978639D01*
X155405074Y-121749874D01*
X155338986Y-121416103D01*
X155209326Y-121101526D01*
X155021034Y-120818123D01*
X154916929Y-120713288D01*
X157722893Y-120713288D01*
X158750000Y-121740395D01*
X159777107Y-120713288D01*
X159669274Y-120438662D01*
X159362616Y-120287784D01*
X159032415Y-120199631D01*
X158691361Y-120177591D01*
X158352561Y-120222511D01*
X158029034Y-120332664D01*
X157830726Y-120438662D01*
X157722893Y-120713288D01*
X154916929Y-120713288D01*
X154781282Y-120576691D01*
X154499201Y-120386425D01*
X154185536Y-120254572D01*
X153852234Y-120186156D01*
X153511992Y-120183780D01*
X153177767Y-120247537D01*
X152862292Y-120374997D01*
X152577582Y-120561306D01*
X152334482Y-120799367D01*
X152142251Y-121080113D01*
X152008212Y-121392850D01*
X151937470Y-121725666D01*
X151932719Y-122065884D01*
X150319192Y-122065884D01*
X150332409Y-121861361D01*
X150287489Y-121522561D01*
X150177336Y-121199034D01*
X150071338Y-121000726D01*
X149796712Y-120892893D01*
X148769605Y-121920000D01*
X148410395Y-121920000D01*
X147383288Y-120892893D01*
X147108662Y-121000726D01*
X146957784Y-121307384D01*
X146869631Y-121637585D01*
X146847591Y-121978639D01*
X145241880Y-121978639D01*
X145245074Y-121749874D01*
X145178986Y-121416103D01*
X145049326Y-121101526D01*
X144861034Y-120818123D01*
X144756929Y-120713288D01*
X147562893Y-120713288D01*
X148590000Y-121740395D01*
X149617107Y-120713288D01*
X149509274Y-120438662D01*
X149202616Y-120287784D01*
X148872415Y-120199631D01*
X148531361Y-120177591D01*
X148192561Y-120222511D01*
X147869034Y-120332664D01*
X147670726Y-120438662D01*
X147562893Y-120713288D01*
X144756929Y-120713288D01*
X144621282Y-120576691D01*
X144339201Y-120386425D01*
X144025536Y-120254572D01*
X143692234Y-120186156D01*
X143351992Y-120183780D01*
X143017767Y-120247537D01*
X142702292Y-120374997D01*
X142417582Y-120561306D01*
X142174482Y-120799367D01*
X141982251Y-121080113D01*
X141848212Y-121392850D01*
X141777470Y-121725666D01*
X141772719Y-122065884D01*
X140159192Y-122065884D01*
X140172409Y-121861361D01*
X140127489Y-121522561D01*
X140017336Y-121199034D01*
X139911338Y-121000726D01*
X139636712Y-120892893D01*
X138609605Y-121920000D01*
X138250395Y-121920000D01*
X137223288Y-120892893D01*
X136948662Y-121000726D01*
X136797784Y-121307384D01*
X136709631Y-121637585D01*
X136687591Y-121978639D01*
X135081880Y-121978639D01*
X135085074Y-121749874D01*
X135018986Y-121416103D01*
X134889326Y-121101526D01*
X134701034Y-120818123D01*
X134596929Y-120713288D01*
X137402893Y-120713288D01*
X138430000Y-121740395D01*
X139457107Y-120713288D01*
X139349274Y-120438662D01*
X139042616Y-120287784D01*
X138712415Y-120199631D01*
X138371361Y-120177591D01*
X138032561Y-120222511D01*
X137709034Y-120332664D01*
X137510726Y-120438662D01*
X137402893Y-120713288D01*
X134596929Y-120713288D01*
X134461282Y-120576691D01*
X134179201Y-120386425D01*
X133865536Y-120254572D01*
X133532234Y-120186156D01*
X133191992Y-120183780D01*
X132857767Y-120247537D01*
X132542292Y-120374997D01*
X132257582Y-120561306D01*
X132014482Y-120799367D01*
X131822251Y-121080113D01*
X131688212Y-121392850D01*
X131617470Y-121725666D01*
X131612719Y-122065884D01*
X128094192Y-122065884D01*
X128107409Y-121861361D01*
X128062489Y-121522561D01*
X127952336Y-121199034D01*
X127846338Y-121000726D01*
X127571712Y-120892893D01*
X126544605Y-121920000D01*
X126185395Y-121920000D01*
X125158288Y-120892893D01*
X124883662Y-121000726D01*
X124732784Y-121307384D01*
X124644631Y-121637585D01*
X124622591Y-121978639D01*
X123016880Y-121978639D01*
X123020074Y-121749874D01*
X122953986Y-121416103D01*
X122824326Y-121101526D01*
X122636034Y-120818123D01*
X122531929Y-120713288D01*
X125337893Y-120713288D01*
X126365000Y-121740395D01*
X127392107Y-120713288D01*
X127284274Y-120438662D01*
X126977616Y-120287784D01*
X126647415Y-120199631D01*
X126306361Y-120177591D01*
X125967561Y-120222511D01*
X125644034Y-120332664D01*
X125445726Y-120438662D01*
X125337893Y-120713288D01*
X122531929Y-120713288D01*
X122396282Y-120576691D01*
X122114201Y-120386425D01*
X121800536Y-120254572D01*
X121467234Y-120186156D01*
X121126992Y-120183780D01*
X120792767Y-120247537D01*
X120477292Y-120374997D01*
X120192582Y-120561306D01*
X119949482Y-120799367D01*
X119757251Y-121080113D01*
X119623212Y-121392850D01*
X119552470Y-121725666D01*
X119547719Y-122065884D01*
X117934192Y-122065884D01*
X117947409Y-121861361D01*
X117902489Y-121522561D01*
X117792336Y-121199034D01*
X117686338Y-121000726D01*
X117411712Y-120892893D01*
X116384605Y-121920000D01*
X116025395Y-121920000D01*
X114998288Y-120892893D01*
X114723662Y-121000726D01*
X114572784Y-121307384D01*
X114484631Y-121637585D01*
X114462591Y-121978639D01*
X112856880Y-121978639D01*
X112860074Y-121749874D01*
X112793986Y-121416103D01*
X112664326Y-121101526D01*
X112476034Y-120818123D01*
X112371929Y-120713288D01*
X115177893Y-120713288D01*
X116205000Y-121740395D01*
X117232107Y-120713288D01*
X117124274Y-120438662D01*
X116817616Y-120287784D01*
X116487415Y-120199631D01*
X116146361Y-120177591D01*
X115807561Y-120222511D01*
X115484034Y-120332664D01*
X115285726Y-120438662D01*
X115177893Y-120713288D01*
X112371929Y-120713288D01*
X112236282Y-120576691D01*
X111954201Y-120386425D01*
X111640536Y-120254572D01*
X111307234Y-120186156D01*
X110966992Y-120183780D01*
X110632767Y-120247537D01*
X110317292Y-120374997D01*
X110032582Y-120561306D01*
X109789482Y-120799367D01*
X109597251Y-121080113D01*
X109463212Y-121392850D01*
X109392470Y-121725666D01*
X109387719Y-122065884D01*
X107774192Y-122065884D01*
X107787409Y-121861361D01*
X107742489Y-121522561D01*
X107632336Y-121199034D01*
X107526338Y-121000726D01*
X107251712Y-120892893D01*
X106224605Y-121920000D01*
X105865395Y-121920000D01*
X104838288Y-120892893D01*
X104563662Y-121000726D01*
X104412784Y-121307384D01*
X104324631Y-121637585D01*
X104302591Y-121978639D01*
X102696880Y-121978639D01*
X102700074Y-121749874D01*
X102633986Y-121416103D01*
X102504326Y-121101526D01*
X102316034Y-120818123D01*
X102211929Y-120713288D01*
X105017893Y-120713288D01*
X106045000Y-121740395D01*
X107072107Y-120713288D01*
X106964274Y-120438662D01*
X106657616Y-120287784D01*
X106327415Y-120199631D01*
X105986361Y-120177591D01*
X105647561Y-120222511D01*
X105324034Y-120332664D01*
X105125726Y-120438662D01*
X105017893Y-120713288D01*
X102211929Y-120713288D01*
X102076282Y-120576691D01*
X101794201Y-120386425D01*
X101480536Y-120254572D01*
X101147234Y-120186156D01*
X100806992Y-120183780D01*
X100472767Y-120247537D01*
X100157292Y-120374997D01*
X99872582Y-120561306D01*
X99629482Y-120799367D01*
X99437251Y-121080113D01*
X99303212Y-121392850D01*
X99232470Y-121725666D01*
X99227719Y-122065884D01*
X98552000Y-122065884D01*
X98552000Y-111584617D01*
X120221771Y-111584617D01*
X120254872Y-111764968D01*
X120322372Y-111935454D01*
X120421701Y-112089583D01*
X120549076Y-112221484D01*
X120699644Y-112326131D01*
X120867671Y-112399540D01*
X121046757Y-112438915D01*
X121230079Y-112442755D01*
X121410657Y-112410914D01*
X121581610Y-112344606D01*
X121705473Y-112266000D01*
X129794000Y-112266000D01*
X129863877Y-112259149D01*
X129933803Y-112253031D01*
X129937641Y-112251916D01*
X129941618Y-112251526D01*
X130008821Y-112231236D01*
X130076240Y-112211649D01*
X130079788Y-112209810D01*
X130083613Y-112208655D01*
X130145591Y-112175701D01*
X130207925Y-112143390D01*
X130211048Y-112140897D01*
X130214578Y-112139020D01*
X130268987Y-112094645D01*
X130323846Y-112050852D01*
X130329406Y-112045369D01*
X130329522Y-112045274D01*
X130329611Y-112045166D01*
X130331401Y-112043401D01*
X141630169Y-100744633D01*
X141730657Y-100726914D01*
X141901610Y-100660606D01*
X142056429Y-100562355D01*
X142189215Y-100435904D01*
X142294911Y-100286070D01*
X142369492Y-100118560D01*
X142410116Y-99939754D01*
X142413040Y-99730319D01*
X142377425Y-99550448D01*
X142307550Y-99380920D01*
X142206079Y-99228193D01*
X142076875Y-99098084D01*
X141924860Y-98995549D01*
X141755825Y-98924493D01*
X141576207Y-98887623D01*
X141392849Y-98886343D01*
X141212733Y-98920701D01*
X141042722Y-98989390D01*
X140889291Y-99089793D01*
X140758283Y-99218086D01*
X140654689Y-99369381D01*
X140582454Y-99537916D01*
X140554158Y-99671040D01*
X129479198Y-110746000D01*
X121703378Y-110746000D01*
X121604860Y-110679549D01*
X121435825Y-110608493D01*
X121256207Y-110571623D01*
X121072849Y-110570343D01*
X120892733Y-110604701D01*
X120722722Y-110673390D01*
X120569291Y-110773793D01*
X120438283Y-110902086D01*
X120334689Y-111053381D01*
X120262454Y-111221916D01*
X120224331Y-111401272D01*
X120221771Y-111584617D01*
X98552000Y-111584617D01*
X98552000Y-87757000D01*
X107950000Y-87757000D01*
X107985381Y-87751972D01*
X108017961Y-87737286D01*
X108045160Y-87714105D01*
X108064823Y-87684264D01*
X108075395Y-87650127D01*
X108077000Y-87630000D01*
X108077000Y-84582000D01*
X113157000Y-84582000D01*
X113157000Y-85471000D01*
X113162028Y-85506381D01*
X113176714Y-85538961D01*
X113199895Y-85566160D01*
X113229736Y-85585823D01*
X113263873Y-85596395D01*
X113284000Y-85598000D01*
X120396000Y-85598000D01*
X120431381Y-85592972D01*
X120463961Y-85578286D01*
X120491160Y-85555105D01*
X120510823Y-85525264D01*
X120521395Y-85491127D01*
X120523000Y-85471000D01*
X120523000Y-82677000D01*
X128143000Y-82677000D01*
X128143000Y-92329000D01*
X128148028Y-92364381D01*
X128162714Y-92396961D01*
X128180197Y-92418803D01*
X129577197Y-93815803D01*
X129605771Y-93837266D01*
X129639193Y-93849918D01*
X129667000Y-93853000D01*
X140970000Y-93853000D01*
X141005381Y-93847972D01*
X141037961Y-93833286D01*
X141065160Y-93810105D01*
X141084823Y-93780264D01*
X141095395Y-93746127D01*
X141097000Y-93726000D01*
X141097000Y-88195884D01*
X143077719Y-88195884D01*
X143139141Y-88530545D01*
X143264396Y-88846902D01*
X143448713Y-89132906D01*
X143685071Y-89377662D01*
X143964468Y-89571848D01*
X144276261Y-89708067D01*
X144608575Y-89781131D01*
X144948752Y-89788257D01*
X145283833Y-89729173D01*
X145601058Y-89606130D01*
X145888341Y-89423814D01*
X146134741Y-89189170D01*
X146330873Y-88911136D01*
X146469266Y-88600301D01*
X146544648Y-88268505D01*
X146550074Y-87879874D01*
X146483986Y-87546103D01*
X146354326Y-87231526D01*
X146166034Y-86948123D01*
X145926282Y-86706691D01*
X145644201Y-86516425D01*
X145330536Y-86384572D01*
X144997234Y-86316156D01*
X144656992Y-86313780D01*
X144322767Y-86377537D01*
X144007292Y-86504997D01*
X143722582Y-86691306D01*
X143479482Y-86929367D01*
X143287251Y-87210113D01*
X143153212Y-87522850D01*
X143082470Y-87855666D01*
X143077719Y-88195884D01*
X141097000Y-88195884D01*
X141097000Y-78256712D01*
X143787893Y-78256712D01*
X143895726Y-78531338D01*
X144202384Y-78682216D01*
X144532585Y-78770369D01*
X144873639Y-78792409D01*
X145212439Y-78747489D01*
X145535966Y-78637336D01*
X145734274Y-78531338D01*
X145842107Y-78256712D01*
X144815000Y-77229605D01*
X143787893Y-78256712D01*
X141097000Y-78256712D01*
X141097000Y-77108639D01*
X143072591Y-77108639D01*
X143117511Y-77447439D01*
X143227664Y-77770966D01*
X143333662Y-77969274D01*
X143608288Y-78077107D01*
X144635395Y-77050000D01*
X144994605Y-77050000D01*
X146021712Y-78077107D01*
X146296338Y-77969274D01*
X146447216Y-77662616D01*
X146535369Y-77332415D01*
X146557409Y-76991361D01*
X146512489Y-76652561D01*
X146402336Y-76329034D01*
X146296338Y-76130726D01*
X146021712Y-76022893D01*
X144994605Y-77050000D01*
X144635395Y-77050000D01*
X143608288Y-76022893D01*
X143333662Y-76130726D01*
X143182784Y-76437384D01*
X143094631Y-76767585D01*
X143072591Y-77108639D01*
X141097000Y-77108639D01*
X141097000Y-75843288D01*
X143787893Y-75843288D01*
X144815000Y-76870395D01*
X145842107Y-75843288D01*
X145734274Y-75568662D01*
X145427616Y-75417784D01*
X145097415Y-75329631D01*
X144756361Y-75307591D01*
X144417561Y-75352511D01*
X144094034Y-75462664D01*
X143895726Y-75568662D01*
X143787893Y-75843288D01*
X141097000Y-75843288D01*
X141097000Y-68072000D01*
X148463000Y-68072000D01*
X148463000Y-95123000D01*
G36*
X148777190Y-56835164D02*
X148688602Y-57121345D01*
X148657287Y-57419284D01*
X148684439Y-57717630D01*
X148769023Y-58005021D01*
X148907817Y-58270510D01*
X149095534Y-58503983D01*
X149325026Y-58696549D01*
X149587549Y-58840873D01*
X149873106Y-58931457D01*
X150170818Y-58964850D01*
X150192250Y-58965000D01*
X152417750Y-58965000D01*
X152715900Y-58935766D01*
X153002693Y-58849178D01*
X153267206Y-58708534D01*
X153499364Y-58519191D01*
X153690323Y-58288361D01*
X153832810Y-58024836D01*
X153921398Y-57738655D01*
X153952713Y-57440716D01*
X153925561Y-57142370D01*
X153840977Y-56854979D01*
X153729635Y-56642000D01*
X161163000Y-56642000D01*
X161163000Y-67183000D01*
X153937758Y-67183000D01*
X153952713Y-67040716D01*
X153925561Y-66742370D01*
X153840977Y-66454979D01*
X153702183Y-66189490D01*
X153514466Y-65956017D01*
X153284974Y-65763451D01*
X153022451Y-65619127D01*
X152736894Y-65528543D01*
X152439182Y-65495150D01*
X152417750Y-65495000D01*
X150192250Y-65495000D01*
X149894100Y-65524234D01*
X149607307Y-65610822D01*
X149342794Y-65751466D01*
X149110636Y-65940809D01*
X148919677Y-66171639D01*
X148777190Y-66435164D01*
X148688602Y-66721345D01*
X148657287Y-67019284D01*
X148672187Y-67183000D01*
X140335000Y-67183000D01*
X140299619Y-67188028D01*
X140267039Y-67202714D01*
X140239840Y-67225895D01*
X140220177Y-67255736D01*
X140209605Y-67289873D01*
X140208000Y-67310000D01*
X140208000Y-92964000D01*
X129973606Y-92964000D01*
X129032000Y-92022394D01*
X129032000Y-81915000D01*
X129026972Y-81879619D01*
X129012286Y-81847039D01*
X128989105Y-81819840D01*
X128959264Y-81800177D01*
X128925127Y-81789605D01*
X128905000Y-81788000D01*
X122636132Y-81788000D01*
X123992566Y-80431566D01*
X124059079Y-80350592D01*
X124126504Y-80270238D01*
X124129382Y-80265003D01*
X124133167Y-80260395D01*
X124182687Y-80168041D01*
X124233219Y-80076124D01*
X124235024Y-80070435D01*
X124237844Y-80065175D01*
X124268496Y-79964918D01*
X124300198Y-79864980D01*
X124300863Y-79859049D01*
X124302608Y-79853342D01*
X124313204Y-79749027D01*
X124324889Y-79644847D01*
X124324971Y-79633181D01*
X124324993Y-79632962D01*
X124324974Y-79632758D01*
X124325000Y-79629000D01*
X124325000Y-74041000D01*
X124314768Y-73936650D01*
X124305632Y-73832215D01*
X124303966Y-73826481D01*
X124303384Y-73820544D01*
X124273081Y-73720175D01*
X124243831Y-73619497D01*
X124241086Y-73614201D01*
X124239360Y-73608485D01*
X124190132Y-73515902D01*
X124141891Y-73422834D01*
X124138167Y-73418169D01*
X124135366Y-73412901D01*
X124069082Y-73331629D01*
X124003693Y-73249718D01*
X123995507Y-73241416D01*
X123995363Y-73241240D01*
X123995200Y-73241105D01*
X123992566Y-73238434D01*
X122722566Y-71968434D01*
X122551395Y-71827833D01*
X122356175Y-71723156D01*
X122144342Y-71658392D01*
X121923962Y-71636007D01*
X121703432Y-71656853D01*
X121491150Y-71720137D01*
X121295204Y-71823448D01*
X121123057Y-71962850D01*
X120981263Y-72133036D01*
X120875227Y-72327520D01*
X120808986Y-72538897D01*
X120785063Y-72759115D01*
X120804368Y-72979785D01*
X120866168Y-73192503D01*
X120968108Y-73389165D01*
X121106307Y-73562282D01*
X121117434Y-73573566D01*
X122055000Y-74511132D01*
X122055000Y-79158868D01*
X120482434Y-80731434D01*
X120341833Y-80902605D01*
X120237156Y-81097825D01*
X120172392Y-81309658D01*
X120150007Y-81530038D01*
X120170853Y-81750568D01*
X120182012Y-81788000D01*
X119126000Y-81788000D01*
X119090619Y-81793028D01*
X119058039Y-81807714D01*
X119030840Y-81830895D01*
X119011177Y-81860736D01*
X119000605Y-81894873D01*
X118999000Y-81915000D01*
X118999000Y-83947000D01*
X114681000Y-83947000D01*
X114681000Y-83693000D01*
X114675972Y-83657619D01*
X114661286Y-83625039D01*
X114638105Y-83597840D01*
X114608264Y-83578177D01*
X114574127Y-83567605D01*
X114551772Y-83566020D01*
X107312772Y-83693020D01*
X107277485Y-83698667D01*
X107245167Y-83713923D01*
X107218380Y-83737577D01*
X107199243Y-83767758D01*
X107189271Y-83802076D01*
X107188000Y-83820000D01*
X107188000Y-86868000D01*
X98552000Y-86868000D01*
X98552000Y-69550132D01*
X98765433Y-69763566D01*
X98846455Y-69830118D01*
X98926762Y-69897504D01*
X98931994Y-69900380D01*
X98936604Y-69904167D01*
X99028998Y-69953709D01*
X99120876Y-70004219D01*
X99126563Y-70006023D01*
X99131824Y-70008844D01*
X99232055Y-70039487D01*
X99332020Y-70071198D01*
X99337956Y-70071864D01*
X99343658Y-70073607D01*
X99447923Y-70084198D01*
X99552153Y-70095889D01*
X99563819Y-70095971D01*
X99564038Y-70095993D01*
X99564242Y-70095974D01*
X99568000Y-70096000D01*
X111387000Y-70096000D01*
X111387000Y-78994000D01*
X111408616Y-79214456D01*
X111472640Y-79426515D01*
X111576634Y-79622099D01*
X111716637Y-79793760D01*
X111887316Y-79934958D01*
X112082170Y-80040315D01*
X112293777Y-80105818D01*
X112514076Y-80128972D01*
X112734678Y-80108896D01*
X112947178Y-80046354D01*
X113143484Y-79943727D01*
X113316118Y-79804926D01*
X113458504Y-79635238D01*
X113565219Y-79441124D01*
X113632198Y-79229980D01*
X113656889Y-79009847D01*
X113657000Y-78994000D01*
X113657000Y-70096000D01*
X135509000Y-70096000D01*
X135613350Y-70085768D01*
X135717785Y-70076632D01*
X135723519Y-70074966D01*
X135729456Y-70074384D01*
X135829779Y-70044095D01*
X135930503Y-70014832D01*
X135935804Y-70012084D01*
X135941515Y-70010360D01*
X136034044Y-69961161D01*
X136127165Y-69912892D01*
X136131831Y-69909167D01*
X136137099Y-69906366D01*
X136218366Y-69840087D01*
X136300282Y-69774693D01*
X136308584Y-69766507D01*
X136308760Y-69766363D01*
X136308895Y-69766200D01*
X136311566Y-69763566D01*
X137327566Y-68747566D01*
X137394079Y-68666592D01*
X137461504Y-68586238D01*
X137464382Y-68581003D01*
X137468167Y-68576395D01*
X137517687Y-68484041D01*
X137568219Y-68392124D01*
X137570024Y-68386435D01*
X137572844Y-68381175D01*
X137603496Y-68280918D01*
X137635198Y-68180980D01*
X137635863Y-68175049D01*
X137637608Y-68169342D01*
X137648204Y-68065027D01*
X137659889Y-67960847D01*
X137659971Y-67949181D01*
X137659993Y-67948962D01*
X137659974Y-67948758D01*
X137660000Y-67945000D01*
X137660000Y-63970132D01*
X138265132Y-63365000D01*
X146420000Y-63365000D01*
X146420000Y-63493959D01*
X146451138Y-63811532D01*
X146543367Y-64117009D01*
X146693174Y-64398754D01*
X146894852Y-64646036D01*
X147140720Y-64849435D01*
X147421412Y-65001205D01*
X147726238Y-65095565D01*
X148043586Y-65128919D01*
X148361368Y-65099999D01*
X148667482Y-65009905D01*
X148950266Y-64862069D01*
X149198950Y-64662122D01*
X149404061Y-64417680D01*
X149557786Y-64138054D01*
X149654271Y-63833895D01*
X149689841Y-63516787D01*
X149690000Y-63493959D01*
X149690000Y-62357000D01*
X152670000Y-62357000D01*
X152670000Y-63607000D01*
X152726193Y-63923532D01*
X152843058Y-64223020D01*
X153016105Y-64493954D01*
X153238683Y-64725922D01*
X153502239Y-64910010D01*
X153796645Y-65039144D01*
X153924566Y-65070124D01*
X154178000Y-64950777D01*
X154178000Y-62357000D01*
X154432000Y-62357000D01*
X154432000Y-64950777D01*
X154685434Y-65070124D01*
X154813355Y-65039144D01*
X155107761Y-64910010D01*
X155371317Y-64725922D01*
X155593895Y-64493954D01*
X155766942Y-64223020D01*
X155883807Y-63923532D01*
X155940000Y-63607000D01*
X155940000Y-62357000D01*
X154432000Y-62357000D01*
X154178000Y-62357000D01*
X152670000Y-62357000D01*
X149690000Y-62357000D01*
X149690000Y-60966041D01*
X149678917Y-60853000D01*
X152670000Y-60853000D01*
X152670000Y-62103000D01*
X154178000Y-62103000D01*
X154178000Y-59509223D01*
X154432000Y-59509223D01*
X154432000Y-62103000D01*
X155940000Y-62103000D01*
X155940000Y-60853000D01*
X155883807Y-60536468D01*
X155766942Y-60236980D01*
X155593895Y-59966046D01*
X155371317Y-59734078D01*
X155107761Y-59549990D01*
X154813355Y-59420856D01*
X154685434Y-59389876D01*
X154432000Y-59509223D01*
X154178000Y-59509223D01*
X153924566Y-59389876D01*
X153796645Y-59420856D01*
X153502239Y-59549990D01*
X153238683Y-59734078D01*
X153016105Y-59966046D01*
X152843058Y-60236980D01*
X152726193Y-60536468D01*
X152670000Y-60853000D01*
X149678917Y-60853000D01*
X149658862Y-60648468D01*
X149566633Y-60342991D01*
X149416826Y-60061246D01*
X149215148Y-59813964D01*
X148969280Y-59610565D01*
X148688588Y-59458795D01*
X148383762Y-59364435D01*
X148066414Y-59331081D01*
X147748632Y-59360001D01*
X147442518Y-59450095D01*
X147159734Y-59597931D01*
X146911050Y-59797878D01*
X146705939Y-60042320D01*
X146552214Y-60321946D01*
X146455729Y-60626105D01*
X146420159Y-60943213D01*
X146420000Y-60966041D01*
X146420000Y-61095000D01*
X137795000Y-61095000D01*
X137690650Y-61105232D01*
X137586215Y-61114368D01*
X137580481Y-61116034D01*
X137574544Y-61116616D01*
X137474175Y-61146919D01*
X137373497Y-61176169D01*
X137368201Y-61178914D01*
X137362485Y-61180640D01*
X137269902Y-61229868D01*
X137176834Y-61278109D01*
X137172169Y-61281833D01*
X137166901Y-61284634D01*
X137085629Y-61350918D01*
X137003718Y-61416307D01*
X136995416Y-61424493D01*
X136995240Y-61424637D01*
X136995105Y-61424800D01*
X136992434Y-61427434D01*
X135722434Y-62697434D01*
X135655921Y-62778408D01*
X135588496Y-62858762D01*
X135585618Y-62863997D01*
X135581833Y-62868605D01*
X135532313Y-62960959D01*
X135481781Y-63052876D01*
X135479976Y-63058565D01*
X135477156Y-63063825D01*
X135446504Y-63164082D01*
X135414802Y-63264020D01*
X135414137Y-63269951D01*
X135412392Y-63275658D01*
X135401796Y-63379973D01*
X135390111Y-63484153D01*
X135390029Y-63495819D01*
X135390007Y-63496038D01*
X135390026Y-63496242D01*
X135390000Y-63500000D01*
X135390000Y-67474868D01*
X135038868Y-67826000D01*
X100195000Y-67826000D01*
X100195000Y-59817000D01*
X101100000Y-59817000D01*
X101100000Y-61087000D01*
X101110232Y-61191350D01*
X101119368Y-61295785D01*
X101121034Y-61301519D01*
X101121616Y-61307456D01*
X101151905Y-61407779D01*
X101181168Y-61508503D01*
X101183916Y-61513804D01*
X101185640Y-61519515D01*
X101234839Y-61612044D01*
X101283108Y-61705165D01*
X101286833Y-61709831D01*
X101289634Y-61715099D01*
X101355913Y-61796366D01*
X101421307Y-61878282D01*
X101429493Y-61886584D01*
X101429637Y-61886760D01*
X101429800Y-61886895D01*
X101432434Y-61889566D01*
X101559434Y-62016566D01*
X101640430Y-62083097D01*
X101720762Y-62150504D01*
X101725994Y-62153380D01*
X101730604Y-62157167D01*
X101822979Y-62206698D01*
X101914876Y-62257219D01*
X101920565Y-62259024D01*
X101925825Y-62261844D01*
X102026082Y-62292496D01*
X102126020Y-62324198D01*
X102131951Y-62324863D01*
X102137658Y-62326608D01*
X102241973Y-62337204D01*
X102346153Y-62348889D01*
X102357819Y-62348971D01*
X102358038Y-62348993D01*
X102358242Y-62348974D01*
X102362000Y-62349000D01*
X133477000Y-62349000D01*
X133697456Y-62327384D01*
X133909515Y-62263360D01*
X134105099Y-62159366D01*
X134276760Y-62019363D01*
X134417958Y-61848684D01*
X134523315Y-61653830D01*
X134588818Y-61442223D01*
X134611972Y-61221924D01*
X134591896Y-61001322D01*
X134529354Y-60788822D01*
X134426727Y-60592516D01*
X134287926Y-60419882D01*
X134118238Y-60277496D01*
X133924124Y-60170781D01*
X133712980Y-60103802D01*
X133492847Y-60079111D01*
X133477000Y-60079000D01*
X123952000Y-60079000D01*
X123952000Y-58903179D01*
X123976514Y-58936729D01*
X124192965Y-59135733D01*
X124444081Y-59288686D01*
X124720211Y-59389709D01*
X124735974Y-59392358D01*
X124968000Y-59271217D01*
X124968000Y-57912000D01*
X125222000Y-57912000D01*
X125222000Y-59271217D01*
X125454026Y-59392358D01*
X125469789Y-59389709D01*
X125745919Y-59288686D01*
X125997035Y-59135733D01*
X126213486Y-58936729D01*
X126386954Y-58699321D01*
X126510773Y-58432633D01*
X126580185Y-58146914D01*
X126435925Y-57912000D01*
X125222000Y-57912000D01*
X124968000Y-57912000D01*
X124948000Y-57912000D01*
X124948000Y-57658000D01*
X124968000Y-57658000D01*
X124968000Y-57638000D01*
X125222000Y-57638000D01*
X125222000Y-57658000D01*
X126435925Y-57658000D01*
X126580185Y-57423086D01*
X126510773Y-57137367D01*
X126386954Y-56870679D01*
X126219864Y-56642000D01*
X148881633Y-56642000D01*
X148777190Y-56835164D01*
X148777190Y-56835164D01*
G37*
X148777190Y-56835164D02*
X148688602Y-57121345D01*
X148657287Y-57419284D01*
X148684439Y-57717630D01*
X148769023Y-58005021D01*
X148907817Y-58270510D01*
X149095534Y-58503983D01*
X149325026Y-58696549D01*
X149587549Y-58840873D01*
X149873106Y-58931457D01*
X150170818Y-58964850D01*
X150192250Y-58965000D01*
X152417750Y-58965000D01*
X152715900Y-58935766D01*
X153002693Y-58849178D01*
X153267206Y-58708534D01*
X153499364Y-58519191D01*
X153690323Y-58288361D01*
X153832810Y-58024836D01*
X153921398Y-57738655D01*
X153952713Y-57440716D01*
X153925561Y-57142370D01*
X153840977Y-56854979D01*
X153729635Y-56642000D01*
X161163000Y-56642000D01*
X161163000Y-67183000D01*
X153937758Y-67183000D01*
X153952713Y-67040716D01*
X153925561Y-66742370D01*
X153840977Y-66454979D01*
X153702183Y-66189490D01*
X153514466Y-65956017D01*
X153284974Y-65763451D01*
X153022451Y-65619127D01*
X152736894Y-65528543D01*
X152439182Y-65495150D01*
X152417750Y-65495000D01*
X150192250Y-65495000D01*
X149894100Y-65524234D01*
X149607307Y-65610822D01*
X149342794Y-65751466D01*
X149110636Y-65940809D01*
X148919677Y-66171639D01*
X148777190Y-66435164D01*
X148688602Y-66721345D01*
X148657287Y-67019284D01*
X148672187Y-67183000D01*
X140335000Y-67183000D01*
X140299619Y-67188028D01*
X140267039Y-67202714D01*
X140239840Y-67225895D01*
X140220177Y-67255736D01*
X140209605Y-67289873D01*
X140208000Y-67310000D01*
X140208000Y-92964000D01*
X129973606Y-92964000D01*
X129032000Y-92022394D01*
X129032000Y-81915000D01*
X129026972Y-81879619D01*
X129012286Y-81847039D01*
X128989105Y-81819840D01*
X128959264Y-81800177D01*
X128925127Y-81789605D01*
X128905000Y-81788000D01*
X122636132Y-81788000D01*
X123992566Y-80431566D01*
X124059079Y-80350592D01*
X124126504Y-80270238D01*
X124129382Y-80265003D01*
X124133167Y-80260395D01*
X124182687Y-80168041D01*
X124233219Y-80076124D01*
X124235024Y-80070435D01*
X124237844Y-80065175D01*
X124268496Y-79964918D01*
X124300198Y-79864980D01*
X124300863Y-79859049D01*
X124302608Y-79853342D01*
X124313204Y-79749027D01*
X124324889Y-79644847D01*
X124324971Y-79633181D01*
X124324993Y-79632962D01*
X124324974Y-79632758D01*
X124325000Y-79629000D01*
X124325000Y-74041000D01*
X124314768Y-73936650D01*
X124305632Y-73832215D01*
X124303966Y-73826481D01*
X124303384Y-73820544D01*
X124273081Y-73720175D01*
X124243831Y-73619497D01*
X124241086Y-73614201D01*
X124239360Y-73608485D01*
X124190132Y-73515902D01*
X124141891Y-73422834D01*
X124138167Y-73418169D01*
X124135366Y-73412901D01*
X124069082Y-73331629D01*
X124003693Y-73249718D01*
X123995507Y-73241416D01*
X123995363Y-73241240D01*
X123995200Y-73241105D01*
X123992566Y-73238434D01*
X122722566Y-71968434D01*
X122551395Y-71827833D01*
X122356175Y-71723156D01*
X122144342Y-71658392D01*
X121923962Y-71636007D01*
X121703432Y-71656853D01*
X121491150Y-71720137D01*
X121295204Y-71823448D01*
X121123057Y-71962850D01*
X120981263Y-72133036D01*
X120875227Y-72327520D01*
X120808986Y-72538897D01*
X120785063Y-72759115D01*
X120804368Y-72979785D01*
X120866168Y-73192503D01*
X120968108Y-73389165D01*
X121106307Y-73562282D01*
X121117434Y-73573566D01*
X122055000Y-74511132D01*
X122055000Y-79158868D01*
X120482434Y-80731434D01*
X120341833Y-80902605D01*
X120237156Y-81097825D01*
X120172392Y-81309658D01*
X120150007Y-81530038D01*
X120170853Y-81750568D01*
X120182012Y-81788000D01*
X119126000Y-81788000D01*
X119090619Y-81793028D01*
X119058039Y-81807714D01*
X119030840Y-81830895D01*
X119011177Y-81860736D01*
X119000605Y-81894873D01*
X118999000Y-81915000D01*
X118999000Y-83947000D01*
X114681000Y-83947000D01*
X114681000Y-83693000D01*
X114675972Y-83657619D01*
X114661286Y-83625039D01*
X114638105Y-83597840D01*
X114608264Y-83578177D01*
X114574127Y-83567605D01*
X114551772Y-83566020D01*
X107312772Y-83693020D01*
X107277485Y-83698667D01*
X107245167Y-83713923D01*
X107218380Y-83737577D01*
X107199243Y-83767758D01*
X107189271Y-83802076D01*
X107188000Y-83820000D01*
X107188000Y-86868000D01*
X98552000Y-86868000D01*
X98552000Y-69550132D01*
X98765433Y-69763566D01*
X98846455Y-69830118D01*
X98926762Y-69897504D01*
X98931994Y-69900380D01*
X98936604Y-69904167D01*
X99028998Y-69953709D01*
X99120876Y-70004219D01*
X99126563Y-70006023D01*
X99131824Y-70008844D01*
X99232055Y-70039487D01*
X99332020Y-70071198D01*
X99337956Y-70071864D01*
X99343658Y-70073607D01*
X99447923Y-70084198D01*
X99552153Y-70095889D01*
X99563819Y-70095971D01*
X99564038Y-70095993D01*
X99564242Y-70095974D01*
X99568000Y-70096000D01*
X111387000Y-70096000D01*
X111387000Y-78994000D01*
X111408616Y-79214456D01*
X111472640Y-79426515D01*
X111576634Y-79622099D01*
X111716637Y-79793760D01*
X111887316Y-79934958D01*
X112082170Y-80040315D01*
X112293777Y-80105818D01*
X112514076Y-80128972D01*
X112734678Y-80108896D01*
X112947178Y-80046354D01*
X113143484Y-79943727D01*
X113316118Y-79804926D01*
X113458504Y-79635238D01*
X113565219Y-79441124D01*
X113632198Y-79229980D01*
X113656889Y-79009847D01*
X113657000Y-78994000D01*
X113657000Y-70096000D01*
X135509000Y-70096000D01*
X135613350Y-70085768D01*
X135717785Y-70076632D01*
X135723519Y-70074966D01*
X135729456Y-70074384D01*
X135829779Y-70044095D01*
X135930503Y-70014832D01*
X135935804Y-70012084D01*
X135941515Y-70010360D01*
X136034044Y-69961161D01*
X136127165Y-69912892D01*
X136131831Y-69909167D01*
X136137099Y-69906366D01*
X136218366Y-69840087D01*
X136300282Y-69774693D01*
X136308584Y-69766507D01*
X136308760Y-69766363D01*
X136308895Y-69766200D01*
X136311566Y-69763566D01*
X137327566Y-68747566D01*
X137394079Y-68666592D01*
X137461504Y-68586238D01*
X137464382Y-68581003D01*
X137468167Y-68576395D01*
X137517687Y-68484041D01*
X137568219Y-68392124D01*
X137570024Y-68386435D01*
X137572844Y-68381175D01*
X137603496Y-68280918D01*
X137635198Y-68180980D01*
X137635863Y-68175049D01*
X137637608Y-68169342D01*
X137648204Y-68065027D01*
X137659889Y-67960847D01*
X137659971Y-67949181D01*
X137659993Y-67948962D01*
X137659974Y-67948758D01*
X137660000Y-67945000D01*
X137660000Y-63970132D01*
X138265132Y-63365000D01*
X146420000Y-63365000D01*
X146420000Y-63493959D01*
X146451138Y-63811532D01*
X146543367Y-64117009D01*
X146693174Y-64398754D01*
X146894852Y-64646036D01*
X147140720Y-64849435D01*
X147421412Y-65001205D01*
X147726238Y-65095565D01*
X148043586Y-65128919D01*
X148361368Y-65099999D01*
X148667482Y-65009905D01*
X148950266Y-64862069D01*
X149198950Y-64662122D01*
X149404061Y-64417680D01*
X149557786Y-64138054D01*
X149654271Y-63833895D01*
X149689841Y-63516787D01*
X149690000Y-63493959D01*
X149690000Y-62357000D01*
X152670000Y-62357000D01*
X152670000Y-63607000D01*
X152726193Y-63923532D01*
X152843058Y-64223020D01*
X153016105Y-64493954D01*
X153238683Y-64725922D01*
X153502239Y-64910010D01*
X153796645Y-65039144D01*
X153924566Y-65070124D01*
X154178000Y-64950777D01*
X154178000Y-62357000D01*
X154432000Y-62357000D01*
X154432000Y-64950777D01*
X154685434Y-65070124D01*
X154813355Y-65039144D01*
X155107761Y-64910010D01*
X155371317Y-64725922D01*
X155593895Y-64493954D01*
X155766942Y-64223020D01*
X155883807Y-63923532D01*
X155940000Y-63607000D01*
X155940000Y-62357000D01*
X154432000Y-62357000D01*
X154178000Y-62357000D01*
X152670000Y-62357000D01*
X149690000Y-62357000D01*
X149690000Y-60966041D01*
X149678917Y-60853000D01*
X152670000Y-60853000D01*
X152670000Y-62103000D01*
X154178000Y-62103000D01*
X154178000Y-59509223D01*
X154432000Y-59509223D01*
X154432000Y-62103000D01*
X155940000Y-62103000D01*
X155940000Y-60853000D01*
X155883807Y-60536468D01*
X155766942Y-60236980D01*
X155593895Y-59966046D01*
X155371317Y-59734078D01*
X155107761Y-59549990D01*
X154813355Y-59420856D01*
X154685434Y-59389876D01*
X154432000Y-59509223D01*
X154178000Y-59509223D01*
X153924566Y-59389876D01*
X153796645Y-59420856D01*
X153502239Y-59549990D01*
X153238683Y-59734078D01*
X153016105Y-59966046D01*
X152843058Y-60236980D01*
X152726193Y-60536468D01*
X152670000Y-60853000D01*
X149678917Y-60853000D01*
X149658862Y-60648468D01*
X149566633Y-60342991D01*
X149416826Y-60061246D01*
X149215148Y-59813964D01*
X148969280Y-59610565D01*
X148688588Y-59458795D01*
X148383762Y-59364435D01*
X148066414Y-59331081D01*
X147748632Y-59360001D01*
X147442518Y-59450095D01*
X147159734Y-59597931D01*
X146911050Y-59797878D01*
X146705939Y-60042320D01*
X146552214Y-60321946D01*
X146455729Y-60626105D01*
X146420159Y-60943213D01*
X146420000Y-60966041D01*
X146420000Y-61095000D01*
X137795000Y-61095000D01*
X137690650Y-61105232D01*
X137586215Y-61114368D01*
X137580481Y-61116034D01*
X137574544Y-61116616D01*
X137474175Y-61146919D01*
X137373497Y-61176169D01*
X137368201Y-61178914D01*
X137362485Y-61180640D01*
X137269902Y-61229868D01*
X137176834Y-61278109D01*
X137172169Y-61281833D01*
X137166901Y-61284634D01*
X137085629Y-61350918D01*
X137003718Y-61416307D01*
X136995416Y-61424493D01*
X136995240Y-61424637D01*
X136995105Y-61424800D01*
X136992434Y-61427434D01*
X135722434Y-62697434D01*
X135655921Y-62778408D01*
X135588496Y-62858762D01*
X135585618Y-62863997D01*
X135581833Y-62868605D01*
X135532313Y-62960959D01*
X135481781Y-63052876D01*
X135479976Y-63058565D01*
X135477156Y-63063825D01*
X135446504Y-63164082D01*
X135414802Y-63264020D01*
X135414137Y-63269951D01*
X135412392Y-63275658D01*
X135401796Y-63379973D01*
X135390111Y-63484153D01*
X135390029Y-63495819D01*
X135390007Y-63496038D01*
X135390026Y-63496242D01*
X135390000Y-63500000D01*
X135390000Y-67474868D01*
X135038868Y-67826000D01*
X100195000Y-67826000D01*
X100195000Y-59817000D01*
X101100000Y-59817000D01*
X101100000Y-61087000D01*
X101110232Y-61191350D01*
X101119368Y-61295785D01*
X101121034Y-61301519D01*
X101121616Y-61307456D01*
X101151905Y-61407779D01*
X101181168Y-61508503D01*
X101183916Y-61513804D01*
X101185640Y-61519515D01*
X101234839Y-61612044D01*
X101283108Y-61705165D01*
X101286833Y-61709831D01*
X101289634Y-61715099D01*
X101355913Y-61796366D01*
X101421307Y-61878282D01*
X101429493Y-61886584D01*
X101429637Y-61886760D01*
X101429800Y-61886895D01*
X101432434Y-61889566D01*
X101559434Y-62016566D01*
X101640430Y-62083097D01*
X101720762Y-62150504D01*
X101725994Y-62153380D01*
X101730604Y-62157167D01*
X101822979Y-62206698D01*
X101914876Y-62257219D01*
X101920565Y-62259024D01*
X101925825Y-62261844D01*
X102026082Y-62292496D01*
X102126020Y-62324198D01*
X102131951Y-62324863D01*
X102137658Y-62326608D01*
X102241973Y-62337204D01*
X102346153Y-62348889D01*
X102357819Y-62348971D01*
X102358038Y-62348993D01*
X102358242Y-62348974D01*
X102362000Y-62349000D01*
X133477000Y-62349000D01*
X133697456Y-62327384D01*
X133909515Y-62263360D01*
X134105099Y-62159366D01*
X134276760Y-62019363D01*
X134417958Y-61848684D01*
X134523315Y-61653830D01*
X134588818Y-61442223D01*
X134611972Y-61221924D01*
X134591896Y-61001322D01*
X134529354Y-60788822D01*
X134426727Y-60592516D01*
X134287926Y-60419882D01*
X134118238Y-60277496D01*
X133924124Y-60170781D01*
X133712980Y-60103802D01*
X133492847Y-60079111D01*
X133477000Y-60079000D01*
X123952000Y-60079000D01*
X123952000Y-58903179D01*
X123976514Y-58936729D01*
X124192965Y-59135733D01*
X124444081Y-59288686D01*
X124720211Y-59389709D01*
X124735974Y-59392358D01*
X124968000Y-59271217D01*
X124968000Y-57912000D01*
X125222000Y-57912000D01*
X125222000Y-59271217D01*
X125454026Y-59392358D01*
X125469789Y-59389709D01*
X125745919Y-59288686D01*
X125997035Y-59135733D01*
X126213486Y-58936729D01*
X126386954Y-58699321D01*
X126510773Y-58432633D01*
X126580185Y-58146914D01*
X126435925Y-57912000D01*
X125222000Y-57912000D01*
X124968000Y-57912000D01*
X124948000Y-57912000D01*
X124948000Y-57658000D01*
X124968000Y-57658000D01*
X124968000Y-57638000D01*
X125222000Y-57638000D01*
X125222000Y-57658000D01*
X126435925Y-57658000D01*
X126580185Y-57423086D01*
X126510773Y-57137367D01*
X126386954Y-56870679D01*
X126219864Y-56642000D01*
X148881633Y-56642000D01*
X148777190Y-56835164D01*
M02*
