G04 #@! TF.FileFunction,Soldermask,Top*
%FSLAX46Y46*%
G04 Gerber Fmt 4.6, Leading zero omitted, Abs format (unit mm)*
G04 Created by KiCad (PCBNEW 4.0.2-stable) date Sunday, 28 August 2016 12:14:49*
%MOMM*%
G01*
G04 APERTURE LIST*
%ADD10C,0.100000*%
%ADD11R,0.781000X0.654000*%
%ADD12O,4.400000X2.200000*%
%ADD13O,2.400000X4.900000*%
%ADD14R,1.197560X1.197560*%
%ADD15R,1.200000X1.150000*%
%ADD16R,0.900000X1.300000*%
%ADD17R,2.000000X1.400000*%
%ADD18R,1.400000X2.000000*%
%ADD19R,1.400000X1.650000*%
%ADD20R,1.150000X1.200000*%
%ADD21R,2.127200X2.432000*%
%ADD22O,2.127200X2.432000*%
%ADD23R,0.900000X0.700000*%
%ADD24R,0.700000X0.900000*%
%ADD25R,5.000000X5.000000*%
%ADD26R,2.398980X5.899100*%
%ADD27C,2.600000*%
%ADD28C,2.400000*%
%ADD29R,1.200100X1.200100*%
%ADD30R,1.650000X1.400000*%
G04 APERTURE END LIST*
D10*
D11*
X119849900Y-82169000D03*
X118452900Y-82169000D03*
D12*
X151305000Y-67030000D03*
D13*
X148055000Y-62230000D03*
X154305000Y-62230000D03*
D12*
X151305000Y-57430000D03*
D14*
X137909300Y-70485000D03*
X136410700Y-70485000D03*
D15*
X122035000Y-106680000D03*
X120535000Y-106680000D03*
D16*
X120535000Y-109855000D03*
X122035000Y-109855000D03*
X122035000Y-113030000D03*
X120535000Y-113030000D03*
D17*
X101600000Y-82320000D03*
X101600000Y-85320000D03*
D16*
X136410000Y-66675000D03*
X137910000Y-66675000D03*
D18*
X122960000Y-86995000D03*
X125960000Y-86995000D03*
D19*
X123460000Y-83185000D03*
X125460000Y-83185000D03*
D18*
X118134000Y-93853000D03*
X121134000Y-93853000D03*
D19*
X118126000Y-90170000D03*
X120126000Y-90170000D03*
D20*
X136525000Y-88380000D03*
X136525000Y-86880000D03*
D16*
X136779000Y-73660000D03*
X137541000Y-73660000D03*
D21*
X99695000Y-57785000D03*
D22*
X102235000Y-57785000D03*
X104775000Y-57785000D03*
X107315000Y-57785000D03*
X109855000Y-57785000D03*
X112395000Y-57785000D03*
X114935000Y-57785000D03*
X117475000Y-57785000D03*
X120015000Y-57785000D03*
X122555000Y-57785000D03*
X125095000Y-57785000D03*
D16*
X133096000Y-73660000D03*
X132334000Y-73660000D03*
X128651000Y-73660000D03*
X127889000Y-73660000D03*
X124206000Y-73660000D03*
X123444000Y-73660000D03*
X119761000Y-73660000D03*
X118999000Y-73660000D03*
X115316000Y-73660000D03*
X114554000Y-73660000D03*
X110871000Y-73660000D03*
X110109000Y-73660000D03*
X106426000Y-73660000D03*
X105664000Y-73660000D03*
X101981000Y-73660000D03*
X101219000Y-73660000D03*
D23*
X113840000Y-79665000D03*
X113840000Y-80165000D03*
X113840000Y-80665000D03*
X113840000Y-81165000D03*
X113840000Y-81665000D03*
X113840000Y-82165000D03*
X113840000Y-82665000D03*
X113840000Y-83165000D03*
X113840000Y-83665000D03*
X113840000Y-84165000D03*
D24*
X114590000Y-84915000D03*
X115090000Y-84915000D03*
X115590000Y-84915000D03*
X116090000Y-84915000D03*
X116590000Y-84915000D03*
X117090000Y-84915000D03*
X117590000Y-84915000D03*
X118090000Y-84915000D03*
X118590000Y-84915000D03*
X119090000Y-84915000D03*
D23*
X119840000Y-84165000D03*
X119840000Y-83665000D03*
X119840000Y-83165000D03*
X119840000Y-82665000D03*
X119840000Y-82165000D03*
X119840000Y-81665000D03*
X119840000Y-81165000D03*
X119840000Y-80665000D03*
X119840000Y-80165000D03*
X119840000Y-79665000D03*
D24*
X119090000Y-78915000D03*
X118590000Y-78915000D03*
X118090000Y-78915000D03*
X117590000Y-78915000D03*
X117090000Y-78915000D03*
X116590000Y-78915000D03*
X116090000Y-78915000D03*
X115590000Y-78915000D03*
X115090000Y-78915000D03*
X114590000Y-78915000D03*
D25*
X116840000Y-81915000D03*
D26*
X131445000Y-79756000D03*
X131445000Y-89154000D03*
D16*
X100850000Y-78105000D03*
X102350000Y-78105000D03*
D27*
X100965000Y-121920000D03*
X106045000Y-121920000D03*
X111125000Y-121920000D03*
X116205000Y-121920000D03*
X121285000Y-121920000D03*
X126365000Y-121920000D03*
X133350000Y-121920000D03*
X138430000Y-121920000D03*
X143510000Y-121920000D03*
X148590000Y-121920000D03*
X153670000Y-121920000D03*
X158750000Y-121920000D03*
X155575000Y-106045000D03*
X155575000Y-100965000D03*
D28*
X116840000Y-81915000D03*
D29*
X102550000Y-65674240D03*
X100650000Y-65674240D03*
X101600000Y-67673220D03*
X106995000Y-65674240D03*
X105095000Y-65674240D03*
X106045000Y-67673220D03*
X111440000Y-65674240D03*
X109540000Y-65674240D03*
X110490000Y-67673220D03*
X115885000Y-65674240D03*
X113985000Y-65674240D03*
X114935000Y-67673220D03*
X120330000Y-65674240D03*
X118430000Y-65674240D03*
X119380000Y-67673220D03*
D16*
X102985000Y-113030000D03*
X101485000Y-113030000D03*
X109335000Y-113030000D03*
X107835000Y-113030000D03*
X115685000Y-113030000D03*
X114185000Y-113030000D03*
X128385000Y-113030000D03*
X126885000Y-113030000D03*
X134735000Y-113030000D03*
X133235000Y-113030000D03*
X141085000Y-113030000D03*
X139585000Y-113030000D03*
X102985000Y-109855000D03*
X101485000Y-109855000D03*
X109335000Y-109855000D03*
X107835000Y-109855000D03*
X115685000Y-109855000D03*
X114185000Y-109855000D03*
X128385000Y-109855000D03*
X126885000Y-109855000D03*
X134735000Y-109855000D03*
X133235000Y-109855000D03*
X141085000Y-109855000D03*
X139585000Y-109855000D03*
X109335000Y-102235000D03*
X107835000Y-102235000D03*
X115685000Y-102235000D03*
X114185000Y-102235000D03*
X122035000Y-102235000D03*
X120535000Y-102235000D03*
X134735000Y-102235000D03*
X133235000Y-102235000D03*
X128385000Y-102235000D03*
X126885000Y-102235000D03*
X102350000Y-62865000D03*
X100850000Y-62865000D03*
X106795000Y-62865000D03*
X105295000Y-62865000D03*
X111240000Y-62865000D03*
X109740000Y-62865000D03*
X115685000Y-62865000D03*
X114185000Y-62865000D03*
X120130000Y-62865000D03*
X118630000Y-62865000D03*
X102350000Y-70485000D03*
X100850000Y-70485000D03*
X106795000Y-70485000D03*
X105295000Y-70485000D03*
X111240000Y-70485000D03*
X109740000Y-70485000D03*
X115685000Y-70485000D03*
X114185000Y-70485000D03*
X120130000Y-70485000D03*
X118630000Y-70485000D03*
D27*
X158715000Y-88050000D03*
X158715000Y-77050000D03*
X144815000Y-77050000D03*
X144815000Y-88050000D03*
X158715000Y-82550000D03*
D29*
X124775000Y-65674240D03*
X122875000Y-65674240D03*
X123825000Y-67673220D03*
X129220000Y-65674240D03*
X127320000Y-65674240D03*
X128270000Y-67673220D03*
X133665000Y-65674240D03*
X131765000Y-65674240D03*
X132715000Y-67673220D03*
D16*
X124575000Y-62865000D03*
X123075000Y-62865000D03*
X124575000Y-70485000D03*
X123075000Y-70485000D03*
X129020000Y-62865000D03*
X127520000Y-62865000D03*
X129020000Y-70485000D03*
X127520000Y-70485000D03*
X133465000Y-62865000D03*
X131965000Y-62865000D03*
X133465000Y-70485000D03*
X131965000Y-70485000D03*
D15*
X102985000Y-106680000D03*
X101485000Y-106680000D03*
X109335000Y-106680000D03*
X107835000Y-106680000D03*
X115685000Y-106680000D03*
X114185000Y-106680000D03*
X128385000Y-106680000D03*
X126885000Y-106680000D03*
X134735000Y-106680000D03*
X133235000Y-106680000D03*
X141085000Y-106680000D03*
X139585000Y-106680000D03*
X109335000Y-99060000D03*
X107835000Y-99060000D03*
X115685000Y-99060000D03*
X114185000Y-99060000D03*
X122035000Y-99060000D03*
X120535000Y-99060000D03*
X134735000Y-99060000D03*
X133235000Y-99060000D03*
X128385000Y-99060000D03*
X126885000Y-99060000D03*
D17*
X106045000Y-80415000D03*
X106045000Y-83415000D03*
D30*
X109855000Y-80915000D03*
X109855000Y-82915000D03*
D20*
X136525000Y-80530000D03*
X136525000Y-82030000D03*
M02*
